<?xml version="1.0" standalone="no"?>
<!DOCTYPE svg PUBLIC "-//W3C//DTD SVG 1.1//EN" "http://www.w3.org/Graphics/SVG/1.1/DTD/svg11.dtd" >
<svg xmlns="http://www.w3.org/2000/svg">
<metadata>Generated by IcoMoon</metadata>
<defs>
<font id="icomoon" horiz-adv-x="1024">
<font-face units-per-em="1024" ascent="960" descent="-64" />
<missing-glyph horiz-adv-x="1024" />
<glyph unicode="&#x20;" horiz-adv-x="512" d="" />
<glyph unicode="&#xe900;" glyph-name="pin-1" horiz-adv-x="789" d="M394.634 960c217.833-0.268 394.345-176.798 394.587-394.611v-0.023c-6.053-176.506-76.578-335.455-188.616-455.035l0.358 0.386c-54.884-63.593-116.268-119.178-183.799-166.604l-3.185-2.12c-5.454-3.608-12.149-5.756-19.345-5.756s-13.891 2.148-19.477 5.838l0.132-0.082c-70.735 49.546-132.134 105.132-185.953 167.447l-1.078 1.277c-111.72 119.24-182.253 278.263-188.226 453.669l-0.032 1.17c0.375 217.761 176.857 394.177 394.608 394.445h0.026zM394.634 14.795c72.567 54.071 323.86 262.193 323.86 550.524 0 178.863-144.997 323.86-323.86 323.86s-323.86-144.997-323.86-323.86v0c0-288.285 251.294-496.406 323.86-550.524zM394.587 722.059c86.487 0 156.598-70.112 156.598-156.598s-70.112-156.598-156.598-156.598c-86.47 0-156.571 70.085-156.598 156.549v0.003c0.081 86.464 70.138 156.538 156.588 156.646h0.010zM394.587 479.589c47.426 0 85.872 38.446 85.872 85.872s-38.446 85.872-85.872 85.872c-47.426 0-85.872-38.446-85.872-85.872 0-0.017 0-0.033 0-0.050v0.003c0.080-47.384 38.484-85.771 85.867-85.825h0.005z" />
<glyph unicode="&#xe901;" glyph-name="mail-1" horiz-adv-x="1400" d="M0 0.091v895.819c0 0.010 0 0.021 0 0.032 0 16.573 6.283 31.678 16.597 43.064l-0.049-0.054 0.508 0.581c11.507 12.58 27.986 20.446 46.304 20.468h1273.326c18.295-0.044 34.745-7.906 46.192-20.421l0.043-0.048 0.581-0.581c10.266-11.331 16.549-26.436 16.549-43.009 0-0.011 0-0.023 0-0.034v0.002-895.819c0-0.010 0-0.021 0-0.032 0-16.573-6.283-31.678-16.597-43.064l0.049 0.054-0.435-0.508c-11.496-12.607-27.976-20.499-46.3-20.541h-1273.403c-18.322 0.022-34.801 7.889-46.265 20.421l-0.043 0.048-0.508 0.581c-10.266 11.331-16.549 26.436-16.549 43.009 0 0.011 0 0.023 0 0.034v-0.002zM1089.47 261.897c5.656 5.513 13.395 8.913 21.927 8.913 8.998 0 17.113-3.781 22.842-9.842l0.014-0.015 202.434-213.321v800.662l-379.899-400.005 102.632-108.149c5.454-5.771 8.807-13.577 8.807-22.166 0-9.063-3.732-17.253-9.744-23.119l-0.007-0.006c-5.656-5.513-13.395-8.913-21.927-8.913-8.998 0-17.113 3.781-22.842 9.842l-0.014 0.015-100.818 106.261-146.182-154.021c-16.729-17.824-40.438-28.927-66.74-28.927s-50.011 11.103-66.695 28.878l-0.045 0.049-146.109 153.658-381.133-401.601h1188.037l-205.265 216.515c-5.517 5.784-8.912 13.634-8.912 22.277 0 9.007 3.687 17.153 9.633 23.011l0.004 0.004zM678.941 292.092c5.241-5.665 12.714-9.199 21.013-9.199s15.772 3.535 20.995 9.181l0.017 0.019 572.97 603.817h-1187.965zM443.191 448.29l-379.826 400.005v-800.59z" />
<glyph unicode="&#xe902;" glyph-name="fear" d="M557.006-64h-90.012c-0.076 0-0.166-0.001-0.256-0.001-33.132 0-59.991 26.859-59.991 59.991 0 27.853 18.981 51.272 44.714 58.028l0.418 0.093v24.879c-0.051 5.823-4.224 10.656-9.741 11.726l-0.076 0.012c-50.557 9.984-95.346 29.225-134.571 56.012l1.241-0.8c-1.951 1.405-4.389 2.247-7.024 2.247-3.342 0-6.368-1.355-8.558-3.545l-17.764-17.764c4.902-8.493 7.794-18.68 7.794-29.543 0-33.075-26.812-59.887-59.887-59.887-16.122 0-30.756 6.371-41.522 16.732l0.019-0.018-63.627 63.627c-10.588 10.817-17.121 25.639-17.121 41.987 0 33.161 26.882 60.043 60.043 60.043 10.962 0 21.237-2.937 30.083-8.068l-0.288 0.154 17.608 17.608c2.19 2.19 3.545 5.216 3.545 8.558 0 2.635-0.842 5.073-2.271 7.060l0.025-0.036c-25.914 37.946-45.101 82.683-54.677 130.881l-0.38 2.294c-1.083 5.592-5.916 9.765-11.733 9.817h-24.885c-6.929-26.099-30.342-45.018-58.173-45.018-0.749 0-1.495 0.014-2.237 0.041l0.107-0.003c-32.21 1.345-57.813 27.783-57.813 60.201 0 0.236 0.001 0.473 0.004 0.708v-0.036 89.025c0.010 33.124 26.865 59.973 59.991 59.973 0.712 0 1.422-0.012 2.128-0.037l-0.102 0.003c26.743-1.282 48.862-19.666 55.734-44.397l0.101-0.427h25.139c5.823 0.051 10.656 4.224 11.726 9.741l0.012 0.076c9.999 50.52 29.238 95.272 56.012 134.467l-0.8-1.24c1.405 1.951 2.247 4.389 2.247 7.024 0 3.342-1.355 6.368-3.545 8.558l-17.608 17.608c-8.575-5.008-18.877-7.965-29.871-7.965-33.132 0-59.991 26.859-59.991 59.991 0 16.275 6.481 31.036 17.002 41.844l63.614 63.614c10.817 10.588 25.639 17.121 41.987 17.121 33.161 0 60.043-26.882 60.043-60.043 0-10.962-2.937-21.237-8.068-30.083l0.154 0.288 17.608-17.608c2.19-2.19 5.216-3.545 8.558-3.545 2.635 0 5.073 0.842 7.060 2.271l-0.036-0.025c37.917 25.902 82.616 45.086 130.775 54.675l2.296 0.381c5.548 1.126 9.672 5.945 9.713 11.734v24.883c-26.151 6.849-45.132 30.269-45.132 58.122 0 33.132 26.859 59.991 59.991 59.991 0.090 0 0.18 0 0.269-0.001h89.998c0.045 0 0.098 0 0.15 0 33.132 0 59.991-26.859 59.991-59.991 0-27.852-18.981-51.271-44.713-58.028l-0.418-0.093v-24.879c0.051-5.823 4.224-10.656 9.741-11.726l0.076-0.012c50.557-9.984 95.346-29.225 134.571-56.012l-1.241 0.8c1.951-1.405 4.389-2.247 7.024-2.247 3.342 0 6.368 1.355 8.558 3.545l17.608 17.608c-5.090 8.629-8.097 19.013-8.097 30.099 0 33.132 26.859 59.991 59.991 59.991 16.468 0 31.386-6.635 42.226-17.378l-0.004 0.004 63.367-63.471c10.588-10.817 17.121-25.639 17.121-41.987 0-33.161-26.882-60.043-60.043-60.043-10.962 0-21.237 2.937-30.083 8.068l0.288-0.154-17.608-17.608c-2.19-2.19-3.545-5.216-3.545-8.558 0-2.635 0.842-5.073 2.271-7.060l-0.025 0.036c25.987-37.984 45.228-82.773 54.831-131.034l0.381-2.296c1.083-5.592 5.916-9.765 11.733-9.817h25.093c6.554 24.195 27.124 42.155 52.252 44.751l0.259 0.022c1.619 0.155 3.5 0.244 5.402 0.244 33.132 0 59.991-26.859 59.991-59.991 0-0.013 0-0.025 0-0.038v0.002-90.012c0-0.049 0-0.106 0-0.164 0-33.075-26.812-59.887-59.887-59.887-27.799 0-51.175 18.942-57.924 44.623l-0.093 0.417h-25.087c-5.823-0.051-10.656-4.224-11.726-9.741l-0.012-0.076c-9.984-50.557-29.225-95.346-56.012-134.571l0.8 1.241c-1.405-1.951-2.247-4.389-2.247-7.024 0-3.342 1.355-6.368 3.545-8.558l17.608-17.608c8.629 5.090 19.013 8.097 30.099 8.097 33.132 0 59.991-26.859 59.991-59.991 0-16.468-6.635-31.386-17.378-42.226l0.004 0.004-63.627-63.107c-10.837-10.835-25.807-17.536-42.342-17.536-33.075 0-59.887 26.812-59.887 59.887 0 11.196 3.073 21.675 8.42 30.639l-0.152-0.274-17.764 17.764c-2.19 2.19-5.216 3.545-8.558 3.545-2.635 0-5.073-0.842-7.060-2.271l0.036 0.025c-37.94-25.968-82.673-45.206-130.876-54.83l-2.299-0.383c-5.592-1.083-9.765-5.916-9.817-11.733v-24.885c26.15-6.85 45.131-30.269 45.131-58.121 0-33.132-26.859-59.991-59.991-59.991-0.053 0-0.106 0-0.159 0h0.008zM301.928 188.066c0.002 0 0.004 0 0.007 0 10.907 0 21.035-3.339 29.417-9.050l-0.181 0.116c33.796-23.128 73.647-40.251 116.589-48.796l2.042-0.339c24.181-4.752 42.171-25.777 42.175-51.005v0-37.968c-0.029-13.786-11.197-24.954-24.98-24.983h-0.003c-11.044 0-19.997-8.953-19.997-19.997s8.953-19.997 19.997-19.997h90.012c11.044 0 19.997 8.953 19.997 19.997s-8.953 19.997-19.997 19.997v0c-13.786 0.029-24.954 11.197-24.983 24.98v37.971c0.009 25.243 18.025 46.275 41.899 50.952l0.329 0.054c44.984 8.887 84.835 26.010 119.736 49.847l-1.104-0.712c8.189 5.647 18.326 9.019 29.25 9.019 14.336 0 27.316-5.808 36.714-15.2l27.528-27.528c4.358-4.361 7.054-10.384 7.054-17.036s-2.695-12.676-7.054-17.036v0c-3.853-3.775-6.242-9.031-6.242-14.846 0-4.796 1.625-9.213 4.355-12.73l-0.035 0.047c3.694-4.448 9.226-7.259 15.415-7.259 5.522 0 10.521 2.238 14.139 5.856v0l63.783 63.627c3.622 3.622 5.863 8.626 5.863 14.154 0 11.055-8.962 20.016-20.016 20.016-5.527 0-10.531-2.24-14.154-5.863v0l-0.623-0.623c-4.361-4.358-10.384-7.054-17.036-7.054s-12.676 2.695-17.036 7.054l-27.528 27.528c-9.392 9.398-15.2 22.378-15.2 36.714 0 10.924 3.372 21.060 9.133 29.425l-0.114-0.175c23.127 33.796 40.25 73.647 48.796 116.589l0.339 2.042c4.73 24.203 25.762 42.218 51.004 42.227h38.904c13.31 0 24.1-10.79 24.1-24.1v0c0-0.050-0.001-0.11-0.001-0.169 0-10.541 7.85-19.248 18.022-20.595l0.106-0.011c0.56-0.056 1.211-0.088 1.87-0.088 11.038 0 19.988 8.944 19.997 19.98v89.909c-0.009 11.037-8.959 19.981-19.997 19.981-0.658 0-1.309-0.032-1.951-0.094l0.082 0.006c-10.278-1.359-18.128-10.066-18.128-20.607 0-0.060 0-0.119 0.001-0.179v0.009c0-13.31-10.79-24.1-24.1-24.1v0h-38.903c-25.243 0.009-46.275 18.025-50.952 41.899l-0.054 0.329c-8.887 44.984-26.010 84.835-49.847 119.736l0.712-1.104c-5.647 8.189-9.019 18.326-9.019 29.25 0 14.336 5.808 27.316 15.2 36.714l26.853 26.853c4.529 4.52 10.781 7.316 17.686 7.316s13.157-2.795 17.686-7.316v0c3.622-3.622 8.626-5.863 14.154-5.863 11.055 0 20.016 8.962 20.016 20.016 0 5.527-2.24 10.531-5.863 14.154v0l-63.834 63.575c-3.622 3.622-8.626 5.863-14.154 5.863-11.055 0-20.016-8.962-20.016-20.016 0-5.527 2.24-10.531 5.863-14.154v0c4.52-4.529 7.316-10.781 7.316-17.686s-2.795-13.157-7.316-17.686v0l-26.853-26.853c-9.398-9.392-22.378-15.2-36.714-15.2-10.924 0-21.060 3.372-29.425 9.133l0.175-0.114c-33.796 23.128-73.647 40.251-116.589 48.796l-2.042 0.339c-24.203 4.73-42.218 25.762-42.227 51.004v37.969c0.029 13.786 11.197 24.954 24.98 24.983h0.003c11.044 0 19.997 8.953 19.997 19.997s-8.953 19.997-19.997 19.997v0h-89.96c-11.044 0-19.997-8.953-19.997-19.997s8.953-19.997 19.997-19.997v0c13.786-0.029 24.954-11.197 24.983-24.98v-37.971c-0.009-25.243-18.025-46.275-41.899-50.952l-0.329-0.054c-44.984-8.887-84.835-26.010-119.736-49.847l1.104 0.712c-8.189-5.647-18.326-9.019-29.25-9.019-14.336 0-27.316 5.808-36.714 15.2l-26.853 26.853c-4.533 4.523-7.337 10.777-7.337 17.686s2.804 13.163 7.337 17.685v0c3.611 3.618 5.844 8.612 5.844 14.128 0 11.045-8.953 19.998-19.998 19.998-5.529 0-10.533-2.244-14.153-5.87v0l-63.575-63.575c-3.622-3.622-5.863-8.626-5.863-14.154 0-11.055 8.962-20.016 20.016-20.016 5.527 0 10.531 2.24 14.154 5.863v0c4.529 4.52 10.781 7.316 17.686 7.316s13.157-2.795 17.686-7.316v0l26.853-26.853c9.392-9.398 15.2-22.378 15.2-36.714 0-10.924-3.372-21.060-9.133-29.425l0.114 0.175c-23.127-33.796-40.25-73.647-48.796-116.589l-0.339-2.042c-4.73-24.203-25.762-42.218-51.004-42.227h-39.112c-13.212 0.029-23.915 10.732-23.944 23.942v0.003c0 0.016 0 0.035 0 0.055 0 10.944-8.462 19.912-19.201 20.717l-0.069 0.004c-0.232 0.010-0.505 0.015-0.779 0.015-11.044 0-19.997-8.953-19.997-19.997 0-0.005 0-0.011 0-0.016v0.001-89.025c0-0.016 0-0.035 0-0.055 0-10.944 8.462-19.912 19.201-20.717l0.069-0.004c0.232-0.010 0.505-0.015 0.779-0.015 11.044 0 19.997 8.953 19.997 19.997 0 0.005 0 0.011 0 0.016v-0.001c0.029 13.786 11.197 24.954 24.98 24.983h37.971c25.243-0.009 46.275-18.025 50.952-41.899l0.054-0.329c8.887-44.984 26.010-84.835 49.847-119.736l-0.712 1.104c5.647-8.189 9.019-18.326 9.019-29.25 0-14.336-5.808-27.316-15.2-36.714l-27.528-27.528c-4.361-4.358-10.384-7.054-17.036-7.054s-12.676 2.695-17.036 7.054l-0.623 0.623c-3.622 3.622-8.626 5.863-14.154 5.863-11.055 0-20.016-8.962-20.016-20.016 0-5.527 2.24-10.531 5.863-14.154v0l63.731-63.627c3.619-3.618 8.618-5.856 14.139-5.856 6.188 0 11.72 2.811 15.388 7.226l0.026 0.033c2.695 3.469 4.32 7.886 4.32 12.682 0 5.815-2.389 11.071-6.238 14.842l-0.004 0.003c-4.358 4.361-7.054 10.384-7.054 17.036s2.695 12.676 7.054 17.036l27.528 27.528c9.389 9.341 22.335 15.115 36.629 15.115 0.033 0 0.065 0 0.098 0h-0.005zM434.739 532.273c-46.385 0-83.987 37.602-83.987 83.987s37.602 83.987 83.987 83.987c46.385 0 83.987-37.602 83.987-83.987v0c-0.059-46.361-37.626-83.928-83.981-83.987h-0.006zM434.739 660.253c-24.297 0-43.993-19.696-43.993-43.993s19.696-43.993 43.993-43.993c24.297 0 43.993 19.696 43.993 43.993v0c-0.030 24.285-19.708 43.964-43.99 43.993h-0.003zM378.020 248.42c-40.16 0-72.716 32.556-72.716 72.716s32.556 72.716 72.716 72.716c40.16 0 72.716-32.556 72.716-72.716v0c0-40.16-32.556-72.716-72.716-72.716v0zM378.020 353.755c-18.043 0-32.67-14.627-32.67-32.67s14.627-32.67 32.67-32.67c18.043 0 32.67 14.627 32.67 32.67v0c-0.030 18.031-14.639 32.641-32.668 32.67h-0.003zM651.693 268.157c-0.018 0-0.040 0-0.062 0-63.116 0-115.17 47.361-122.562 108.483l-0.058 0.591c-0.085 0.694-0.134 1.497-0.134 2.311 0 11.046 8.955 20.001 20.001 20.001 10.232 0 18.669-7.683 19.858-17.595l0.009-0.095c5.079-41.708 40.274-73.703 82.941-73.703 46.127 0 83.52 37.393 83.52 83.52 0 42.848-32.267 78.16-73.827 82.963l-0.388 0.036c-9.762 1.432-17.173 9.749-17.173 19.797 0 11.044 8.953 19.997 19.997 19.997 0.542 0 1.078-0.022 1.609-0.064l-0.070 0.004c62.213-6.977 110.134-59.286 110.134-122.787 0-68.215-55.299-123.514-123.514-123.514-0.099 0-0.197 0-0.296 0h0.015zM625.983 596.263c-0.007 0-0.016 0-0.025 0-11.044 0-19.997 8.953-19.997 19.997s8.953 19.997 19.997 19.997c11.044 0 19.997-8.953 19.997-19.997 0-5.516-2.233-10.51-5.845-14.128v0c-3.623-3.607-8.612-5.844-14.123-5.869h-0.005zM511.974 189.987c-0.007 0-0.016 0-0.025 0-11.044 0-19.997 8.953-19.997 19.997s8.953 19.997 19.997 19.997c11.044 0 19.997-8.953 19.997-19.997 0-5.516-2.233-10.51-5.845-14.128v0c-3.623-3.607-8.612-5.844-14.123-5.869h-0.005zM287.333 427.769c-0.007 0-0.016 0-0.025 0-11.044 0-19.997 8.953-19.997 19.997s8.953 19.997 19.997 19.997c11.044 0 19.997-8.953 19.997-19.997 0-5.516-2.233-10.51-5.845-14.128v0c-3.62-3.611-8.611-5.85-14.124-5.869h-0.004zM578.25 444.754c-0.007 0-0.016 0-0.025 0-11.044 0-19.997 8.953-19.997 19.997s8.953 19.997 19.997 19.997c11.044 0 19.997-8.953 19.997-19.997 0-5.516-2.233-10.51-5.845-14.128v0c-3.623-3.607-8.612-5.844-14.123-5.869h-0.005z" />
<glyph unicode="&#xe903;" glyph-name="rotating-arrow-to-the-right" d="M425 919.6c-73.8-7.4-148.4-34.4-212.6-77-97.6-64.6-168.6-164.6-197.4-277.4-10.8-43-13.8-68.4-13.8-117.2s3-74.2 13.8-117.2c12.8-50.2 34.8-99.8 62.6-141.8 20.6-30.8 33.8-47.2 58-71.8 95-96.6 220.6-147.2 353.4-142.6 114.6 4 217.4 45.6 304.6 123.4 18 16 48.6 49.8 61.8 68.2l6.2 9-28.2 19.8c-15.4 11-29.2 20.6-30.4 21.4-1.4 0.8-8.8-6.6-19-19.6-55.4-70-140.6-121.6-230.6-139.8-45.4-9.2-102.4-10.4-144.4-2.8-173.4 30.8-303.6 164-330 338-4.4 27.6-4.4 84 0 111.6 10.4 68.8 36.4 130.8 77.8 185.2 81 107 210.4 166 343.2 156.8 136.8-9.4 253.4-82.2 321-200.4 7.4-13 13.2-24 12.8-24.2-0.4-0.4-26.8 11.8-58.6 27-32 15.4-58.6 27.6-59.6 27.4-1.8-0.8-31.6-61.4-31.6-64.4 0-2.4 222.4-110.2 227.2-110.2 1.8 0 23.2 42.4 57.8 114 46.6 96.8 54.4 114.2 51.8 115.6-1.8 1-17 8.4-33.8 16.4l-30.4 14.6-25.6-53.4c-14.2-29.2-26.4-54-27.2-55s-4.8 5-8.8 13c-26.4 52.8-74.8 112.4-123 151-50.2 40.6-115.8 73.4-179.2 89.6-54.2 13.8-113.2 18.4-167.8 12.8z" />
<glyph unicode="&#xe904;" glyph-name="close-icon" d="M633.544 448l365.828 365.828c16.217 15.624 26.289 37.528 26.289 61.785 0 47.358-38.391 85.749-85.749 85.749-24.257 0-46.162-10.072-61.76-26.263l-0.025-0.027-365.828-365.828-365.828 365.828c-15.624 16.217-37.528 26.289-61.785 26.289-47.358 0-85.749-38.391-85.749-85.749 0-24.257 10.072-46.162 26.263-61.76l0.027-0.025 365.828-365.828-365.828-365.828c-16.217-15.624-26.289-37.528-26.289-61.785 0-47.358 38.391-85.749 85.749-85.749 24.257 0 46.162 10.072 61.76 26.263l0.025 0.027 365.828 365.828 365.828-365.828c15.392-14.829 36.359-23.964 59.46-23.964 47.358 0 85.749 38.391 85.749 85.749 0 23.101-9.135 44.068-23.989 59.486l0.025-0.027z" />
<glyph unicode="&#xe905;" glyph-name="profile-icon" d="M512.102 960c-282.782-0.029-512.011-229.275-512.011-512.061 0-170.057 82.898-320.753 210.488-413.881l1.455-1.012 0.451-0.328c83.022-60.426 187.026-96.671 299.495-96.671s216.472 36.245 300.967 97.691l-1.473-1.020 0.492 0.369c129.012 94.142 211.887 244.819 211.887 414.852 0 282.694-229.080 511.884-511.732 512.061h-0.017zM242.471 58.772v33.141c0 0.037 0 0.080 0 0.123 0 137.714 111.639 249.353 249.353 249.353 0.015 0 0.029 0 0.044 0h40.512c0.012 0 0.027 0 0.041 0 137.714 0 249.353-111.639 249.353-249.353 0-0.058 0-0.115 0-0.173v0.009-33.1c-75.307-52.797-168.851-84.37-269.77-84.37-100.818 0-194.275 31.51-271.062 85.22l1.529-1.013zM513.372 379.527h-2.499c-93.497 0.395-169.151 76.223-169.267 169.747v0.011c0 4.383 0 8.807 0.574 13.314 7.197 88.21 80.559 157.070 170.004 157.070s162.807-68.861 169.964-156.46l0.040-0.61q0.533-6.554 0.533-13.15c-0.023-93.635-75.759-169.573-169.315-169.922h-0.034zM820.077 88.349v3.4c0 0.044 0 0.096 0 0.149 0 129.8-85.983 239.517-204.099 275.302l-2.037 0.53c64.246 36.147 106.938 103.884 106.959 181.595v0.003c0 5.489-0.246 10.938-0.696 16.386-9.454 107.477-99.038 191.142-208.163 191.142s-198.71-83.665-208.107-190.35l-0.056-0.793c-0.451-5.366-0.696-10.897-0.696-16.386 0.036-77.718 42.762-145.448 105.999-181.018l1.042-0.539c-120.152-36.315-206.135-146.032-206.135-275.832 0-0.052 0-0.104 0-0.157v0.008-3.4c-101.694 87.396-165.703 216.169-165.703 359.892 0 261.605 212.073 473.677 473.677 473.677s473.677-212.073 473.677-473.677c0-143.723-64.010-272.496-165.076-359.366l-0.627-0.526z" />
<glyph unicode="&#xe906;" glyph-name="dot-shape" d="M1024 448c0-282.77-229.23-512-512-512s-512 229.23-512 512c0 282.77 229.23 512 512 512s512-229.23 512-512z" />
<glyph unicode="&#xe907;" glyph-name="bell-2" horiz-adv-x="851" d="M497.438 760.267c-13.178 0.020-23.856 10.698-23.876 23.874v80.284c0 26.392-21.395 47.787-47.787 47.787s-47.787-21.395-47.787-47.787v0-80.282c0-13.206-10.705-23.911-23.911-23.911s-23.911 10.705-23.911 23.911v0 80.282c0 52.784 42.79 95.574 95.574 95.574s95.574-42.79 95.574-95.574v0-80.282c0-13.186-10.69-23.876-23.876-23.876v0zM425.775-64c-92.33 0.099-167.154 74.91-167.272 167.226v0.011c0.504 12.808 11.008 23 23.894 23s23.39-10.192 23.892-22.954l0.001-0.046c1.146-65.108 54.194-117.447 119.468-117.447s118.322 52.34 119.466 117.34l0.001 0.107c0.504 12.808 11.008 23 23.894 23s23.39-10.192 23.892-22.954l0.001-0.046c-0.119-92.315-74.923-167.119-167.226-167.238h-0.011zM787.636 79.361h-723.758c-0.335-0.006-0.73-0.010-1.126-0.010-34.204 0-62.018 27.359-62.751 61.387l-0.001 0.068c0.046 18.836 8.702 35.64 22.238 46.693l0.109 0.086c64.16 51.589 104.984 129.942 105.375 217.843v124.486c3.403 159.099 133.18 286.77 292.777 286.77 1.843 0 3.682-0.017 5.517-0.051l-0.276 0.004c1.56 0.030 3.398 0.047 5.241 0.047 159.597 0 289.374-127.671 292.771-286.453l0.005-0.316v-124.42c0.32-87.847 41.017-166.124 104.49-217.281l0.538-0.419c13.803-11.146 22.587-28.030 22.694-46.97v-0.018c-0.715-34.092-28.521-61.456-62.718-61.456-0.396 0-0.79 0.004-1.184 0.011l0.059-0.001zM425.74 775.663c-1.34 0.026-2.919 0.040-4.503 0.040-136.79 0-248.022-109.425-250.937-245.516l-0.005-0.272v-124.42c-0.311-100.543-46.864-190.149-119.497-248.709l-0.614-0.479c-4.618-3.713-7.562-9.345-7.611-15.666v-0.008c0.212-11.353 9.465-20.475 20.849-20.475 0.16 0 0.32 0.002 0.479 0.005h723.734c0.125-0.003 0.273-0.004 0.42-0.004 11.384 0 20.637 9.122 20.849 20.455v0.020c0 0.006 0 0.013 0 0.020 0 6.298-2.883 11.922-7.402 15.625l-0.036 0.028c-73.286 59.031-119.891 148.627-120.284 249.122v124.486c-2.919 136.362-114.151 245.788-250.941 245.788-1.583 0-3.163-0.015-4.739-0.044l0.237 0.003z" />
<glyph unicode="&#xe908;" glyph-name="long-left-arrow" horiz-adv-x="1535" d="M556.189 940.437c12.634-12.617 20.45-30.057 20.45-49.322 0-18.991-7.595-36.209-19.914-48.781l0.011 0.012-324.232-324.78h1233.999c37.358-1.21 67.183-31.786 67.183-69.327s-29.825-68.117-67.072-69.324l-0.111-0.003h-1233.451l324.232-324.78c12.195-12.609 19.71-29.809 19.71-48.765 0-19.231-7.735-36.656-20.263-49.332l0.007 0.007c-12.462-12.329-29.608-19.945-48.532-19.945-19.197 0-36.563 7.837-49.073 20.486l-0.006 0.006-439.424 442.57c-5.806 6.223-10.631 13.458-14.168 21.394l-0.197 0.495c-3.375 7.677-5.339 16.626-5.339 26.034 0 0.226 0.001 0.452 0.003 0.678v-0.034c0 0.006 0 0.013 0 0.020 0 18.863 7.515 35.971 19.715 48.493l-0.015-0.015 439.424 442.639c12.405 13.070 29.904 21.202 49.302 21.202 18.624 0 35.497-7.495 47.768-19.634l-0.006 0.006z" />
<glyph unicode="&#xe909;" glyph-name="arrow-down-sign-to-navigate" d="M55.4 737.8c-20.6-4.8-39.4-20.6-48.8-40.8-4.6-10.2-5.6-14.6-5.4-29 0-32-19.2-10.4 238.4-268.4 155.4-155.6 232-231 238.2-234.4 14.6-7.8 31.6-10.6 46.8-7.4 6.8 1.4 16.6 4.8 21.6 7.4 6.2 3.4 82.8 78.8 238.2 234.4 257.6 258 238.4 236.4 238.4 268.4 0 14.4-0.8 18.8-5.6 29.4-16.8 36.8-61.6 52.4-98.2 34.2-5.2-2.6-77.6-73.6-207.4-203.2l-199.6-199.4-199.6 199.4c-130.4 130.2-202.2 200.6-207.4 203.2-15.2 7.4-34 9.8-49.6 6.2z" />
<glyph unicode="&#xe90a;" glyph-name="phone-icon" d="M986.775 910.793l-208.004 47.996c-3.215 0.762-6.906 1.199-10.699 1.199-19.7 0-36.648-11.787-44.175-28.693l-0.122-0.308-95.992-224.025c-2.504-5.618-3.963-12.173-3.963-19.069 0-14.836 6.75-28.095 17.346-36.873l0.080-0.064 121.167-99.223c-74.876-156.346-198.069-279.539-349.965-352.489l-4.45-1.926-99.223 121.167c-8.855 10.668-22.119 17.411-36.957 17.411-6.888 0-13.436-1.453-19.356-4.069l0.306 0.121-223.554-95.588c-17.321-7.688-29.183-24.735-29.183-44.554 0-3.773 0.43-7.446 1.244-10.972l-0.064 0.327 47.996-208.004c5.072-21.484 24.084-37.227 46.772-37.227 0.123 0 0.245 0 0.368 0.001h-0.019c512.364 0.115 927.672 415.494 927.672 927.874 0 0.047 0 0.095 0 0.142v-0.007c0 0.040 0 0.086 0 0.133 0 22.675-15.746 41.672-36.901 46.654l-0.325 0.064z" />
<glyph unicode="&#xe90b;" glyph-name="minus" d="M0 448v-34h1024v68h-1024v-34z" />
<glyph unicode="&#xe90c;" glyph-name="contrast-icon" horiz-adv-x="848" d="M723.702 660.024l-299.838 299.976-299.469-299.976c-76.687-76.701-124.118-182.656-124.118-299.689 0-234.094 189.77-423.864 423.864-423.864s423.864 189.77 423.864 423.864c0 117.032-47.431 222.987-124.119 299.689v0zM423.864 42.242c-0.095 0-0.207 0-0.32 0-175.57 0-317.898 142.328-317.898 317.898 0 87.991 35.749 167.632 93.515 225.192l224.703 224.749z" />
<glyph unicode="&#xe90d;" glyph-name="search-icon" horiz-adv-x="1074" d="M466.988 960c-257.911 0-466.988-209.078-466.988-466.988s209.078-466.988 466.988-466.988c257.911 0 466.988 209.078 466.988 466.988v0c-0.318 257.783-209.206 466.671-466.958 466.988h-0.030zM466.988 112.226c-210.302 0-380.786 170.484-380.786 380.786s170.484 380.786 380.786 380.786c210.302 0 380.786-170.484 380.786-380.786v0c-0.244-210.204-170.582-380.541-380.762-380.786h-0.024zM1054.585 39.83l-237.022 193.851c-7.239 6.112-16.904 9.219-26.978 7.804s-18.508-7.067-23.757-14.901l-0.024-0.037c-5.499-8.167-8.13-18.367-6.645-28.939s6.827-19.652 14.403-26.019l-0.039 0.033 237.064-193.845c7.239-6.112 16.904-9.219 26.978-7.804s18.508 7.067 23.757 14.901l0.024 0.037c5.487 8.162 8.111 18.352 6.627 28.912-1.487 10.583-6.838 19.671-14.427 26.040l0.038-0.033z" />
<glyph unicode="&#xe90e;" glyph-name="plus" d="M498.4 957.8c-9-2.6-21.6-16-24.2-25.2-1.4-5.2-2.2-78.4-2.2-226v-218.6l-445.2-1-8.2-5.4c-12.6-8.2-17.6-18-17.6-33.8 0-10.8 1-14.4 5.4-21.2 3-4.4 8.8-10.2 13-12.8l7.6-4.8 445-1 0.4-222.6 0.6-222.4 4.8-7.6c2.6-4.2 8.4-10 12.8-13 6.8-4.6 10.4-5.4 21.4-5.4s14.6 0.8 21.4 5.4c4.4 3 10.2 8.8 12.8 13l4.8 7.6 0.6 222.4 0.4 222.6 445 1 7.6 4.8c4.2 2.6 10 8.4 13 12.8 4.6 6.8 5.4 10.4 5.4 21.4s-0.8 14.6-5.4 21.4c-3 4.4-8.8 10.2-13 12.8l-7.6 4.8-445 1-0.4 222.6-0.6 222.4-4.8 7.6c-9.4 15.2-30.2 22.6-47.8 17.2z" />
<glyph unicode="&#xe90f;" glyph-name="attached" d="M781.4 958c-29-5-59-18.6-81.4-37-7.2-6-146.2-144.2-309.2-307.4-320-320.4-307.6-307.2-326.8-348-21.8-46.8-26.6-105-13-157.6 7-26.6 25.4-62.6 43.4-84.8 38.2-47.2 88.2-75.4 151.6-85.2 55-8.4 121 9 168 44.2 8.6 6.6 112.6 109 248 244.6l233 233.2-21.6 21.4-21.4 21.6-235.6-235.2c-129.4-129.4-239.4-238-244.4-241.2-76-50.8-180-33.4-233.8 39.2-11.8 15.8-24.2 41.2-29.6 60.2-5 18-5 67.4 0.2 86 5.4 19.8 19.8 48 33 64.4 6.6 8 144 146.6 305.6 307.8 317 316.8 302.4 303 331.6 310.8 18.8 5 44.8 4.4 64-1.8 45.4-14.6 77-57.4 77-104.8 0-19.2-3-32.6-11.4-50.4-7-14.8-11-19-253.4-261.8-199.2-199.6-248.2-247.6-256.2-251.4-24.4-11.6-54.2-1-67.6 24.2-6.2 11.6-6 32.8 0.4 45 3.2 6.2 58.8 63.2 183.4 188l178.8 179-20.6 20.6c-11.2 11.2-21.4 20.4-22.4 20.4-1.2 0-83.6-81.6-183.2-181.4-167-167.4-181.6-182.8-188.4-195.8-9.6-18.4-13.4-34-13.4-53.4 0-62.4 49-111.6 111-111.8 20.4-0.2 35 3.4 53.8 12.8 10.8 5.2 42.4 36.2 261.8 255.2 175.8 175.6 252.2 253.4 258.6 262.8 20.4 30.6 29.4 60.6 29.2 98.6-0.2 46.6-17 87-49.8 119.8-39 39.2-96.4 58-149.2 49.2z" />
<glyph unicode="&#xe910;" glyph-name="bell" d="M478 955.8c-39.2-10.2-73.6-46.2-81.8-85.4-1.2-5.8-2.2-29.2-2.2-52.2v-41.6l-10.4-4.8c-22.6-10.4-52.2-32.2-75.8-55.6-42.6-42.6-67.4-88.6-79.8-148-3.2-15-4.6-32.2-6-79.2-4.2-132.8-20.6-218.8-54-285.4-14.4-28.4-24.2-40.6-50.6-64-16.2-14.2-12.6-38.8 7.2-47.8 8-3.4 14.8-3.8 120.6-3.8h112.2l1.4-13.8c2.8-31.2 17.8-63.8 40-87.6 49-52.6 122.6-65.2 186.2-32 22.6 11.8 51 40.2 62.4 62.4 10.2 19.8 16.2 39.2 17.8 57.2l1.4 13.8h112.2c105.8 0 112.6 0.4 120.6 3.8 19.8 9 23.4 33.6 7.2 48-27.6 24.4-37 36.6-51.8 66.4-23.6 47-39.8 113-47.8 192.2-1.6 17-3.8 56.8-4.8 88.6-2 63-4.4 81-14.4 112.6-15.2 47-36.4 81.4-72.6 117.4-24.6 24.6-46.8 41-72 53.4l-13.2 6.4v41.6c0 46.8-1.4 56.4-11.4 77.6-9.6 20-31.8 42.6-50.8 51.6-26.8 12.8-60.6 16-89.8 8.2zM533.2 897c12.2-3.6 23.2-12.4 30.4-24.6 5.2-9 5.4-10.6 6-43 0.8-32 0.6-33.8-3-32.6-7.6 2.2-38.2 5.2-54.6 5.2s-47-3-54.6-5.2c-3.6-1.2-3.8 0.6-3 32.6 0.6 32.4 0.8 34 6 43 6.6 11.2 18.8 21.2 30.2 24.8 11.4 3.4 30.6 3.4 42.6-0.2zM546.6 739c94.2-14.2 169.6-85.8 190.4-181 2.2-10.4 3.8-33 5-73.2 1-31.8 3.2-72.4 5-90 9.6-98.6 30.8-176 63.8-234.2l7.2-12.6h-612l7.2 12.6c18 31.6 31.6 66.4 42.8 109.8 15.6 61 23 121.6 26 215.4 1.8 56.2 2.6 63.8 9 88.4 15.2 58.6 62.8 115.8 120.6 144.6 39 19.6 89.2 27.2 135 20.2zM606 82.2c0-9.8-7.6-31-15.6-43.4-9.4-14.6-21.4-25.2-37.4-32.8-42.2-20.8-94-6.4-119.4 32.8-8 12.4-15.6 33.6-15.6 43.4v5.8h188v-5.8z" />
<glyph unicode="&#xe911;" glyph-name="Icon-metro-file-image" horiz-adv-x="878" d="M838.83 742.819c11.521-12.175 20.804-26.608 27.098-42.546l0.314-0.902c6.771-14.762 10.931-31.976 11.433-50.104l0.004-0.182v-658.26c0.001-0.126 0.002-0.276 0.002-0.425 0-30.078-24.383-54.462-54.462-54.462-0.15 0-0.299 0.001-0.448 0.002h-767.947c-0.126-0.001-0.276-0.002-0.425-0.002-30.078 0-54.462 24.383-54.462 54.462 0 0.15 0.001 0.299 0.002 0.448v-0.023 914.29c-0.002 0.18-0.003 0.393-0.003 0.607 0 30.078 24.383 54.462 54.462 54.462 0.15 0 0.3-0.001 0.45-0.002h511.977c18.31-0.507 35.524-4.668 51.112-11.774l-0.826 0.337c16.841-6.609 31.274-15.891 43.51-27.47l-0.062 0.058zM585.1 881.999v-214.579h214.881c-2.636 9.044-6.964 16.876-12.656 23.501l0.070-0.083-178.876 178.574c-6.541 5.625-14.374 9.952-22.977 12.476l-0.441 0.111zM804.52 8.858v585.402h-237.695c-0.126-0.001-0.276-0.002-0.425-0.002-30.078 0-54.462 24.383-54.462 54.462 0 0.15 0.001 0.299 0.002 0.448v-0.023 237.695h-438.84v-877.438h731.42zM731.359 264.827v-182.87h-585.1v110.013l109.649 109.71 73.221-73.1 219.42 219.42zM255.909 374.84c-60.686 0.007-109.879 49.205-109.879 109.892 0 30.343 12.297 57.813 32.18 77.699v0c19.939 19.767 47.392 31.981 77.699 31.981s57.76-12.214 77.706-31.989l-0.008 0.008c20.036-19.883 32.439-47.434 32.439-77.881 0-60.591-49.119-109.71-109.71-109.71-0.15 0-0.301 0-0.451 0.001h0.023z" />
<glyph unicode="&#xe912;" glyph-name="Icon-metro-file-pdf" horiz-adv-x="878" d="M838.88 742.867c11.522-12.175 20.805-26.609 27.1-42.549l0.314-0.902c6.771-14.763 10.932-31.978 11.434-50.107l0.004-0.182v-658.299c0.001-0.126 0.002-0.276 0.002-0.425 0-30.080-24.385-54.465-54.465-54.465-0.15 0-0.299 0.001-0.448 0.002h-767.992c-0.126-0.001-0.276-0.002-0.425-0.002-30.080 0-54.465 24.385-54.465 54.465 0 0.15 0.001 0.299 0.002 0.448v-0.023 914.344c-0.002 0.18-0.003 0.393-0.003 0.607 0 30.080 24.385 54.465 54.465 54.465 0.15 0 0.3-0.001 0.45-0.002h512.007c18.311-0.507 35.526-4.668 51.115-11.775l-0.826 0.337c16.842-6.609 31.276-15.892 43.513-27.472l-0.062 0.058zM585.134 882.055v-214.592h214.894c-2.636 9.045-6.964 16.877-12.657 23.503l0.070-0.083-178.887 178.584c-6.542 5.625-14.374 9.953-22.979 12.477l-0.441 0.111zM804.567 8.862v585.437h-237.709c-0.126-0.001-0.276-0.002-0.425-0.002-30.080 0-54.465 24.385-54.465 54.465 0 0.15 0.001 0.299 0.002 0.448v-0.023 237.709h-438.866v-877.49h731.463zM510.82 347.754c13.901-10.78 29.574-21.359 45.925-30.901l2.064-1.113c19.959 2.517 43.080 3.968 66.534 3.994h0.034q83.997 0 101.123-28.019c3.091-4.396 4.94-9.86 4.94-15.756 0-5.145-1.408-9.962-3.86-14.085l0.070 0.127c-0.020-0.458-0.226-0.864-0.543-1.148l-0.002-0.001-1.15-1.15v-0.545q-3.449-21.725-40.546-21.725c-23.722 0.745-46.221 4.873-67.387 11.918l1.666-0.481c-28.63 8.643-53.254 18.922-76.558 31.35l2.243-1.092c-82.878-8.261-158.827-25.008-231.159-49.583l7.247 2.138q-87.204-149.415-138.159-149.415c-0.054 0-0.118 0-0.182 0-5.787 0-11.229 1.48-15.967 4.081l0.172-0.087-13.737 6.838q-0.545 0.545-3.449 2.844c-2.658 3.767-4.249 8.452-4.249 13.509 0 2.546 0.403 4.997 1.149 7.294l-0.047-0.167c6.488 20.593 17.526 38.175 31.986 52.26l0.027 0.026c21.36 22.027 46.265 40.459 73.826 54.407l1.578 0.724c1.435 1.196 3.298 1.922 5.33 1.922 3.541 0 6.567-2.204 7.782-5.315l0.020-0.057c0.661-0.562 1.093-1.375 1.149-2.29v-0.009q29.714 48.413 61.122 112.561c22.029 42.272 42.174 91.93 57.657 143.603l1.589 6.175c-8.199 26.441-14.342 57.425-17.237 89.346l-0.131 1.792c-0.911 7.557-1.431 16.308-1.431 25.18 0 16.809 1.866 33.182 5.403 48.923l-0.28-1.484q6.052 22.875 24.207 22.875h12.587c0.447 0.029 0.968 0.046 1.494 0.046 7.424 0 14.067-3.342 18.507-8.603l0.030-0.036c4.608-7.009 7.35-15.601 7.35-24.834 0-5.009-0.807-9.83-2.299-14.34l0.092 0.322c-0.459-1.768-1.254-3.308-2.317-4.622l0.018 0.023c0.353-1.207 0.556-2.595 0.556-4.029 0-0.201-0.004-0.4-0.012-0.599l0.001 0.029v-17.126c0-0.198 0-0.433 0-0.668 0-38.478-2.904-76.278-8.505-113.192l0.517 4.143c15.336-54.111 44.408-100.185 83.238-135.787l0.214-0.194zM181.731 113.011c32.803 23.475 59.246 53.751 77.646 88.902l0.662 1.389c-18.598-14.471-34.978-30.218-49.59-47.508l-0.397-0.482c-10.88-12.25-20.321-26.157-27.824-41.2l-0.497-1.101zM409.152 638.899c-3.069-12.080-4.83-25.949-4.83-40.228 0-12.458 1.341-24.602 3.885-36.297l-0.205 1.122q0.545 3.994 3.994 25.114 0 1.694 3.994 24.57c0.482 1.764 1.273 3.301 2.32 4.626l-0.021-0.027c-0.319 0.285-0.525 0.692-0.545 1.146v0.003c0.051 0.125 0.081 0.271 0.081 0.424s-0.030 0.298-0.084 0.431l0.003-0.008c-0.051 0.125-0.081 0.271-0.081 0.424s0.030 0.298 0.084 0.431l-0.003-0.008c-0.062 7.842-2.862 15.018-7.489 20.632l0.045-0.056c-0.020-0.458-0.226-0.864-0.543-1.148l-0.002-0.001v-1.15zM338.287 261.155c46.259 19.072 100.717 35.116 157.154 45.508l5.151 0.788c-2.842 1.863-5.268 3.655-7.593 5.566l0.15-0.119c-3.379 2.533-6.358 5.051-9.184 7.729l0.046-0.044c-30.296 27.677-54.796 61.128-71.848 98.68l-0.772 1.899c-14.628-43.971-30.677-81.177-49.449-116.723l2.004 4.162q-17.126-32.013-25.72-47.445zM707.438 270.293c-18.061 9.4-39.439 14.913-62.104 14.913-6.311 0-12.522-0.427-18.607-1.255l0.708 0.079c20.838-8.829 44.995-14.569 70.313-15.952l0.552-0.024c0.664-0.028 1.443-0.045 2.226-0.045 2.845 0 5.639 0.214 8.368 0.628l-0.307-0.038q0 0.545-1.15 1.694z" />
<glyph unicode="&#xe913;" glyph-name="Icon-ionic-md-folder-open" horiz-adv-x="1434" d="M1297.12 806.393h-580.262l-136.597 153.607h-443.738c-75.316-0.208-136.316-61.207-136.524-136.503v-750.973c0.208-75.316 61.207-136.316 136.503-136.524h1160.617c75.222 0.332 136.096 61.284 136.304 136.504v597.366c-0.207 75.239-61.082 136.191-136.272 136.523h-0.032zM1331.288 72.524c-0.245-18.771-15.397-33.923-34.144-34.167h-1160.62c-18.771 0.245-33.923 15.397-34.167 34.144v631.463h1194.764c18.771-0.245 33.923-15.397 34.167-34.144v-0.023z" />
<glyph unicode="&#xe914;" glyph-name="category-icon" horiz-adv-x="1365" d="M1315.435 673.547h-892.288c-27.564 0-49.909 22.345-49.909 49.909s22.345 49.909 49.909 49.909v0h892.288c27.564 0 49.909-22.345 49.909-49.909s-22.345-49.909-49.909-49.909v0zM942.165 122.829h-892.288c-27.564 0-49.909 22.345-49.909 49.909s22.345 49.909 49.909 49.909v0h892.288c27.564 0 49.909-22.345 49.909-49.909s-22.345-49.909-49.909-49.909v0zM236.512 486.912c-130.622 0-236.512 105.89-236.512 236.512s105.89 236.512 236.512 236.512c130.622 0 236.512-105.89 236.512-236.512v0c0-130.622-105.89-236.512-236.512-236.512v0zM236.512 860.181c-75.529 0-136.758-61.228-136.758-136.758s61.228-136.758 136.758-136.758c75.529 0 136.758 61.228 136.758 136.758v0c0 75.529-61.228 136.758-136.758 136.758v0zM1128.8-63.806c-130.622 0-236.512 105.89-236.512 236.512s105.89 236.512 236.512 236.512c130.622 0 236.512-105.89 236.512-236.512v0c0-130.622-105.89-236.512-236.512-236.512v0zM1128.8 309.463c-75.529 0-136.758-61.228-136.758-136.758s61.228-136.758 136.758-136.758c75.529 0 136.758 61.228 136.758 136.758v0c0 75.529-61.228 136.758-136.758 136.758v0z" />
<glyph unicode="&#xe915;" glyph-name="left-arrow" horiz-adv-x="1650" d="M1579.035 519.472h-1335.045l318.617 318.617c13.945 13.069 22.633 31.602 22.633 52.164 0 39.45-31.98 71.43-71.43 71.43-20.562 0-39.095-8.688-52.128-22.594l-0.036-0.039-440.696-440.612c-12.91-12.923-20.893-30.77-20.893-50.481s7.984-37.557 20.894-50.481l440.527-440.611c13.069-13.945 31.602-22.633 52.164-22.633 39.45 0 71.43 31.98 71.43 71.43 0 20.562-8.688 39.095-22.594 52.128l-0.039 0.036-318.449 318.701h1335.045c39.496 0 71.514 32.018 71.514 71.514s-32.018 71.514-71.514 71.514v0z" />
<glyph unicode="&#xe916;" glyph-name="right-arrow" horiz-adv-x="1650" d="M71.43 519.472h1335.129l-318.617 318.617c-13.945 13.069-22.633 31.602-22.633 52.164 0 39.45 31.98 71.43 71.43 71.43 20.562 0 39.095-8.688 52.128-22.594l0.036-0.039 440.696-440.612c12.91-12.923 20.893-30.77 20.893-50.481s-7.984-37.557-20.894-50.481l-440.527-440.611c-13.069-13.945-31.602-22.633-52.164-22.633-39.45 0-71.43 31.98-71.43 71.43 0 20.562 8.688 39.095 22.594 52.128l0.039 0.036 318.617 318.617h-1335.297c-39.496 0-71.514 32.018-71.514 71.514s32.018 71.514 71.514 71.514v0z" />
<glyph unicode="&#xe917;" glyph-name="expand" d="M1006.911 584.545c-9.419 0-17.055 7.636-17.055 17.055v0 341.345c0 9.429 7.644 17.072 17.072 17.072s17.072-7.644 17.072-17.072v-341.345c0 0 0 0 0 0 0-9.419-7.636-17.055-17.055-17.055-0.012 0-0.024 0-0.035 0h0.002zM1006.911 925.855h-341.345c-9.429 0-17.072 7.644-17.072 17.072s7.644 17.072 17.072 17.072v0h341.345c9.429 0 17.072-7.644 17.072-17.072s-7.644-17.072-17.072-17.072v0zM597.311 516.289c-0.006 0-0.013 0-0.020 0-9.419 0-17.055 7.636-17.055 17.055 0 4.723 1.92 8.998 5.021 12.086l409.601 409.601c3.089 3.089 7.356 4.999 12.070 4.999 9.427 0 17.069-7.642 17.069-17.069 0-4.714-1.911-8.981-4.999-12.070l-409.6-409.6c-3.082-3.090-7.344-5.003-12.053-5.003-0.012 0-0.023 0-0.035 0h0.002zM17.055-63.966c-9.419 0-17.055 7.636-17.055 17.055v341.345c0 9.429 7.644 17.072 17.072 17.072s17.072-7.644 17.072-17.072v0-341.345c0 0 0 0 0 0 0-9.419-7.636-17.055-17.055-17.055-0.012 0-0.024 0-0.035 0h0.002zM358.4-64h-341.345c-9.429 0-17.072 7.644-17.072 17.072s7.644 17.072 17.072 17.072h341.345c9.429 0 17.072-7.644 17.072-17.072s-7.644-17.072-17.072-17.072v0zM17.055-63.966c-0.006 0-0.013 0-0.020 0-9.419 0-17.055 7.636-17.055 17.055 0 4.723 1.92 8.998 5.021 12.086l409.601 409.601c3.089 3.089 7.356 4.999 12.070 4.999 9.427 0 17.069-7.642 17.069-17.069 0-4.714-1.911-8.981-4.999-12.070l-409.6-409.6c-3.082-3.090-7.344-5.003-12.053-5.003-0.012 0-0.023 0-0.035 0h0.002z" />
<glyph unicode="&#xe918;" glyph-name="burger-menu" d="M25 814.6c-32.8-17.2-33.2-60-0.6-76.8 7.2-3.8 19-3.8 487-3.8 462.6 0 479.8 0.2 487.6 3.8 32.8 15.2 33.2 59.6 0.6 76.4-7.2 3.8-19 3.8-488 3.8-433.8-0.2-481.2-0.4-486.6-3.4zM29.8 489.2c-12-4.2-20-11.2-25-22-10.4-22.4-2-46.2 20-56.4l10.2-4.8h954l10.2 4.8c22.6 10.4 30.8 34.8 19.2 57.4-5.8 11.4-14 18.4-26.2 21.8-4.8 1.2-169.6 2-481.2 2-382.2-0.2-475.4-0.6-481.2-2.8zM25 160.2c-20.8-9.4-30.6-34.8-21.2-55.2 3.8-8.6 15.6-20 23.6-23.2 6.6-2.4 962.6-2.4 969.2 0 8 3.2 19.8 14.6 23.6 23.2 9.4 20.4-0.4 45.8-21.2 55.2-7.6 3.6-28 3.8-487 3.8s-479.4-0.2-487-3.8z" />
<glyph unicode="&#xe919;" glyph-name="downline-arrow" d="M497 958.2c-18.4-4.8-34.6-18-43-35.2l-5-10-0.6-254.8-0.4-255-63.6 63.2c-58.2 58-64.4 63.4-75 67.4-14.2 5.2-32.8 5.6-46.6 0.8-13.4-4.6-32.8-24-37.4-37.4-4.8-13.8-4.4-32.4 0.8-46.6 4-11 10.8-18.2 126.6-133.8 97.2-97.2 124.2-123.2 132.2-127 14.2-6.8 39.8-6.8 54 0 8 3.8 35 29.8 132.2 127 117.2 117.2 122.6 122.6 126.8 134.2 5.6 15.6 5 37.6-1.6 51-5.6 11.8-18.4 24.8-30.2 30.4-13.6 6.8-35.4 7.4-51.2 1.4-11.2-4-16.4-8.6-75.4-67.4l-63.6-63.2-0.4 255-0.6 254.8-6.8 12.6c-11.4 21-28.8 32-52 33.4-7.2 0.4-15.8 0.2-19.2-0.8zM49 62.2c-18-4.4-34.6-18-43-35.2-6.8-13.8-7-39.6-0.4-53 6.8-14.2 15-22.6 28.8-30.2l12.6-6.8h930l10.2 5.4c15.2 8 21.4 14 29 28 6.2 11.6 6.8 14 6.8 29.6s-0.6 18-6.8 29.6c-7.4 13.8-15.8 21.8-30.2 28.8l-9 4.6-461 0.4c-253.6 0-463.6-0.4-467-1.2z" />
<glyph unicode="&#xe91a;" glyph-name="location_1" horiz-adv-x="572" d="M286.046 17.978l-18.915 36.298c-9.009 17.308-221.188 425.293-253.785 584.427-3.074 14.79-4.835 31.786-4.835 49.194 0 62.695 22.832 120.058 60.634 164.227l-0.288-0.344c51.763 64.065 129.377 105.463 216.738 108.209l0.45 0.011c87.837-2.812 165.452-44.275 216.756-107.854l0.432-0.553c37.421-43.801 60.192-101.099 60.192-163.715 0-17.467-1.772-34.521-5.146-50.991l0.279 1.63c-32.597-159.097-244.739-567.119-253.785-584.427zM286.046 917.459c-74.53-2.629-140.304-37.977-183.732-92.040l-0.373-0.48c-31.531-36.638-50.732-84.673-50.732-137.193 0-14.336 1.431-28.337 4.157-41.87l-0.227 1.35c25.868-126.238 177.152-430.638 230.907-536.354 53.755 105.716 205.039 410.116 230.907 536.354v0c2.505 12.196 3.939 26.214 3.939 40.566 0 52.501-19.189 100.519-50.937 137.424l0.233-0.277c-43.825 54.513-109.614 89.825-183.724 92.396l-0.419 0.012zM572.316-64h-572.316l73.829 220.104 40.447-13.57-54.951-163.882h453.516l-54.989 163.882 40.447 13.57zM286.046 532.165c-71.33 0-129.154 57.824-129.154 129.154s57.824 129.154 129.154 129.154c71.317 0 129.133-57.803 129.154-129.115v-0.002c-0.064-71.312-57.845-129.107-129.146-129.192h-0.008zM286.046 747.821c-47.773 0-86.502-38.728-86.502-86.502s38.728-86.502 86.502-86.502c47.773 0 86.502 38.728 86.502 86.502 0 0.013 0 0.026 0 0.039v-0.002c-0.085 47.724-38.771 86.384-86.497 86.427h-0.004z" />
<glyph unicode="&#xe91b;" glyph-name="calendar2" horiz-adv-x="926" d="M170.237 960c-13.299-0.206-24-11.035-24-24.363 0-0.131 0.001-0.261 0.003-0.391v0.020-24.366h-73.189c-40.271-0.182-72.869-32.779-73.051-73.033v-170.668c0-13.469 10.919-24.389 24.389-24.389s24.389 10.919 24.389 24.389v0 48.731h828.845v-511.862c0.004-0.167 0.007-0.363 0.007-0.559 0-13.151-10.661-23.813-23.813-23.813-0.197 0-0.393 0.002-0.588 0.007l0.029-0.001h-780.206c-0.167-0.004-0.364-0.007-0.562-0.007-13.101 0-23.721 10.62-23.721 23.721 0 0.229 0.003 0.457 0.010 0.685l-0.001-0.033v121.874c0 13.469-10.919 24.389-24.389 24.389s-24.389-10.919-24.389-24.389v0-121.874c0.24-31.546 20.263-58.355 48.266-68.649l0.511-0.164v-28.603q0-0.599 0-1.151c1.399-30.812 20.933-56.731 48.123-67.437l0.516-0.179v-28.787c0.311-40.27 32.873-72.832 73.113-73.143h584.989c40.273 0.234 72.849 32.858 73.005 73.128v28.802c28.634 10.351 48.788 37.165 49.099 68.73v28.641c28.495 10.473 48.499 37.277 48.731 68.785v633.81c-0.208 40.277-32.816 72.869-73.079 73.051h-73.298v24.366c0 13.469-10.919 24.389-24.389 24.389s-24.389-10.919-24.389-24.389v0-24.366h-97.693v24.366c0 13.457-10.909 24.366-24.366 24.366s-24.366-10.909-24.366-24.366v-24.366h-97.37v24.366c0 13.469-10.919 24.389-24.389 24.389s-24.389-10.919-24.389-24.389v0-24.366h-97.37v24.366c0.044 0.549 0.069 1.188 0.069 1.834 0 13.457-10.909 24.366-24.366 24.366s-24.366-10.909-24.366-24.366c0-0.645 0.025-1.285 0.074-1.917l-0.005 0.084v-24.366h-97.693v24.366c0.002 0.11 0.003 0.241 0.003 0.371 0 13.457-10.909 24.366-24.366 24.366-0.131 0-0.261-0.001-0.391-0.003h0.020zM73.051 862.123h73.143v-24.273c0-13.457 10.909-24.366 24.366-24.366s24.366 10.909 24.366 24.366v24.273h97.739v-24.273c0-13.457 10.909-24.366 24.366-24.366s24.366 10.909 24.366 24.366v24.273h97.278v-24.273c0-13.469 10.919-24.389 24.389-24.389s24.389 10.919 24.389 24.389v0 24.273h97.508v-24.273c0-13.457 10.909-24.366 24.366-24.366s24.366 10.909 24.366 24.366v24.273h97.508v-24.273c0-13.469 10.919-24.389 24.389-24.389s24.389 10.919 24.389 24.389v0 24.273h73.051c0.194 0.006 0.422 0.009 0.651 0.009 13.101 0 23.721-10.62 23.721-23.721 0-0.197-0.002-0.394-0.007-0.591l0.001 0.029v-73.143h-828.615v73.143c-0.006 0.195-0.009 0.424-0.009 0.654 0 13.050 10.579 23.629 23.629 23.629 0.23 0 0.459-0.003 0.687-0.010l-0.034 0.001zM24.366 618.237c-13.457 0-24.366-10.909-24.366-24.366s10.909-24.366 24.366-24.366c13.457 0 24.366 10.909 24.366 24.366v0c0 13.457-10.909 24.366-24.366 24.366v0zM316.845 618.237c-13.457 0-24.366-10.909-24.366-24.366s10.909-24.366 24.366-24.366c13.457 0 24.366 10.909 24.366 24.366v0c0 13.457-10.909 24.366-24.366 24.366v0zM463.085 618.237c-13.457 0-24.366-10.909-24.366-24.366s10.909-24.366 24.366-24.366c13.457 0 24.366 10.909 24.366 24.366v0c0 13.457-10.909 24.366-24.366 24.366v0zM609.324 618.237c-13.457 0-24.366-10.909-24.366-24.366s10.909-24.366 24.366-24.366c13.457 0 24.366 10.909 24.366 24.366v0c0 13.457-10.909 24.366-24.366 24.366v0zM755.564 618.237c-13.457 0-24.366-10.909-24.366-24.366s10.909-24.366 24.366-24.366c13.457 0 24.366 10.909 24.366 24.366v0c0 13.457-10.909 24.366-24.366 24.366v0zM24.043 545.647c-13.299-0.206-24-11.035-24-24.363 0-0.131 0.001-0.261 0.003-0.391v0.020-121.782c0-13.469 10.919-24.389 24.389-24.389s24.389 10.919 24.389 24.389v0 121.782c0.002 0.11 0.003 0.241 0.003 0.371 0 13.457-10.909 24.366-24.366 24.366-0.131 0-0.261-0.001-0.391-0.003h0.020zM170.605 472.181c-13.457 0-24.366-10.909-24.366-24.366s10.909-24.366 24.366-24.366c13.457 0 24.366 10.909 24.366 24.366v0c0 13.457-10.909 24.366-24.366 24.366v0zM316.845 472.181c-13.457 0-24.366-10.909-24.366-24.366s10.909-24.366 24.366-24.366c13.457 0 24.366 10.909 24.366 24.366v0c0 13.457-10.909 24.366-24.366 24.366v0zM463.085 472.181c-13.457 0-24.366-10.909-24.366-24.366s10.909-24.366 24.366-24.366c13.457 0 24.366 10.909 24.366 24.366v0c0 13.457-10.909 24.366-24.366 24.366v0zM609.324 472.181c-13.457 0-24.366-10.909-24.366-24.366s10.909-24.366 24.366-24.366c13.457 0 24.366 10.909 24.366 24.366v0c0 13.457-10.909 24.366-24.366 24.366v0zM755.564 472.181c-13.457 0-24.366-10.909-24.366-24.366s10.909-24.366 24.366-24.366c13.457 0 24.366 10.909 24.366 24.366v0c0 13.457-10.909 24.366-24.366 24.366v0zM170.605 325.942c-13.457 0-24.366-10.909-24.366-24.366s10.909-24.366 24.366-24.366c13.457 0 24.366 10.909 24.366 24.366v0c0 13.457-10.909 24.366-24.366 24.366v0zM316.845 325.942c-13.457 0-24.366-10.909-24.366-24.366s10.909-24.366 24.366-24.366c13.457 0 24.366 10.909 24.366 24.366v0c0 13.457-10.909 24.366-24.366 24.366v0zM463.085 325.942c-13.457 0-24.366-10.909-24.366-24.366s10.909-24.366 24.366-24.366c13.457 0 24.366 10.909 24.366 24.366v0c0 13.457-10.909 24.366-24.366 24.366v0zM609.324 325.942c-13.457 0-24.366-10.909-24.366-24.366s10.909-24.366 24.366-24.366c13.457 0 24.366 10.909 24.366 24.366v0c0 13.457-10.909 24.366-24.366 24.366v0zM97.416 130.925h731.198v-24.273c0.004-0.167 0.007-0.363 0.007-0.559 0-13.151-10.661-23.813-23.813-23.813-0.197 0-0.393 0.002-0.588 0.007l0.029-0.001h-682.421c-0.021 0-0.045 0-0.069 0-13.457 0-24.366 10.909-24.366 24.366 0 0.373 0.008 0.743 0.025 1.112l-0.002-0.052zM146.194 33.278h633.782v-24.366c0.004-0.167 0.007-0.363 0.007-0.559 0-13.151-10.661-23.813-23.813-23.813-0.197 0-0.393 0.002-0.588 0.007l0.029-0.001h-585.051c-0.167-0.004-0.363-0.007-0.559-0.007-13.151 0-23.813 10.661-23.813 23.813 0 0.197 0.002 0.393 0.007 0.588l-0.001-0.029z" />
<glyph unicode="&#xe91c;" horiz-adv-x="2027" d="M0 448c0 237.527 192.554 430.081 430.081 430.081h1003.482c237.527 0 430.081-192.554 430.081-430.081s-192.554-430.081-430.081-430.081h-1003.482c-237.527 0-430.081 192.554-430.081 430.081z" />
<glyph unicode="&#xe91d;" horiz-adv-x="2027" d="M45.595 448c0 212.346 172.14 384.486 384.486 384.486h1003.482c212.346 0 384.486-172.14 384.486-384.486s-172.14-384.486-384.486-384.486h-1003.482c-212.346 0-384.486 172.14-384.486 384.486z" />
<glyph unicode="&#xe91e;" horiz-adv-x="2027" d="M837.821 251.091c5.107 5.073 8.269 12.1 8.269 19.865 0 7.659-3.076 14.6-8.059 19.654l0.003-0.003-130.249 130.462h495.677c15.377 0 27.843 12.466 27.843 27.843s-12.466 27.843-27.843 27.843h-495.464l130.249 130.462c4.937 5.070 7.982 12.004 7.982 19.65 0 7.752-3.13 14.773-8.196 19.867l0.001-0.001c-5.006 4.956-11.895 8.017-19.499 8.017-7.71 0-14.685-3.147-19.71-8.228l-0.002-0.002-176.513-177.79c-2.333-2.497-4.273-5.401-5.696-8.586l-0.079-0.199c-1.346-3.074-2.129-6.656-2.129-10.421 0-0.098 0.001-0.196 0.002-0.293v0.015c0.005-7.583 3.031-14.459 7.939-19.49l-0.006 0.006 176.483-178.033c4.993-5.237 12.023-8.493 19.813-8.493 7.476 0 14.251 2.999 19.189 7.859l-0.004-0.004z" />
<glyph unicode="&#xe91f;" horiz-adv-x="2027" d="M1863.645 17.919v860.162c0 45.242 36.676 81.919 81.919 81.919s81.919-36.676 81.919-81.919v-860.162c0-45.242-36.676-81.919-81.919-81.919s-81.919 36.676-81.919 81.919z" />
<glyph unicode="&#xe920;" glyph-name="three-dots" d="M168.2 540.8c-50.6-13.6-82-66.2-69.2-115.8 13.4-51.2 65.8-83 116-70 38 10 66 41.4 71.6 80.2 9.6 66.2-54 123-118.4 105.6zM488.2 540.8c-50.6-13.6-82-66.2-69.2-115.8 13.4-51.2 65.8-83 116-70 38 10 66 41.4 71.6 80.2 9.6 66.2-54 123-118.4 105.6zM808.2 540.8c-50.6-13.6-82-66.2-69.2-115.8 13.4-51.2 65.8-83 116-70 38 10 66 41.4 71.6 80.2 9.6 66.2-54 123-118.4 105.6z" />
<glyph unicode="&#xe921;" glyph-name="external" d="M976.694 948.641h-299.813c-26.129 0-47.306-21.177-47.306-47.306s21.177-47.306 47.306-47.306h185.607l-453.609-453.609c-18.476-18.476-18.476-48.425 0-66.901 9.24-9.235 21.345-13.855 33.45-13.855s24.21 4.62 33.45 13.855l453.609 453.609v-185.612c0-26.129 21.177-47.306 47.306-47.306s47.306 21.177 47.306 47.306v299.813c0 26.134-21.177 47.311-47.306 47.311zM783.172 554.217c-26.129 0-47.306-21.177-47.306-47.306v-464.941h-641.255v641.255h492.915c26.129 0 47.306 21.177 47.306 47.306s-21.177 47.306-47.306 47.306h-540.22c-26.129 0-47.306-21.177-47.306-47.306v-735.866c0-26.129 21.177-47.306 47.306-47.306h735.866c26.129 0 47.306 21.177 47.306 47.306v512.247c0 26.129-21.177 47.306-47.306 47.306z" />
<glyph unicode="&#xe922;" glyph-name="tabDefaultIcon" horiz-adv-x="1021" d="M1004.424 787.366c10.156 13.877 16.25 31.284 16.25 50.114 0 29.587-15.046 55.66-37.904 70.984l-0.308 0.194-77.045 51.277-77.013-51.277c-23.166-15.519-38.212-41.591-38.212-71.178 0-18.83 6.094-36.237 16.418-50.355l-0.168 0.241c-9.712-5.807-16.115-16.264-16.125-28.217v-32.96c0.018-18.178 14.749-32.909 32.925-32.927h0.002v-41.086l-273.189 287.444c-10.223 10.048-24.253 16.251-39.732 16.251s-29.509-6.203-39.74-16.259l0.008 0.008-273.028-287.411v41.086c18.153 0.037 32.858 14.742 32.895 32.891v32.931c-0.010 11.955-6.413 22.411-15.976 28.136l-0.149 0.083c10.146 13.873 16.235 31.272 16.235 50.092 0 29.621-15.081 55.72-37.984 71.037l-0.31 0.195-77.045 51.277-77.013-51.277c-23.216-15.512-38.3-41.612-38.3-71.236 0-18.805 6.078-36.19 16.377-50.299l-0.169 0.242c-9.712-5.807-16.115-16.264-16.125-28.217v-32.96c0.037-18.164 14.761-32.877 32.925-32.895h0.002v-329.272h-32.927v-428.021h1020.646v428.021h-32.895v329.272c18.178 0.018 32.909 14.749 32.927 32.925v32.897c-0.026 11.99-6.482 22.467-16.102 28.168l-0.152 0.083zM846.658 881.246l58.759 39.151 58.856-39.151c14.292-9.619 23.568-25.735 23.568-44.018 0-14.612-5.926-27.841-15.505-37.413l-7.773-7.773h-118.164l-7.901 7.804c-9.58 9.573-15.506 22.801-15.506 37.413 0 18.283 9.277 34.399 23.379 43.898l0.189 0.12zM494.456 916.946c4.075 4.028 9.681 6.517 15.867 6.517s11.791-2.488 15.869-6.519l-0.002 0.002 275.027-289.508h-45.408l-245.487 258.322-245.487-258.322h-45.537zM823.115 594.447v-230.458h-32.992v230.523zM296.312 561.584v-197.563h-32.927v230.49h493.876v-230.458h-32.927v197.531zM625.649 462.803v65.854h65.854v-65.854zM691.503 429.876v-65.854h-65.854v65.854zM527.028 462.803v65.854h65.854v-65.854zM592.883 429.876v-65.854h-66.080v65.854zM428.408 462.803v65.854h65.854v-65.854zM494.263 429.876v-65.854h-66.241v65.854zM329.788 462.803v65.854h65.854v-65.854zM395.642 429.876v-65.854h-66.403v65.854zM441.985 703.129c14.639 11.089 32.418 18.814 51.78 21.692l0.627 0.077v-33.282c-10.944-2.3-20.622-6.489-29.154-12.246l0.29 0.184zM442.276 656.302c-5.573-8.242-9.761-17.92-11.967-28.33l-0.095-0.534h-33.798c2.948 19.989 10.673 37.77 21.976 52.692l-0.207-0.286zM510.871 660.366c21.295-0.074 39.403-13.635 46.235-32.583l0.108-0.344h-93.235c6.932 19.298 25.045 32.863 46.335 32.927h0.008zM556.182 679.716c-8.242 5.573-17.92 9.761-28.33 11.967l-0.534 0.095v33.121c19.989-2.948 37.77-10.673 52.692-21.976l-0.286 0.207zM603.009 680.006c11.089-14.639 18.814-32.418 21.692-51.78l0.077-0.627h-33.798c-2.3 10.944-6.489 20.622-12.246 29.154l0.184-0.29zM510.323 759.115c-75.964-0.117-138.533-57.311-147.123-130.984l-0.066-0.693h-52.89l199.95 210.592 199.95-210.592h-52.89c-8.645 74.278-71.076 131.424-146.905 131.676h-0.026zM230.458 594.64v-230.458h-32.895v230.329zM56.47 881.246l58.759 39.184 58.921-39.184c14.292-9.619 23.568-25.735 23.568-44.018 0-14.612-5.926-27.841-15.505-37.413v0l-8.062-7.772h-117.938l-7.837 7.804c-9.58 9.573-15.506 22.801-15.506 37.413 0 18.283 9.277 34.399 23.379 43.898l0.189 0.12zM32.927 759.115h164.475v-32.927h-164.475zM164.475 693.293v-329.272h-32.766v329.272zM98.62 693.293v-329.272h-32.766v329.272zM98.62-31.041h-65.693v296.312h65.854zM197.402-31.041h-65.693v296.312h65.854zM263.256-31.041h-32.798v296.312h32.927zM394.965-31.041h-32.798v164.475h32.927zM526.674-31.041h-32.798v164.475h32.927zM658.382-31.041h-32.734v164.475h32.927zM724.237-31.041h-32.83v197.628h-98.749v-197.563h-32.927v197.563h-98.782v-197.563h-32.927v197.563h-98.782v-197.563h-32.927v296.248h428.021zM790.091-31.041h-32.83v296.312h32.863zM888.873-31.041h-65.758v296.312h65.854zM987.654-31.041h-65.758v296.312h65.854zM987.654 298.199h-954.727v32.863h954.824zM855.946 364.053v329.24h32.927v-329.272zM921.8 364.053v329.24h32.927v-329.272zM823.115 726.188v32.927h164.475v-32.927zM451.499 244.019h32.25v-32.25h-32.25v32.25zM386.999 244.019h32.25v-32.25h-32.25v32.25zM515.999 244.019h32.25v-32.25h-32.25v32.25zM580.499 244.019h32.25v-32.25h-32.25v32.25z" />
<glyph unicode="&#xe923;" glyph-name="websiteurl" horiz-adv-x="1022" d="M478.2-53.309h1.015c8.63 0.052 15.606 7.061 15.606 15.698 0 4.902-2.247 9.279-5.767 12.158l-0.028 0.022c-0.933 6.078-5.241 10.951-10.918 12.692l-0.111 0.029c-85.152 32.983-150.075 101.764-177.122 187.371l-0.571 2.096c58.099 16.213 124.984 26.026 193.997 27.059l0.612 0.007v-22.465c0-8.67 7.029-15.699 15.699-15.699s15.699 7.029 15.699 15.699v22.533c8.932 0 17.932-0.406 27.067-0.88 0.232-0.012 0.504-0.019 0.778-0.019 8.681 0 15.718 7.037 15.718 15.718 0 8.407-6.6 15.273-14.902 15.697l-0.038 0.002c-9.338 0.474-18.879 0.677-28.285 0.88v197.384h256.524c8.523 0.19 15.36 7.144 15.36 15.695 0 0.001 0 0.003 0 0.004v0c0.007 1.289 0.012 2.814 0.012 4.339 0 88.618-14.365 173.882-40.893 253.589l1.635-5.667c43.122 13.858 80.378 30.76 115.23 51.306l-2.632-1.435c62.633-73.964 102.88-168.663 109.284-272.52l0.065-1.327c1.052-7.778 7.649-13.711 15.632-13.711 8.651 0 15.675 6.968 15.765 15.597v0.009c-6.895 116.88-52.948 221.841-125.092 303.121l0.449-0.516-0.88 0.947c-92.411 103.912-226.467 169.052-375.738 169.052-148.857 0-282.583-64.779-374.528-167.684l-0.429-0.488c-1.321-1.072-2.442-2.323-3.346-3.727l-0.037-0.062v-0.474c-77.294-87.904-124.459-203.94-124.459-330.993 0-266.024 206.778-483.752 468.375-501.226l1.523-0.081zM400.722-10.137c-91.788 22.522-170.467 69.456-231.296 133.506l-0.192 0.204c28.808 16.655 62.229 31.602 97.234 43.046l3.792 1.073c26.103-72.611 71.272-133.051 129.508-177.136l0.954-0.692zM39.382 432.538h183.512c0.413-84.308 13.921-165.315 38.588-241.292l-1.575 5.609c-42.717-13.869-79.606-30.718-114.114-51.16l2.599 1.425c-64.644 76.988-105.178 176.133-108.922 284.624l-0.022 0.794zM149.34 750.572c32.139-19.067 69.303-35.944 108.339-48.677l3.988-1.125c-23.686-70.577-37.799-151.89-38.769-236.36l-0.004-0.473h-183.174c3.657 109.759 44.475 209.33 110.195 287.2l-0.575-0.7zM526.379 918.791c79.644-8.864 149.273-84.786 193.256-197.248-57.657-16.090-124.059-25.894-192.565-27.057l-0.691-0.009zM494.982 694.747c-69.141 1.049-135.563 10.738-198.845 28.030l5.589-1.302c43.983 112.53 113.612 188.655 193.256 197.316zM494.982 663.349v-199.278h-240.69c0.932 81.681 14.302 159.912 38.299 233.337l-1.556-5.503c60.968-17.163 131.151-27.542 203.588-28.616l0.63-0.007zM494.982 235.222c-73.462-1.034-144.044-11.49-211.181-30.21l5.813 1.384c-22.074 67.637-34.966 145.49-35.321 226.303l-0.001 0.177h240.69zM767.070 464.139h-240.69v199.143c73.153 1.055 143.432 11.436 210.306 30.001l-5.818-1.378c22.358-67.946 35.636-146.193 36.469-227.421l0.003-0.412zM850.976 774.323v0c-29.113-16.696-62.903-31.653-98.29-43.055l-3.819-1.063c-24.626 68.817-64.454 127.034-115.646 172.805l-0.402 0.354c86.287-23.701 160.090-68.709 218.001-129.080l0.156-0.164zM388.61 903.363c-51.621-46.218-91.505-104.488-115.329-170.439l-0.922-2.923c-38.985 12.468-72.569 27.375-104.159 45.379l2.659-1.395c57.935 60.553 131.599 105.6 214.437 128.594l3.314 0.785zM636.338 87.1c2.844-2.859 6.781-4.629 11.131-4.629s8.287 1.769 11.13 4.628l213.422 213.489c2.318 2.719 3.728 6.273 3.728 10.156 0 8.67-7.029 15.699-15.699 15.699-3.883 0-7.438-1.41-10.178-3.746l0.022 0.018-213.488-213.488c-2.819-2.837-4.561-6.747-4.561-11.064s1.742-8.226 4.562-11.064l-0.001 0.001zM981.979 432.741c-19.684 19.592-46.828 31.704-76.802 31.704s-57.118-12.112-76.806-31.709l-74.429-74.429c-19.579-19.651-31.684-46.761-31.684-76.697 0-2.775 0.104-5.526 0.308-8.249l-0.022 0.363c1.052-7.778 7.649-13.711 15.632-13.711 8.651 0 15.675 6.968 15.765 15.597v0.009c-0.162 1.878-0.255 4.063-0.255 6.269 0 21.137 8.494 40.291 22.255 54.233l74.425 74.425c13.975 13.975 33.282 22.619 54.607 22.619 42.651 0 77.226-34.575 77.226-77.226 0-21.325-8.644-40.632-22.619-54.607l-74.433-74.433c-13.919-13.838-33.104-22.391-54.287-22.391-2.758 0-5.482 0.145-8.166 0.428l0.334-0.029c-0.446 0.045-0.964 0.070-1.489 0.070-8.709 0-15.769-7.060-15.769-15.769 0-8.185 6.236-14.913 14.216-15.694l0.065-0.005c3.188-0.345 6.885-0.541 10.629-0.541 0.022 0 0.044 0 0.066 0h-0.003c0.126-0.001 0.275-0.001 0.424-0.001 29.741 0 56.682 11.992 76.25 31.405l74.426 74.426c19.673 19.698 31.839 46.897 31.839 76.937s-12.166 57.239-31.84 76.938l0.001-0.001zM681.539 236.711c-1.255 0.052-2.728 0.081-4.208 0.081-29.843 0-56.878-12.022-76.527-31.487l-74.425-74.425c-19.371-19.635-31.334-46.621-31.334-76.4 0-60.093 48.715-108.808 108.808-108.808 29.779 0 56.765 11.963 76.412 31.346l-0.012-0.012 73.892 74.433c19.508 19.649 31.564 46.719 31.564 76.605 0 2.116-0.060 4.219-0.18 6.305l0.013-0.289c-0.444 8.325-7.303 14.908-15.699 14.908-8.682 0-15.72-7.038-15.72-15.72 0-0.286 0.008-0.569 0.023-0.851l-0.002 0.039c0.073-1.259 0.115-2.732 0.115-4.214 0-21.279-8.601-40.549-22.515-54.524l-74.43-74.43c-13.975-13.975-33.282-22.619-54.607-22.619-42.651 0-77.226 34.575-77.226 77.226 0 21.325 8.644 40.632 22.619 54.607v0l74.433 74.095c14.013 13.916 33.32 22.516 54.636 22.516 0.989 0 1.974-0.019 2.954-0.055l-0.141 0.004c0.161-0.006 0.351-0.009 0.541-0.009 8.675 0 15.708 7.033 15.708 15.708 0 8.485-6.727 15.399-15.139 15.698l-0.027 0.001z" />
<glyph unicode="&#xe924;" glyph-name="clock" d="M512.034 960.136c-282.789 0-512.034-229.245-512.034-512.034s229.245-512.034 512.034-512.034c282.789 0 512.034 229.245 512.034 512.034v0c-0.271 282.679-229.354 511.763-512.007 512.034h-0.027zM512.034 893.358c245.908 0 445.256-199.348 445.256-445.256s-199.348-445.256-445.256-445.256c-245.908 0-445.256 199.348-445.256 445.256v0c0 0.121 0 0.265 0 0.409 0 245.607 199.104 444.711 444.711 444.711 0.192 0 0.383 0 0.575 0h-0.030zM512.034 815.416c-18.459 0-33.423-14.964-33.423-33.423v0-333.891c0-18.459 14.964-33.423 33.423-33.423h311.631c17.799 0.829 31.915 15.46 31.915 33.389s-14.116 32.56-31.841 33.386l-0.074 0.003h-278.276v300.468c0 18.459-14.964 33.423-33.423 33.423v0z" />
<glyph unicode="&#xe925;" glyph-name="location1" horiz-adv-x="768" d="M384.014-64c-8.503 0.237-16.267 3.216-22.486 8.080l0.084-0.063c-14.385 14.385-361.612 343.987-361.612 632.026 0 212.085 171.929 384.014 384.014 384.014s384.014-171.929 384.014-384.014v0c0-287.982-347.228-617.584-361.612-632.026-6.135-4.8-13.899-7.78-22.349-8.016l-0.053-0.001zM384.014 896.036c-0.917 0.010-2.001 0.015-3.085 0.015-175.032 0-316.923-141.891-316.923-316.923 0-1.085 0.005-2.168 0.016-3.251l-0.001 0.165c0-220.777 244.828-486.414 319.993-563.228 75.222 76.814 319.993 342.395 319.993 563.228 0.009 0.9 0.014 1.964 0.014 3.028 0 175.032-141.891 316.923-316.923 316.923-1.085 0-2.168-0.005-3.25-0.016l0.165 0.001zM384.014 448.114c-0.034 0-0.074 0-0.114 0-70.685 0-127.986 57.301-127.986 127.986s57.301 127.986 127.986 127.986c70.685 0 127.986-57.301 127.986-127.986 0-0.040 0-0.080 0-0.12v0.006c-0.289-70.505-57.367-127.583-127.844-127.872h-0.028zM384.014 640.121c-35.358 0-64.021-28.663-64.021-64.021s28.663-64.021 64.021-64.021c35.358 0 64.021 28.663 64.021 64.021v0c-0.193 35.246-28.762 63.755-64.012 63.851h-0.009z" />
<glyph unicode="&#xe926;" glyph-name="phone1" d="M797.595-64c-170.524 0-374.809 143.87-513.777 284.002-147.607 146.443-299.565 365.679-282.531 541.35 3.897 35.414 19.746 66.543 43.363 89.809l82.247 82.247c16.445 16.509 39.198 26.724 64.337 26.724s47.892-10.215 64.334-26.721l142.709-142.709c16.509-16.445 26.724-39.198 26.724-64.337s-10.215-47.892-26.721-64.334l-85.786-85.786 328.241-328.303 85.783 86.15c16.445 16.509 39.198 26.724 64.337 26.724s47.892-10.215 64.334-26.721l142.463-143.076c16.417-16.43 26.57-39.121 26.57-64.184s-10.153-47.754-26.571-64.184l-82.228-82.351c-23.319-23.615-54.46-39.457-89.217-43.321l-0.671-0.061c-9.375-0.429-18.382-0.919-27.941-0.919zM191.724 899.523c-0.025 0-0.055 0-0.084 0-8.368 0-15.943-3.396-21.422-8.884v0l-82.719-81.922c-14.192-13.727-23.76-32.157-26.185-52.773l-0.040-0.413c-12.255-127.326 91.91-320.766 265.314-492.576 172.117-173.649 365.557-277.691 492.883-265.252 20.857 2.379 39.15 11.846 52.733 25.894l0.023 0.024 82.351 82.229c5.503 5.482 8.908 13.066 8.908 21.446s-3.405 15.964-8.907 21.445l-142.645 142.645c-5.482 5.503-13.066 8.908-21.446 8.908s-15.964-3.405-21.445-8.907l-107.229-107.229c-5.482-5.503-13.066-8.908-21.446-8.908s-15.964 3.405-21.445 8.907l-370.95 370.889c-5.503 5.482-8.908 13.066-8.908 21.446s3.405 15.964 8.907 21.445l0.001 0.001 107.412 107.228c5.503 5.482 8.908 13.066 8.908 21.446s-3.405 15.964-8.907 21.445l-0.001 0.001-142.828 142.583c-5.343 5.355-12.68 8.719-20.802 8.884h-0.031z" />
<glyph unicode="&#xe927;" glyph-name="sort" horiz-adv-x="1365" d="M80.439 220.372l-80.518-80.439 187.349-187.27c10.293-10.292 24.513-16.658 40.219-16.658s29.926 6.366 40.219 16.658l187.31 187.27-80.439 80.518-90.208-90.208v829.836h-113.804v-829.757zM568.863 846.196h796.471v-113.804h-796.471zM568.863 618.667h625.784v-113.804h-625.784zM568.863 391.137h455.137v-113.804h-455.137zM568.863 163.529h284.451v-113.765h-284.451z" />
<glyph unicode="&#xe928;" glyph-name="date" horiz-adv-x="1118" d="M1003.842 849.754h-51.686v39.385c0.016 0.512 0.026 1.115 0.026 1.719 0 31.6-25.617 57.216-57.216 57.216s-57.216-25.617-57.216-57.216c0-0.605 0.009-1.207 0.028-1.807l-0.002 0.088v-39.54h-77.529v39.54c0 31.6-25.617 57.216-57.216 57.216s-57.216-25.617-57.216-57.216v0-39.385h-77.27v39.385c0 31.6-25.617 57.216-57.216 57.216s-57.216-25.617-57.216-57.216v0-39.385h-77.529v39.385c-0.957 30.851-26.195 55.497-57.19 55.497s-56.234-24.646-57.188-55.409l-0.002-0.088v-39.385h-51.686c-54.693-0.039-99.283-43.238-101.556-97.377l-0.007-0.206c-54.77-9.296-95.971-56.338-96.084-113.025v-575.482c0.088-63.335 51.408-114.654 114.734-114.743h767.233c63.335 0.088 114.654 51.408 114.743 114.734v87.874l67.553 67.553c17.528 17.442 28.376 41.584 28.376 68.26 0 0.060 0 0.121 0 0.181v-0.009 460.004c-0.059 56.153-45.564 101.659-101.712 101.718h-0.006zM875.403 889.139c0.188 10.446 8.7 18.842 19.173 18.842 0.365 0 0.727-0.010 1.087-0.030l-0.050 0.002c10.39 0 18.814-8.423 18.814-18.814v0-116.448c0-10.39-8.423-18.814-18.814-18.814v0h-1.447c-10.39 0-18.814 8.423-18.814 18.814v0zM683.597 889.139c0.218 10.451 8.741 18.839 19.223 18.839 0.347 0 0.691-0.009 1.034-0.027l-0.048 0.002c10.379-0.029 18.784-8.435 18.814-18.811v-116.451c-0.029-10.379-8.435-18.784-18.811-18.814h-1.399c-10.39 0-18.814 8.423-18.814 18.814v0zM491.791 889.139c0.218 10.451 8.741 18.839 19.223 18.839 0.347 0 0.691-0.009 1.034-0.027l-0.048 0.002c10.39 0 18.814-8.423 18.814-18.814v0-116.448c0-10.39-8.423-18.814-18.814-18.814v0h-1.396c-10.39 0-18.814 8.423-18.814 18.814v0zM299.985 889.139v0c0.218 10.451 8.741 18.839 19.223 18.839 0.347 0 0.691-0.009 1.034-0.027l-0.048 0.002c10.39 0 18.814-8.423 18.814-18.814v0-116.448c0-10.39-8.423-18.814-18.814-18.814v0h-1.396c-10.39 0-18.814 8.423-18.814 18.814v0zM146.529 748.036v0c0 35.368 28.671 64.039 64.039 64.039v0h51.686v-39.385c0-31.2 25.293-56.493 56.493-56.493v0h1.396c31.2 0 56.493 25.293 56.493 56.493v0 39.333h77.529v-39.385c0-31.2 25.293-56.493 56.493-56.493h1.396c31.2 0 56.493 25.293 56.493 56.493 0 0.018 0 0.036 0 0.054v-0.003 39.333h77.529v-39.385c0-31.2 25.293-56.493 56.493-56.493v0h1.396c31.188 0.029 56.463 25.304 56.493 56.49v39.388h77.529v-39.436c0-31.2 25.293-56.493 56.493-56.493h1.344c31.2 0 56.493 25.293 56.493 56.493v39.436h51.686c35.368 0 64.039-28.671 64.039-64.039v0-109.264h-921.507zM1067.933 293.459h-192.168c-10.379-0.029-18.784-8.435-18.814-18.811v-191.757c-0.004-0.054-0.007-0.117-0.007-0.181s0.003-0.127 0.007-0.189l-0.001 0.008h-646.383c-35.368 0-64.039 28.671-64.039 64.039v0 454.525h921.404zM972.004 63.612c-0.088-42.526-34.538-76.975-77.055-77.064h-767.234c-42.544 0.088-77.005 34.567-77.064 77.11v575.476c0 0.002 0 0.005 0 0.008 0 35.85 24.496 65.979 57.663 74.561l0.535 0.117v-567.304c0.059-56.153 45.564-101.659 101.712-101.718h651.971c0.092 0 0.201 0 0.309 0 26.649 0 50.764 10.849 68.169 28.371l40.889 40.889zM904.451 99.792c-2.93-2.898-6.161-5.504-9.637-7.765l-0.235-0.143v163.896h163.896c-2.398-3.71-4.987-6.939-7.867-9.883l0.011 0.011zM268.611 370.885h63.419c24.651 0.029 44.627 20.005 44.657 44.654v63.422c0 24.674-19.987 44.679-44.654 44.708h-63.421c-24.669-0.029-44.657-20.035-44.657-44.708v0-63.419c0.029-24.651 20.005-44.627 44.654-44.657h0.003zM261.634 478.96c0 0 0 0 0 0 0 3.864 3.118 7 6.975 7.029h63.422c3.86-0.029 6.978-3.165 6.978-7.029 0 0 0 0 0 0v0-63.419c0 0 0 0 0 0 0-3.864-3.118-7-6.975-7.029h-63.422c-3.86 0.029-6.978 3.165-6.978 7.029 0 0 0 0 0 0v0zM479.593 370.885h63.419c24.651 0.029 44.627 20.005 44.657 44.654v63.422c0 24.674-19.987 44.679-44.654 44.708h-63.421c-24.669-0.029-44.657-20.035-44.657-44.708v0-63.419c0.029-24.651 20.005-44.627 44.654-44.657h0.003zM472.615 478.96c0 0 0 0 0 0 0 3.864 3.118 7 6.975 7.029h63.422c3.86-0.029 6.978-3.165 6.978-7.029 0 0 0 0 0 0v0-63.419c0 0 0 0 0 0 0-3.864-3.118-7-6.975-7.029h-63.422c-3.86 0.029-6.978 3.165-6.978 7.029 0 0 0 0 0 0v0zM690.575 370.885h63.419c24.651 0.029 44.627 20.005 44.657 44.654v63.422c0 24.674-19.987 44.679-44.654 44.708h-63.421c-24.669-0.029-44.657-20.035-44.657-44.708v0-63.419c0.029-24.651 20.005-44.627 44.654-44.657h0.003zM683.597 478.96c0 0 0 0 0 0 0 3.864 3.118 7 6.975 7.029h63.422c3.86-0.029 6.978-3.165 6.978-7.029 0 0 0 0 0 0v0-63.419c0 0 0 0 0 0 0-3.864-3.118-7-6.975-7.029h-63.422c-3.86 0.029-6.978 3.165-6.978 7.029 0 0 0 0 0 0v0zM268.56 159.903h63.419c24.651 0.029 44.627 20.005 44.657 44.654v63.422c-0.029 24.651-20.005 44.627-44.654 44.657h-63.421c-24.64-0.059-44.598-20.017-44.657-44.651v-63.425c0.059-24.64 20.017-44.598 44.651-44.657h0.006zM261.582 267.978c0.029 3.842 3.136 6.949 6.975 6.978h63.422c3.854 0 6.978-3.124 6.978-6.978v0-63.419c0-3.854-3.124-6.978-6.978-6.978v0h-63.419c-3.842 0.029-6.949 3.136-6.978 6.975v0.003zM479.593 159.955h63.419c24.651 0.029 44.627 20.005 44.657 44.654v63.422c-0.029 24.651-20.005 44.627-44.654 44.657h-63.421c-24.651-0.029-44.627-20.005-44.657-44.654v-63.422c0.029-24.651 20.005-44.627 44.654-44.657h0.003zM472.615 268.030c0 3.854 3.124 6.978 6.978 6.978v0h63.419c3.854 0 6.978-3.124 6.978-6.978v0-63.419c0-3.854-3.124-6.978-6.978-6.978v0h-63.419c-3.854 0-6.978 3.124-6.978 6.978v0zM690.575 159.903h63.419c24.651 0.029 44.627 20.005 44.657 44.654v63.422c-0.029 24.651-20.005 44.627-44.654 44.657h-63.421c-24.64-0.059-44.598-20.017-44.657-44.651v-63.425c0.029-24.651 20.005-44.627 44.654-44.657h0.003zM683.597 267.978c0.029 3.842 3.136 6.949 6.975 6.978h63.422c3.842-0.029 6.949-3.136 6.978-6.975v-63.422c-0.029-3.842-3.136-6.949-6.975-6.978h-63.422c-3.842 0.029-6.949 3.136-6.978 6.975v0.003zM882.381 370.885h63.419c24.651 0.029 44.627 20.005 44.657 44.654v63.422c0 24.674-19.987 44.679-44.654 44.708h-63.421c-24.669-0.029-44.657-20.035-44.657-44.708v0-63.419c0.029-24.651 20.005-44.627 44.654-44.657h0.003zM875.403 478.96c0 0.015 0 0.034 0 0.052 0 3.854 3.124 6.978 6.978 6.978 0 0 0 0 0 0h63.419c3.86-0.029 6.978-3.165 6.978-7.029 0 0 0 0 0 0v0-63.419c0 0 0 0 0 0 0-3.864-3.118-7-6.975-7.029h-63.422c0 0 0 0 0 0-3.854 0-6.978 3.124-6.978 6.978 0 0.018 0 0.036 0 0.054v-0.003z" />
<glyph unicode="&#xe929;" glyph-name="download" d="M787.136 467.2c-9.264 9.258-22.059 14.984-36.192 14.984s-26.928-5.726-36.192-14.985v0l-151.552-151.616v593.216c0 28.277-22.923 51.2-51.2 51.2s-51.2-22.923-51.2-51.2v0-593.216l-151.552 151.616c-9.159 8.7-21.571 14.050-35.233 14.050-28.277 0-51.2-22.923-51.2-51.2 0-13.694 5.376-26.132 14.132-35.319l-0.019 0.021 238.912-238.912c9.264-9.258 22.059-14.984 36.192-14.984s26.928 5.726 36.192 14.985l238.912 238.912c9.258 9.264 14.984 22.059 14.984 36.192s-5.726 26.928-14.985 36.192v0zM972.8-64h-921.6c-28.277 0-51.2 22.923-51.2 51.2s22.923 51.2 51.2 51.2v0h921.6c28.277 0 51.2-22.923 51.2-51.2s-22.923-51.2-51.2-51.2v0z" />
<glyph unicode="&#xe92a;" glyph-name="facebook" horiz-adv-x="512" d="M418.54 789.977h93.46v162.816c-39.54 4.594-85.352 7.215-131.777 7.215-1.552 0-3.104-0.003-4.655-0.009l0.24 0.001c-134.774 0-227.092-84.795-227.092-240.601v-143.399h-148.716v-182.036h148.716v-457.964h182.351v457.925h142.69l22.489 182.036h-165.415v125.401c0 52.618 14.218 88.615 87.513 88.615z" />
<glyph unicode="&#xe92b;" glyph-name="instagram" d="M1021.215 658.944c-0.898 44.855-9.549 87.426-24.662 126.794l0.865-2.562c-27.231 69.013-80.85 122.618-148.097 149.213l-1.775 0.619c-36.793 14.225-79.346 22.874-123.799 23.791l-0.392 0.006c-54.845 2.58-72.090 3.195-211.354 3.195s-156.344-0.614-210.944-2.99c-44.855-0.9-87.426-9.552-126.795-24.662l2.563 0.865c-35.558-13.576-65.86-33.729-90.764-59.183l-0.044-0.045c-25.341-24.943-45.41-55.161-58.438-88.881l-0.585-1.722c-14.229-36.806-22.878-79.373-23.791-123.841l-0.006-0.39c-2.58-54.804-3.195-72.212-3.195-211.149s0.614-156.426 2.99-211.026c0.897-44.855 9.548-87.426 24.662-126.793l-0.864 2.562c27.222-69.006 80.826-122.61 148.057-149.213l1.775-0.619c36.806-14.229 79.373-22.878 123.841-23.791l0.39-0.006c54.6-2.499 71.885-3.113 211.149-3.113s156.426 0.573 211.026 2.99c44.855 0.896 87.426 9.548 126.793 24.662l-2.561-0.864c69.006 27.222 122.61 80.826 149.213 148.057l0.619 1.775c14.224 36.806 22.873 79.372 23.791 123.839l0.006 0.393c2.294 54.6 3.113 71.885 3.113 211.149s-0.41 156.344-2.785 210.944zM928.973 240.865c-0.361-34.219-6.789-66.829-18.257-96.954l0.644 1.927c-17.638-44.802-52.437-79.601-96.088-96.838l-1.151-0.401c-28.198-10.803-60.805-17.23-94.864-17.611l-0.163-0.001c-54.026-2.417-70.205-2.99-206.848-2.99s-153.027 0.573-206.848 2.99c-34.218 0.358-66.829 6.787-96.953 18.257l1.926-0.644c-23.073 8.612-42.725 21.639-58.781 38.177l-0.038 0.039c-16.531 16.122-29.55 35.765-37.852 57.723l-0.363 1.096c-10.802 28.198-17.229 60.805-17.611 94.863l-0.001 0.164c-2.417 54.026-2.99 70.205-2.99 206.848s0.573 153.027 2.99 206.848c0.358 34.218 6.787 66.829 18.257 96.953l-0.644-1.926c8.606 23.109 21.711 42.774 38.368 58.768l0.053 0.050c16.118 16.538 35.762 29.558 57.724 37.853l1.094 0.363c28.198 10.8 60.805 17.226 94.862 17.611l0.165 0.001c54.026 2.417 70.205 2.99 206.848 2.99s153.027-0.614 206.848-2.99c34.219-0.361 66.829-6.789 96.954-18.257l-1.927 0.644c23.075-8.608 42.728-21.636 58.781-38.177l0.038-0.039c16.533-16.122 29.551-35.764 37.852-57.723l0.363-1.095c10.801-28.198 17.227-60.805 17.611-94.862l0.001-0.165c2.417-54.026 2.99-70.205 2.99-206.848s-0.573-152.658-2.99-206.643zM512.123 710.963c-145.276 0-263.045-117.769-263.045-263.045s117.769-263.045 263.045-263.045c145.276 0 263.045 117.769 263.045 263.045v0c-0.047 145.257-117.788 262.998-263.040 263.045h-0.005zM512.123 277.279c-94.242 0-170.639 76.398-170.639 170.639s76.398 170.639 170.639 170.639c94.242 0 170.639-76.398 170.639-170.639v0c-0.023-94.232-76.407-170.616-170.637-170.639h-0.002zM847.012 721.326c0-33.932-27.508-61.44-61.44-61.44s-61.44 27.508-61.44 61.44c0 33.932 27.508 61.44 61.44 61.44v0c33.932 0 61.44-27.508 61.44-61.44v0z" />
<glyph unicode="&#xe92c;" glyph-name="message" horiz-adv-x="1490" d="M987.384 440.367l502.132-317.44v648.285zM0 771.212v-648.285l502.132 317.44zM1396.239 960h-1303.273c-45.969-0.376-83.869-34.441-90.24-78.696l-0.058-0.493 741.935-488.851 741.935 488.851c-6.429 44.748-44.329 78.813-90.259 79.189h-0.039zM901.989 384.264l-131.693-86.885c-7.215-4.786-16.074-7.636-25.6-7.636s-18.385 2.85-25.773 7.744l0.173-0.108-131.755 86.885-584.425-369.633c6.648-44.446 44.383-78.199 90.073-78.568h1303.312c45.625 0.496 83.229 34.205 89.802 78.064l0.062 0.504z" />
<glyph unicode="&#xe92d;" glyph-name="world" horiz-adv-x="1026" d="M513.025 960c283.24-0.026 512.842-229.644 512.842-512.888 0-283.26-229.628-512.888-512.888-512.888s-512.888 229.628-512.888 512.888c0 141.607 57.389 269.811 150.177 362.622l-0.001-0.001c92.653 92.835 220.749 150.267 362.259 150.267 0.175 0 0.35 0 0.526 0h-0.027zM819.022 753.383c-29.812 29.976-63.998 55.557-101.53 75.717l-2.29 1.124c6.079-9.358 11.953-18.988 17.554-29.165 48.019-90.911 77.447-198.233 80.509-312.133l0.021-0.968h130.8c-9.785 104.476-55.737 196.69-125.033 265.396l-0.030 0.030zM819.022 142.344c69.24 68.876 115.131 161.163 124.796 263.986l0.13 1.713h-130.732c-3.082-114.869-32.511-222.192-82.425-317.055l1.896 3.954c-5.601-10.109-11.407-20.013-17.554-29.165 39.815 21.284 74.013 46.769 103.898 76.577l-0.009-0.009zM206.958 142.344c29.84-29.864 64.047-55.357 101.583-75.441l2.306-1.127c-6.079 9.153-11.953 18.988-17.554 29.165-47.97 90.919-77.45 198.21-80.711 312.068l-0.023 1.033h-130.596c9.815-104.544 55.73-196.832 124.975-265.679l0.020-0.020zM206.958 753.383c-69.314-68.76-115.246-161.001-124.866-263.791l-0.129-1.703h130.596c3.296 114.923 32.801 222.236 82.708 317.146l-1.905-3.976c5.601 10.109 11.407 19.808 17.554 29.165-39.905-21.201-74.146-46.793-103.93-76.814l-0.027-0.027zM552.914 872.504v-384.615h180.32c-3.046 100.747-28.838 194.805-72.378 278.119l1.685-3.541c-23.162 48.475-61.259 86.705-108.252 109.437l-1.374 0.599zM552.914 408.043v-384.615c48.354 23.381 86.443 61.625 109.027 108.717l0.599 1.387c41.807 79.869 67.571 174.018 70.602 273.884l0.023 0.968zM472.862 23.428v384.615h-180.047c2.974-100.716 28.749-194.763 72.306-278.039l-1.681 3.529c23.181-48.42 61.182-86.641 108.051-109.501l1.371-0.604zM472.862 487.889v384.615c-48.198-23.437-86.158-61.64-108.685-108.647l-0.6-1.389c-41.956-79.754-67.742-173.84-70.605-273.669l-0.021-0.909z" />
<glyph unicode="&#xe92e;" glyph-name="youtube" horiz-adv-x="1352" d="M884.021 508.5l-298.677 163.43c-7.609 4.248-16.694 6.75-26.363 6.75-30.294 0-54.852-24.555-54.858-54.848v-324.054c0-0.052 0-0.113 0-0.175 0-30.24 24.514-54.754 54.754-54.754 9.567 0 18.56 2.454 26.386 6.766l-0.283-0.143 298.729 160.57c17.334 9.449 28.898 27.537 28.898 48.327 0 20.644-11.403 38.625-28.254 47.987l-0.28 0.143zM583.367 340.754v241.947l223.228-122.352zM1342.021 718.312v0.624c-5.4 59.588-26.944 113.285-60.17 157.741l0.58-0.811c-37.024 39.162-88.107 64.696-145.137 68.498l-0.666 0.036-6.708 0.572h-2.34c-178.77 13.208-448.692 15.027-451.604 15.027v0c-2.704 0-272.626-1.768-452.956-14.767h-2.392l-6.552-0.832c-57.745-4.067-108.645-30.422-144.697-70.422l-0.17-0.192c-31.383-43.159-52.567-95.641-58.987-152.593l-0.135-1.477v-1.404c-0.572-4.524-10.088-112.316-10.088-220.524v-101.188c0-108.208 9.516-216 9.932-220.576v-0.676c5.551-58.883 26.997-111.882 59.949-155.743l-0.567 0.788c38.545-39.529 91.469-64.878 150.303-67.58l0.492-0.018c5.512-0.624 10.4-1.144 13.468-1.716l3.12-0.416c103.216-9.828 426.749-14.663 440.476-14.871h0.832c2.704 0 272.626 1.768 451.344 14.767h2.34l7.592 0.832c57.156 3.321 107.716 29.078 143.461 68.513l0.158 0.177c31.434 43.353 52.583 96.088 58.838 153.301l0.128 1.446v1.404c0.416 4.524 9.932 112.316 9.932 220.524v101.032c0 108.208-9.568 216-9.932 220.524zM1272.759 396.6c0-100.148-8.736-203.313-9.568-212.777-4.525-41.264-18.393-78.554-39.433-110.73l0.59 0.962c-23.199-25.845-56.375-42.333-93.416-43.363l-0.181-0.004-8.424-0.936c-172.894-12.48-432.625-14.403-444.584-14.507-13.416 0-332.216 5.2-432.313 14.351-5.2 0.832-10.66 1.456-16.483 2.132-39.529 0.648-75.193 16.679-101.368 42.35l0.024-0.023-0.728 0.78c-20.902 30.678-34.652 67.781-38.057 107.834l-0.058 0.842c-0.624 7.176-9.62 111.536-9.62 213.192v101.084c0 100.044 8.736 203.105 9.568 212.777 4.318 41.279 18.215 78.608 39.414 110.688l-0.571-0.92c23.774 26.375 57.473 43.407 95.163 45.175l0.305 0.011 6.604 0.884c175.39 12.584 436.785 14.455 446.352 14.507s270.91-1.924 444.74-14.507l6.968-0.832c38.286-1.592 72.425-18.125 96.975-43.881l0.054-0.057 0.312-0.364c20.997-31.16 34.758-68.806 38.061-109.41l0.054-0.826c0.624-6.76 9.62-111.38 9.62-213.192z" />
<glyph unicode="&#xe92f;" glyph-name="phone" horiz-adv-x="1022" d="M995.035 208.482l-142.921 142.921c-17.292 17.804-41.457 28.852-68.203 28.852-41.592 0-76.944-26.718-89.828-63.927l-0.201-0.668c-14.108-37.405-49.605-63.529-91.203-63.529-7.424 0-14.653 0.832-21.6 2.408l0.651-0.124c-123.951 45.485-219.953 141.47-264.475 262.356l-0.985 3.055c-1.995 7.175-3.141 15.414-3.141 23.92 0 41.070 26.724 75.899 63.731 88.046l0.655 0.186c37.916 13.064 64.67 48.435 64.67 90.055 0 26.782-11.078 50.977-28.902 68.251l-0.025 0.024-142.921 142.921c-18.076 16.627-42.298 26.82-68.901 26.82s-50.824-10.193-68.973-26.886l0.073 0.066-96.987-96.987c-96.939-102.059 10.24-372.59 250.1-612.547s510.342-352.158 612.45-250.1l96.987 96.987c16.64 18.079 26.841 42.31 26.841 68.923 0 26.638-10.22 50.89-26.954 69.047l0.065-0.071z" />
<glyph unicode="&#xe930;" glyph-name="left-arrow-long" horiz-adv-x="1609" d="M511.965 960l90.549-90.549-357.42-357.42h1364.069v-127.991h-1364.069l357.49-357.49-90.619-90.549-512.035 512.035z" />
<glyph unicode="&#xe931;" glyph-name="right-arrow-long" horiz-adv-x="1609" d="M1097.198 960l-90.619-90.549 357.42-357.42h-1363.999v-128.061h1364.069l-357.42-357.42 90.549-90.549 512.035 512.035z" />
<glyph unicode="&#xe932;" glyph-name="attachment" d="M216.314 152.179c-0.009 0.009-0.020 0.020-0.031 0.031-48.595 48.595-48.595 127.382 0 175.976 0.011 0.011 0.022 0.022 0.033 0.033l172.974 172.974-64.197 64.197-172.975-172.975c-84.015-84.015-84.015-220.231 0-304.246s220.231-84.015 304.246 0l172.975 172.975-64.104 64.104-172.975-172.975c-0.009-0.009-0.020-0.020-0.031-0.031-48.573-48.573-127.311-48.595-175.911-0.065l-0.003 0.003zM567.679 807.79l-172.975-172.975 64.104-64.104 172.975 172.975c48.62 48.62 127.449 48.62 176.069 0s48.62-127.449 0-176.069v0l-172.975-172.975 64.104-64.104 172.975 172.975c84.015 84.015 84.015 220.231 0 304.246s-220.231 84.015-304.246 0v0zM329.053 264.918c17.979-17.736 46.867-17.736 64.835-0.012l301.969 301.969c17.941 17.941 17.941 47.029 0 64.97s-47.029 17.941-64.97 0v0l-302.080-302.080c-17.656-18.040-17.569-46.927 0.243-64.841l0.005-0.005z" />
<glyph unicode="&#xe933;" glyph-name="twitter" horiz-adv-x="1261" d="M1131.214 704.822c0.811-11.212 0.811-22.514 0.811-33.591 0-341.589-259.996-735.185-735.185-735.185-0.594-0.002-1.296-0.003-1.999-0.003-146.673 0-283.246 43.243-397.665 117.675l2.825-1.723c17.555-2.045 37.893-3.211 58.505-3.211 1.373 0 2.745 0.005 4.116 0.016l-0.211-0.001c0.378-0.001 0.824-0.002 1.271-0.002 121.080 0 232.448 41.581 320.603 111.242l-1.089-0.83c-112.608 2.109-207.46 75.804-241.1 177.386l-0.525 1.829c14.595-2.435 31.486-3.888 48.693-4.007l0.118-0.001c24.231 0.147 47.633 3.424 69.907 9.446l-1.913-0.441c-118.994 24.729-207.133 128.711-207.133 253.28 0 0.113 0 0.227 0 0.34v-0.018 3.197c33.669-19.131 73.668-31.077 116.305-32.765l0.499-0.016c-69.831 47.077-115.148 125.877-115.148 215.261 0 47.933 13.032 92.822 35.746 131.317l-0.659-1.207c128.046-156.719 317.45-259.134 531.017-270.322l1.809-0.076c-3.956 17.753-6.279 38.18-6.394 59.129v0.084c0.133 142.746 115.881 258.412 258.645 258.412 74.299 0 141.28-31.328 188.456-81.495l0.125-0.134c61.829 12.151 116.801 33.827 166.278 63.689l-2.283-1.279c-19.957-60.738-60.071-110.255-112.272-141.779l-1.155-0.647c55.077 6.447 105.298 20.555 151.884 41.342l-3.289-1.311c-36.051-52.048-78.968-96.24-128.078-132.532l-1.515-1.069z" />
<glyph unicode="&#xe934;" glyph-name="whatsapp" horiz-adv-x="1019" d="M870.88 811.165c-91.852 91.796-218.715 148.569-358.838 148.569-280.358 0-507.634-227.275-507.634-507.634 0-93.18 25.105-180.495 68.921-255.553l-1.299 2.409-72.031-262.956 269.085 70.512c70.059-38.884 153.637-61.774 242.561-61.78h0.001c280.32 0.050 507.546 227.306 507.546 507.634 0 140.076-56.736 266.901-148.48 358.749l0.005-0.005zM511.647 30.432v0c-0.016 0-0.034 0-0.053 0-79.201 0-153.299 21.853-216.592 59.858l1.908-1.062-15.404 9.112-159.683-41.873 42.633 155.615-10.034 15.947c-40.485 63.603-64.523 141.109-64.523 224.229 0 232.998 188.882 421.88 421.88 421.88s421.88-188.882 421.88-421.88c0-232.987-188.864-421.862-421.847-421.88h-0.001zM743.090 346.327c-12.692 6.346-75.014 37.046-86.784 41.277s-20.069 6.346-28.53-6.346-32.544-41.223-40.138-49.684-14.808-9.492-27.5-3.2c-39.259 15.863-73.021 37.087-102.313 63.218l0.341-0.299c-27.263 25.267-50.654 54.165-69.542 86.045l-0.97 1.77c-7.431 12.692-0.814 19.581 5.424 25.873s12.692 14.808 19.038 22.238c4.997 6.092 9.257 13.066 12.478 20.591l0.214 0.562c1.473 2.971 2.334 6.47 2.334 10.17 0 4.46-1.252 8.627-3.423 12.17l0.058-0.102c-3.146 6.346-28.53 68.777-39.107 94.107s-20.72 21.371-28.53 21.696-15.838 0.434-24.3 0.434c-13.503-0.363-25.523-6.417-33.801-15.84l-0.045-0.052c-27.365-25.956-44.392-62.58-44.392-103.181 0-0.91 0.009-1.817 0.026-2.723l-0.002 0.136c4.574-50.034 23.452-94.943 52.459-131.441l-0.388 0.506c54.746-81.259 127.774-146.226 213.438-189.985l3.197-1.483c18.618-8.395 42.583-17.454 67.106-25.259l5.196-1.427c15.108-4.755 32.48-7.495 50.493-7.495 10.388 0 20.563 0.911 30.449 2.658l-1.047-0.153c36.506 7.632 66.811 29.663 85.266 59.746l0.324 0.569c5.62 12.502 8.893 27.101 8.893 42.463 0 6.307-0.552 12.485-1.61 18.488l0.093-0.636c-3.146 5.424-11.607 8.461-24.3 14.808z" />
<glyph unicode="&#xe935;" glyph-name="Vector" horiz-adv-x="2675" d="M2512.173 960h-2349.394c-82.868-0.679-151.189-62.087-162.674-141.865l-0.105-0.889 1337.476-881.246 1337.476 881.246c-11.59 80.667-79.912 142.075-162.709 142.753h-0.071z" />
<glyph unicode="&#xe936;" glyph-name="Vector-1" horiz-adv-x="3389" d="M2053.812 960l-300.835-198.477c-16.481-10.933-36.72-17.443-58.48-17.443s-41.999 6.51-58.876 17.69l0.396-0.247-300.976 198.477-1335.042-844.378c15.187-101.532 101.388-178.635 205.76-179.479l0.089-0.001h2977.156c104.224 1.134 190.125 78.137 205.14 178.328l0.142 1.152z" />
<glyph unicode="&#xe937;" d="M1024 448c0-282.77-229.23-512-512-512s-512 229.23-512 512c0 282.77 229.23 512 512 512s512-229.23 512-512z" />
<glyph unicode="&#xe938;" d="M360.299 272.576c0-29.547 21.483-41.621 47.723-26.88l311.851 175.424c26.24 14.763 26.24 38.933 0 53.696l-311.851 175.36c-26.24 14.933-47.723 2.795-47.723-26.795z" />
<glyph unicode="&#xe939;" glyph-name="close-fill" d="M512 960c-282.77 0-512-229.23-512-512s229.23-512 512-512c282.77 0 512 229.23 512 512v0c0 282.77-229.23 512-512 512v0zM641.707 262.656l-129.707 129.707-129.707-129.707c-7.119-7.119-16.955-11.523-27.819-11.523-21.728 0-39.342 17.614-39.342 39.342 0 10.864 4.403 20.699 11.523 27.819v0l129.707 129.707-129.707 129.707c-7.119 7.119-11.523 16.955-11.523 27.819 0 21.728 17.614 39.342 39.342 39.342 10.864 0 20.699-4.403 27.819-11.523v0l129.707-129.707 129.707 129.707c7.119 7.119 16.955 11.523 27.819 11.523 21.728 0 39.342-17.614 39.342-39.342 0-10.864-4.403-20.699-11.523-27.819v0l-129.707-129.707 129.707-129.707c7.006-7.171 11.328-16.99 11.328-27.819s-4.322-20.648-11.335-27.826l0.007 0.008c-7.090-7.182-16.935-11.631-27.819-11.631s-20.728 4.449-27.815 11.627l-0.004 0.004z" />
<glyph unicode="&#xe93a;" glyph-name="humans-group" horiz-adv-x="1247" d="M1238.621 569.094c-7.523 59.005-46.295 107.422-98.952 128.6l-1.074 0.382c29.203 27.57 47.382 66.547 47.382 109.769 0 83.307-67.534 150.841-150.841 150.841-0.186 0-0.372 0-0.558-0.001h0.029c-64.281-0.347-119.183-40.126-141.778-96.364l-0.367-1.033c-18.207 8.16-39.444 12.988-61.789 13.162h-0.064c-64.281-0.347-119.183-40.126-141.778-96.364l-0.367-1.033c-18.192 8.315-39.461 13.162-61.862 13.162s-43.67-4.847-62.815-13.55l0.953 0.388c-21.657 58.091-76.657 98.716-141.146 98.716-0.351 0-0.702-0.001-1.052-0.004h0.054c-22.409-0.175-43.646-5.003-62.854-13.562l1.002 0.399c-22.498 57.45-77.44 97.394-141.713 97.394-83.7 0-151.578-67.744-151.795-151.393v-0.021c0.466-42.707 17.97-81.236 46.020-109.188l0.004-0.004c-53.422-21.983-91.99-70.181-99.932-128.138l-0.095-0.844-13.235-107.932c-0.113-1.353-0.177-2.929-0.177-4.52 0-26.878 18.351-49.47 43.207-55.929l0.402-0.089c11.101-2.576 24.997-4.89 39.127-6.425l1.676-0.148 13.235-230.359c2.162-34.175 30.071-61.162 64.433-61.852l0.067-0.001h114.504c0.496-0.020 1.079-0.032 1.664-0.032 7.597 0 14.736 1.96 20.939 5.403l-0.221-0.113 1.314-27.64c2.311-33.846 30.284-60.439 64.49-60.538h114.496c0.211-0.003 0.459-0.004 0.708-0.004 7.788 0 15.238 1.448 22.094 4.090l-0.42-0.142 1.314-27.64c2.311-33.846 30.284-60.439 64.49-60.538h114.514c0.218-0.003 0.476-0.004 0.734-0.004 34.1 0 61.957 26.731 63.759 60.382l0.007 0.16 1.314 27.64c6.436-2.499 13.886-3.948 21.674-3.948 0.249 0 0.498 0.001 0.746 0.004h114.466c0.218-0.003 0.476-0.004 0.734-0.004 34.1 0 61.957 26.731 63.759 60.382l0.007 0.16 1.314 27.64c6.436-2.499 13.886-3.948 21.674-3.948 0.249 0 0.498 0.001 0.746 0.004h114.466c34.617 0.216 62.799 27.474 64.494 61.7l0.006 0.152 13.163 230.341c15.274 1.676 28.712 3.988 41.867 7.037l-2.379-0.464c24.469 4.898 42.647 26.209 42.647 51.766 0 2.631-0.193 5.217-0.565 7.744l0.035-0.287zM1033.291 904.72c53.791 0 97.398-43.606 97.398-97.398s-43.606-97.398-97.398-97.398v0h-2.629c-18.698 0.43-35.951 6.268-50.354 16.003l0.332-0.211c-0.123 40.654-16.703 77.412-43.425 103.981l-0.007 0.007c11.036 43.415 49.775 75.016 95.896 75.016 0.066 0 0.132 0 0.197 0h-0.010zM830.591 820.485c53.902-0.519 97.399-44.336 97.399-98.312 0-0.141 0-0.281-0.001-0.422v0.022c0-0.048 0-0.105 0-0.162 0-53.702-43.534-97.236-97.236-97.236-0.057 0-0.114 0-0.171 0h0.009c-0.329-0.004-0.718-0.007-1.108-0.007-18.803 0-36.225 5.914-50.506 15.984l0.277-0.185c-0.123 40.654-16.703 77.412-43.425 103.981l-0.007 0.007c9.959 43.89 48.572 76.186 94.753 76.33h0.016zM723.974 638.852c0-53.791-43.606-97.398-97.398-97.398s-97.398 43.606-97.398 97.398c0 53.791 43.606 97.398 97.398 97.398 0.019 0 0.038 0 0.057 0h-0.003c0.032 0 0.070 0 0.108 0 53.702 0 97.236-43.534 97.236-97.236 0-0.057 0-0.114 0-0.171v0.009zM518.59 744.137c-26.23-26.888-42.653-63.447-43.43-103.839l-0.002-0.15c-14.945-9.539-33.076-15.364-52.538-15.79l-0.114-0.002c-53.964 0.258-97.61 44.063-97.61 98.063 0 54.159 43.905 98.064 98.064 98.064 46.46 0 85.374-32.309 95.499-75.684l0.13-0.663zM219.879 904.72c46.202-0.146 84.817-32.45 94.644-75.695l0.125-0.653c-26.23-26.888-42.653-63.447-43.43-103.839l-0.002-0.15c-14.446-9.71-32.185-15.577-51.282-15.791h-1.369c-53.662 0.345-97.071 43.754-97.416 97.383v0.033c0.405 54.36 44.369 98.317 98.692 98.712h0.038zM287.007 167.709c-0.395-5.652-4.882-10.139-10.498-10.532l-0.036-0.002h-114.522c-0.038 0-0.082-0.001-0.127-0.001-5.738 0-10.39 4.652-10.39 10.39 0 0.051 0 0.102 0.001 0.153v-0.008l-14.405 252.705c-0.824 13.037-10.869 23.49-23.646 24.946l-0.123 0.011c-21.952 2.381-41.63 6.055-60.76 11.080l2.85-0.636 13.073 108.040c6.731 52.789 51.259 93.218 105.278 93.454h92.164c8.543-0.247 16.7-1.193 24.624-2.784l-0.927 0.155c8.106-15.111 17.738-28.103 28.975-39.51l-0.021 0.021c-53.422-21.983-91.99-70.181-99.932-128.138l-0.095-0.844-13.163-107.932c-0.344-2.263-0.54-4.874-0.54-7.531 0-25.587 18.22-46.918 42.394-51.727l0.336-0.056c13.163-2.629 26.326-5.258 39.488-6.572l3.943-67.129zM491.022 82.16c-0.395-5.652-4.882-10.139-10.498-10.532l-0.036-0.002h-114.522c-0.043-0.001-0.094-0.001-0.145-0.001-5.738 0-10.39 4.652-10.39 10.39 0 0.051 0 0.102 0.001 0.153v-0.008l-14.405 252.705c-0.793 13.038-10.811 23.508-23.572 24.999l-0.125 0.012c-21.967 2.416-41.639 6.121-60.763 11.175l2.854-0.641 13.163 107.932c6.653 52.098 50.639 91.984 103.972 92.14h92.156c8.543-0.247 16.7-1.193 24.624-2.784l-0.927 0.155c7.695-14.798 17.344-27.423 28.803-38.137l0.079-0.074c-53.422-21.983-91.99-70.181-99.932-128.138l-0.095-0.844-13.163-107.932c-0.343-2.26-0.539-4.867-0.539-7.52 0-25.541 18.155-46.842 42.265-51.701l0.338-0.057c13.163-2.629 26.326-5.258 40.803-7.905l3.943-65.814zM709.46 250.54l-14.405-252.705c-0.395-5.652-4.882-10.139-10.498-10.532l-0.036-0.002h-114.54c-0.043-0.001-0.094-0.001-0.145-0.001-5.738 0-10.39 4.652-10.39 10.39 0 0.051 0 0.102 0.001 0.153v-0.008l-14.405 252.705c-0.788 13.062-10.836 23.549-23.627 25.018l-0.124 0.012c-21.967 2.416-41.639 6.121-60.763 11.175l2.854-0.641 13.163 107.932c6.731 52.789 51.259 93.218 105.278 93.454h92.164c0.156 0.001 0.34 0.001 0.524 0.001 54.015 0 98.546-40.607 104.731-92.959l0.048-0.497 13.163-107.932c-18.421-3.943-38.174-6.572-57.909-9.219-13.653-1.467-24.3-12.548-25.080-26.27l-0.003-0.074zM912.197 334.81l-14.405-252.705c-0.395-5.652-4.882-10.139-10.498-10.532l-0.036-0.002h-114.576c-0.043-0.001-0.094-0.001-0.145-0.001-5.738 0-10.39 4.652-10.39 10.39 0 0.051 0 0.102 0.001 0.153v-0.008l-3.943 76.348 3.943 65.814c13.163 2.629 27.64 3.943 40.803 7.905 24.469 4.898 42.647 26.209 42.647 51.766 0 2.631-0.193 5.217-0.565 7.744l0.035-0.287-13.163 107.896c-7.565 59.35-46.259 108.138-98.951 129.955l-1.076 0.395c11.564 10.774 21.236 23.388 28.589 37.409l0.366 0.765c6.796 1.793 14.871 3.188 23.141 3.905l0.556 0.039h92.14c0.217 0.002 0.474 0.003 0.73 0.003 53.539 0 97.756-39.915 104.515-91.61l0.057-0.532 13.163-107.932c-18.421-3.943-38.174-6.572-57.909-10.534-13.399-1.969-23.757-12.776-25.020-26.227l-0.009-0.117zM1139.818 444.057c-12.67-1.944-22.448-12.17-23.688-24.897l-0.009-0.115-14.405-252.705c-0.395-5.652-4.882-10.139-10.498-10.532l-0.036-0.002h-114.486c-0.043-0.001-0.094-0.001-0.145-0.001-5.738 0-10.39 4.652-10.39 10.39 0 0.051 0 0.102 0.001 0.153v-0.008l-3.943 75.016 3.943 67.129c15.501 2.199 28.867 4.961 41.93 8.462l-2.441-0.557c24.469 4.898 42.647 26.209 42.647 51.766 0 2.631-0.193 5.217-0.565 7.744l-13.128 107.645c-7.549 58.991-46.33 107.387-98.988 128.546l-1.075 0.381c11.564 10.774 21.236 23.388 28.589 37.409l0.366 0.765c6.796 1.793 14.871 3.188 23.141 3.905l0.556 0.039h92.14c0.106 0 0.231 0.001 0.356 0.001 53.761 0 98.011-40.719 103.593-92.998l0.040-0.457 13.163-107.932c-17.052-2.575-36.86-6.518-56.667-9.147z" />
<glyph unicode="&#xe93b;" glyph-name="up-left-arrow" d="M255.984 191.997h90.327v357.429l389.549-389.549 63.999 63.999-389.442 389.442 357.562 0.133v90.327h-511.995z" />
<glyph unicode="&#xe93d;" glyph-name="eye-blocked, views1, vision1, visit1, banned, blocked, forbidden, private" d="M945.942 945.942c-18.746 18.744-49.136 18.744-67.882 0l-202.164-202.164c-51.938 15.754-106.948 24.222-163.896 24.222-223.318 0-416.882-130.042-512-320 41.122-82.124 100.648-153.040 173.022-207.096l-158.962-158.962c-18.746-18.746-18.746-49.136 0-67.882 9.372-9.374 21.656-14.060 33.94-14.060s24.568 4.686 33.942 14.058l864 864c18.744 18.746 18.744 49.138 0 67.884zM416 640c42.24 0 78.082-27.294 90.92-65.196l-121.724-121.724c-37.902 12.838-65.196 48.68-65.196 90.92 0 53.020 42.98 96 96 96zM110.116 448c38.292 60.524 89.274 111.924 149.434 150.296 3.918 2.5 7.876 4.922 11.862 7.3-9.962-27.328-15.412-56.822-15.412-87.596 0-54.89 17.286-105.738 46.7-147.418l-60.924-60.924c-52.446 36.842-97.202 83.882-131.66 138.342zM768 518c0 27.166-4.256 53.334-12.102 77.898l-321.808-321.808c24.568-7.842 50.742-12.090 77.91-12.090 141.382 0 256 114.618 256 256zM830.026 670.026l-69.362-69.362c1.264-0.786 2.53-1.568 3.786-2.368 60.162-38.374 111.142-89.774 149.434-150.296-38.292-60.522-89.274-111.922-149.436-150.296-75.594-48.218-162.89-73.704-252.448-73.704-38.664 0-76.902 4.76-113.962 14.040l-76.894-76.894c59.718-21.462 123.95-33.146 190.856-33.146 223.31 0 416.876 130.042 512 320-45.022 89.916-112.118 166.396-193.974 222.026z" />
<glyph unicode="&#xe93e;" glyph-name="eye, views, vision, visit" d="M512 768c-223.318 0-416.882-130.042-512-320 95.118-189.958 288.682-320 512-320 223.312 0 416.876 130.042 512 320-95.116 189.958-288.688 320-512 320zM764.45 598.296c60.162-38.374 111.142-89.774 149.434-150.296-38.292-60.522-89.274-111.922-149.436-150.296-75.594-48.218-162.89-73.704-252.448-73.704-89.56 0-176.858 25.486-252.452 73.704-60.158 38.372-111.138 89.772-149.432 150.296 38.292 60.524 89.274 111.924 149.434 150.296 3.918 2.5 7.876 4.922 11.86 7.3-9.96-27.328-15.41-56.822-15.41-87.596 0-141.382 114.616-256 256-256 141.382 0 256 114.618 256 256 0 30.774-5.452 60.268-15.408 87.598 3.978-2.378 7.938-4.802 11.858-7.302v0zM512 544c0-53.020-42.98-96-96-96s-96 42.98-96 96 42.98 96 96 96 96-42.982 96-96z" />
</font>
</defs>
</svg>
