<?xml version="1.0" standalone="no"?>
<!DOCTYPE svg PUBLIC "-//W3C//DTD SVG 1.1//EN" "http://www.w3.org/Graphics/SVG/1.1/DTD/svg11.dtd" >
<svg xmlns="http://www.w3.org/2000/svg">
<metadata>Generated by IcoMoon</metadata>
<defs>
<font id="canal-sugar" horiz-adv-x="1024">
<font-face units-per-em="1024" ascent="960" descent="-64" />
<missing-glyph horiz-adv-x="1024" />
<glyph unicode="&#x20;" horiz-adv-x="512" d="" />
<glyph unicode="&#xe900;" glyph-name="annual-report" horiz-adv-x="947" d="M299.529 419.225c69.223 0 125.339 56.116 125.339 125.339s-56.116 125.339-125.339 125.339c-69.223 0-125.339-56.116-125.339-125.339v0c0.083-69.189 56.15-125.256 125.331-125.339h0.008zM390.013 590.862c7.194-13.424 11.477-29.345 11.618-46.254v-0.044c-0.208-49.096-34.838-90.044-80.992-99.971l-0.675-0.122-8.802-1.804v96.293l74.728 59.809zM234.483 622.667c17.343 15.033 40.132 24.193 65.061 24.193s47.718-9.16 65.185-24.298l-0.124 0.105 6.733-5.765-71.794-57.418-71.794 57.418zM209.045 590.936l4.122 7.863 74.816-59.809v-96.249l-8.802 1.819c-46.812 10.037-81.436 50.95-81.682 99.992v0.027c0.111 16.963 4.364 32.908 11.797 46.906l-0.266-0.55zM504.1 626.29h23.252v-23.237h-23.252v23.237zM590.858 626.29h61.144v-23.237h-61.144v23.237zM511.875 559.586h136.958v-23.237h-136.958v23.237zM511.875 492.882h136.958v-23.237h-136.958v23.237zM0 347.416v-368.463c0-23.648 24.865-42.909 55.408-42.909h815.644c42.058 0 76.283 26.772 76.283 59.662v435.46c-0.225 14.434-6.372 27.389-16.112 36.578l-0.025 0.024c-15.167 14.297-35.666 23.083-58.216 23.083-0.679 0-1.356-0.008-2.031-0.024l0.1 0.002h-49.159v442.824c-2.243 15-15.036 26.373-30.486 26.373-1.146 0-2.278-0.063-3.392-0.185l0.138 0.012h-586.339c-1.082 0.133-2.334 0.209-3.604 0.209-15.842 0-28.925-11.818-30.912-27.118l-0.017-0.157v-207.417h-49.129c-1.126 0.145-2.428 0.227-3.749 0.227-15.834 0-28.901-11.844-30.826-27.155l-0.016-0.153v-307.935h-28.21c-30.484-0.029-55.349-19.276-55.349-42.939zM821.981 471.993h49.173c1.24 0.121 2.68 0.189 4.136 0.189 23.185 0 42.298-17.434 44.944-39.908l0.020-0.213 0.073-437.162-0.191-0.792c-5.176-22.564-25.083-39.139-48.861-39.139-3.96 0-7.813 0.46-11.507 1.329l0.339-0.067c-18.873 4.416-33.461 19.004-37.81 37.537l-0.067 0.341-0.191 1.614zM194.478 940.988h600.291v-656.755l-9.418 2.773c-5.644 1.728-12.135 2.743-18.857 2.787h-28.218v409.289c-2.243 15-15.036 26.373-30.486 26.373-1.146 0-2.278-0.063-3.392-0.185l0.138 0.012-8.054-0.778v84.572h-110.831v-83.75h-56.494v133.994h-110.86v-133.994h-223.818zM669.283 790.196v-64.899h-56.494v64.899zM501.958 840.499v-115.158h-56.494v115.158zM110.816 706.49h600.291v-416.624h-28.239c-0.69-0.075-1.49-0.118-2.301-0.118-0.047 0-0.095 0-0.142 0h0.007c-13.298 0.241-24.179 10.276-25.748 23.184l-0.013 0.127v34.357c0 23.662-24.851 42.909-55.408 42.909h-488.448zM599.205 371.563c0.682 0.063 1.475 0.1 2.277 0.1 13.414 0 24.462-10.132 25.908-23.16l0.011-0.118v-34.474c0-23.648 24.851-42.909 55.408-42.909h83.618c0.598 0.048 1.296 0.076 1.999 0.076 13.499 0 24.632-10.129 26.213-23.201l0.012-0.126v-252.087c0.063-10.991 3.729-21.113 9.875-29.259l-0.090 0.124 8.699-11.736h-757.405c-0.763 0-1.467-0.103-2.259-0.103-0.011 0-0.024 0-0.037 0-13.487 0-24.613 10.112-26.209 23.168l-0.013 0.127v369.402c1.238 13.634 12.613 24.233 26.464 24.233 0.873 0 1.736-0.042 2.587-0.124l-0.108 0.008zM518.579 200.189v-99.051h212.713v99.051zM708.114 124.376h-166.297v52.621h166.297zM518.579 72.958h212.713v-23.237h-212.713v23.237zM295.422 770.289h61.144v-23.237h-61.144v23.237zM295.422 846.103h61.144v-23.237h-61.144v23.237z" />
<glyph unicode="&#xe901;" glyph-name="svgexport-7-15" horiz-adv-x="1743" d="M985.797 960h-795.106c-105.192-0.308-190.383-85.499-190.691-190.662v-642.647c0.308-105.192 85.499-190.383 190.662-190.691h795.135c105.192 0.308 190.383 85.499 190.691 190.662v642.647c0.001 0.194 0.001 0.423 0.001 0.652 0 104.956-85.084 190.040-190.040 190.040-0.229 0-0.458 0-0.688-0.001h0.035zM1601.608 855.049c-12.325-2.652-23.227-7.277-32.939-13.58l0.38 0.231-297.703-171.589v-442.377l299.331-171.589c16.479-9.875 36.357-15.714 57.598-15.714 42.167 0 78.959 23.011 98.504 57.161l0.293 0.555c9.535 16.434 15.202 36.143 15.303 57.167v589.25c-0.698 62.824-51.789 113.483-114.712 113.483-9.241 0-18.227-1.093-26.836-3.156l0.782 0.158z" />
<glyph unicode="&#xe902;" d="M925.936 480.648c0-228.622-185.335-413.957-413.957-413.957s-413.957 185.335-413.957 413.957c0 228.622 185.335 413.957 413.957 413.957s413.957-185.335 413.957-413.957z" />
<glyph unicode="&#xe903;" d="M394.469 463.284l-13.759 13.759c-2.696 2.682-4.364 6.394-4.364 10.496s1.668 7.814 4.363 10.495l120.354 120.408c2.682 2.696 6.394 4.364 10.496 4.364s7.814-1.668 10.495-4.363l120.419-120.408c2.696-2.682 4.364-6.394 4.364-10.496s-1.668-7.814-4.363-10.495l-13.749-13.749c-2.69-2.679-6.401-4.335-10.498-4.335-4.221 0-8.031 1.757-10.739 4.58l-71.108 74.637v-178.013c0-0.013 0-0.028 0-0.044 0-8.188-6.638-14.826-14.826-14.826-0.019 0-0.038 0-0.057 0h-19.812c-0.013 0-0.028 0-0.044 0-8.188 0-14.826 6.638-14.826 14.826 0 0.015 0 0.031 0 0.046v-0.002 178.002l-71.103-74.632c-2.699-2.855-6.513-4.632-10.742-4.632-4.107 0-7.822 1.676-10.499 4.381l-0.001 0.001z" />
<glyph unicode="&#xe904;" glyph-name="burger-menu" horiz-adv-x="1268" d="M97.524 960h1072.762c53.861 0 97.524-43.663 97.524-97.524s-43.663-97.524-97.524-97.524h-1072.762c-53.861 0-97.524 43.663-97.524 97.524s43.663 97.524 97.524 97.524zM97.524 521.143h1072.762c53.861 0 97.524-43.663 97.524-97.524s-43.663-97.524-97.524-97.524h-1072.762c-53.861 0-97.524 43.663-97.524 97.524s43.663 97.524 97.524 97.524zM97.524 131.048h1072.762c53.861 0 97.524-43.663 97.524-97.524s-43.663-97.524-97.524-97.524h-1072.762c-53.861 0-97.524 43.663-97.524 97.524s43.663 97.524 97.524 97.524z" />
<glyph unicode="&#xe905;" glyph-name="clock" d="M512.028 931.742c267.179 0 483.771-216.591 483.771-483.771s-216.591-483.771-483.771-483.771c-267.179 0-483.771 216.591-483.771 483.771v0c0 267.179 216.591 483.771 483.771 483.771v0zM512.028 33.15c229.006 0 414.652 185.646 414.652 414.652s-185.646 414.652-414.652 414.652c-228.947 0-414.556-185.55-414.652-414.474v-0.009c0-0.050 0-0.11 0-0.17 0-229.006 185.646-414.652 414.652-414.652v0zM511.972 758.975c19.071 0 34.531-15.46 34.531-34.531v0-241.885h241.885c19.086 0 34.559-15.473 34.559-34.559s-15.473-34.559-34.559-34.559v0h-276.416c-19.071 0-34.531 15.46-34.531 34.531v0 276.473c0 19.071 15.46 34.531 34.531 34.531v0z" />
<glyph unicode="&#xe906;" glyph-name="black-next" horiz-adv-x="1005" d="M633.16 476.865l-221.957 131.207c-4.436 2.719-9.807 4.33-15.554 4.33-16.625 0-30.102-13.477-30.102-30.102 0-0.089 0-0.178 0.001-0.267v0.014-262.376c0-0.010 0-0.022 0-0.034 0-16.699 13.538-30.237 30.237-30.237 5.688 0 11.010 1.571 15.555 4.302l-0.137-0.076 221.957 131.227c9.002 5.348 14.942 15.022 14.942 26.083s-5.939 20.735-14.802 26.006l-0.139 0.077z" />
<glyph unicode="&#xe907;" horiz-adv-x="998" d="M499.038 960c275.611 0 499.038-223.427 499.038-499.038v-25.924c0-275.611-223.427-499.038-499.038-499.038s-499.038 223.427-499.038 499.038v25.924c0 275.611 223.427 499.038 499.038 499.038z" />
<glyph unicode="&#xe908;" horiz-adv-x="998" d="M632.819 465.447l-211.579 125.084c-4.226 2.588-9.343 4.121-14.817 4.121-15.849 0-28.698-12.848-28.698-28.698 0-0.086 0-0.172 0.001-0.258v0.013-250.167c0-0.005 0-0.010 0-0.016 0-15.921 12.907-28.828 28.828-28.828 5.418 0 10.487 1.495 14.817 4.094l-0.131-0.073 211.579 125.084c8.54 5.109 14.169 14.308 14.169 24.822s-5.629 19.714-14.038 24.75l-0.131 0.073z" />
<glyph unicode="&#xe909;" horiz-adv-x="1012" d="M92.045 960h828.404c50.835 0 92.045-41.21 92.045-92.045v-839.91c0-50.835-41.21-92.045-92.045-92.045h-828.404c-50.835 0-92.045 41.21-92.045 92.045v839.91c0 50.835 41.21 92.045 92.045 92.045z" />
<glyph unicode="&#xe90a;" horiz-adv-x="1012" d="M318.165 211.928l508.433 218.008-508.433 217.997-0.242-169.558 363.336-48.45-363.336-48.439z" />
<glyph unicode="&#xe90b;" glyph-name="career" horiz-adv-x="1294" d="M315.863 55.229h-162.251c-6.553 0-11.865-5.312-11.865-11.865s5.312-11.865 11.865-11.865h162.251c6.551 0.025 11.854 5.328 11.879 11.877v0.002c-0.017 6.538-5.312 11.833-11.848 11.85h-0.002zM469.46-30.449v103.731h742.549c19.19 0.074 34.725 15.615 34.791 34.799v360.423l3.4 2.145c28.997 18.271 43.693 39.534 43.693 63.219v214c-0.065 9.6-4.097 18.245-10.538 24.388l-0.014 0.013c-6.39 6.202-15.118 10.026-24.739 10.026-0.025 0-0.049 0-0.074 0h-277.273v59.162c-0.355 36.017-25.679 66.018-59.473 73.544l-0.506 0.095-4.261 0.905-1.226 4.159c-2.801 9.282-7.649 17.233-14.040 23.643l0.001-0.001c-9.913 10.005-23.657 16.199-38.848 16.199-0.051 0-0.102 0-0.154 0h-208.68c-24.944-0.191-45.978-16.717-52.943-39.401l-0.104-0.395-1.226-4.188-4.276-0.89c-34.358-7.541-59.737-37.595-60.008-73.624v-59.090h-277.175c-0.041 0-0.090 0-0.139 0-9.592 0-18.294-3.807-24.68-9.991l0.009 0.009c-6.523-6.143-10.601-14.819-10.653-24.449v-95.306h-21.058c-0.026 0-0.057 0-0.088 0-15.364 0-29.269-6.248-39.313-16.343l-0.002-0.002c-6.131-6.169-10.866-13.733-13.688-22.172l-0.117-0.404-1.547-4.801-5.049-0.248c-23.678-1.224-43.393-16.905-50.568-38.334l-0.115-0.397-1.634-5.049h-56.098c-18.471-0.164-33.402-15.094-33.565-33.55v-237.468c0-6.553 5.312-11.865 11.865-11.865s11.865 5.312 11.865 11.865v0 237.495c0.057 5.384 4.419 9.73 9.804 9.763h56.115l1.634-5.064c7.436-22.72 28.436-38.845 53.206-38.863h180.51c24.733 0.113 45.68 16.198 53.065 38.466l0.114 0.397 1.649 5.035h56.083c5.243-0.069 9.507-4.17 9.835-9.34l0.001-0.029v-562.216c-0.133-5.312-4.384-9.589-9.674-9.763h-402.506c-5.323 0.005-9.658 4.232-9.836 9.513v237.745c0 6.553-5.312 11.865-11.865 11.865s-11.865-5.312-11.865-11.865v-237.495c0-0.052 0-0.113 0-0.175 0-9.209 3.775-17.537 9.861-23.521l0.005-0.005c6.049-6.114 14.439-9.902 23.713-9.909h402.316c18.471 0.188 33.389 15.132 33.536 33.595v0.014zM1223.027 108.189c-0.082-6.061-4.994-10.948-11.058-10.989h-742.509v313.178l8.391-1.27c18.257-2.758 37.797-5.341 59.746-7.939 26.516-3.035 51.238-5.487 73.464-7.297l6.728-0.525v-46.845c0-27.403 22.215-49.618 49.618-49.618v0h47.59c6.553 0 11.865 5.312 11.865 11.865s-5.312 11.865-11.865 11.865h-47.59c-14.209 0.122-25.698 11.596-25.845 25.787v103.628c0.122 14.209 11.596 25.698 25.787 25.845h182.054c14.241-0.033 25.772-11.585 25.772-25.831 0 0 0 0 0 0v0-103.614c0-0.009 0-0.019 0-0.029 0-14.245-11.531-25.797-25.769-25.831h-47.549c-6.554-0.017-11.863-5.325-11.879-11.878v-0.002c0.017-6.538 5.312-11.833 11.848-11.85h47.621c27.353 0.066 49.501 22.256 49.501 49.618 0 0 0 0 0 0v0 46.699l6.698 0.54c81.636 6.742 196.312 20.431 278.956 47.546 9.982 3.284 19.541 6.801 28.399 10.464l10.084 4.174zM653.878 936.329h209.053c17.123-0.38 30.858-14.351 30.858-31.529s-13.735-31.149-30.823-31.529l-0.035-0.001h-208.892c-17.167 0.324-30.96 14.317-30.96 31.531 0 17.148 13.686 31.099 30.73 31.527l0.040 0.001zM559.239 841.471c0.16 21.953 13.953 40.645 33.327 48.040l0.355 0.119 6.771 2.51 2.568-6.757c8.304-20.986 28.319-35.606 51.778-35.842h208.717c23.501 0.172 43.529 14.86 51.575 35.535l0.13 0.38 2.554 6.757 6.786-2.466c19.765-7.468 33.588-26.185 33.696-48.145v-59.175h-398.287zM324.998 520.88h-180.522c-17.732 0-32.106 14.374-32.106 32.106s14.374 32.106 32.106 32.106h13.426c6.536 0.016 11.831 5.302 11.865 11.832v0.003c0 0 0 0 0 0 0 17.685 14.299 32.031 31.967 32.106h65.97c17.671-0.099 31.963-14.427 32.004-32.102v-0.004c0.033-6.53 5.331-11.813 11.864-11.821h13.427c17.732 0 32.106-14.374 32.106-32.106s-14.374-32.106-32.106-32.106v0zM435.909 564.924h-68.385l9.194 9.194c-8.4 19.646-27.052 33.413-49.049 34.624l-0.146 0.006-5.020 0.263-1.562 4.787c-2.931 8.849-7.663 16.418-13.794 22.594l0.003-0.003c-10.061 10.097-23.98 16.345-39.357 16.345-0.016 0-0.032 0-0.048 0h-21.041v95.165c0.307 5.976 5.227 10.705 11.252 10.705 0.149 0 0.297-0.003 0.444-0.009l-0.021 0.001h1000.081c0.134 0.006 0.292 0.009 0.45 0.009 6.019 0 10.933-4.733 11.223-10.68l0.001-0.026v-214c0-26.429-31.23-49.997-92.83-70.049-79.652-26.268-191.059-39.578-270.477-46.189l-7.91-0.657v33.011c-0.041 27.351-22.173 49.519-49.506 49.618h-182.005c-27.403 0-49.618-22.215-49.618-49.618v0-32.996l-7.91 0.671c-25.043 2.116-47.823 4.378-69.626 6.903-24.079 2.919-45.24 5.677-64.591 8.669l-6.188 0.949v97.193c-0.164 18.487-15.119 33.426-33.596 33.565h-0.013zM188.592 441.068c-5.861 1.584-12.592 2.5-19.535 2.51h-0.152c-24.194-0.132-45.91-10.631-60.952-27.276l-0.064-0.072c-15.53-17.097-25.037-39.909-25.037-64.941s9.508-47.844 25.109-65.021l-0.071 0.080c15.102-16.731 36.828-27.234 61.010-27.348h0.020c6.922 0.017 13.629 0.905 20.027 2.56l-0.559-0.123c5.256 1.301 9.090 5.976 9.090 11.547 0 0.993-0.122 1.958-0.352 2.88l0.017-0.082c-2.189 8.756-5.706 9.238-18.592 7.691-2.815-0.416-6.136-0.694-9.506-0.772l-0.096-0.002c-17.385 0.16-32.964 7.759-43.732 19.762l-0.049 0.056c-11.411 12.933-18.377 30.024-18.377 48.742s6.966 35.809 18.447 48.823l-0.069-0.080c10.688 12.179 26.287 19.826 43.671 19.826 4.93 0 9.717-0.615 14.287-1.773l-0.401 0.086c0.973-0.284 2.092-0.448 3.248-0.448 5.635 0 10.362 3.885 11.649 9.122l0.017 0.082c0.184 0.782 0.289 1.679 0.289 2.602 0 5.652-3.961 10.378-9.259 11.554l-0.079 0.015zM94.858 100.892h279.758c6.554 0.017 11.863 5.325 11.879 11.878v0.002c-0.017 6.538-5.312 11.833-11.848 11.85h-279.789c-6.553 0-11.865-5.312-11.865-11.865s5.312-11.865 11.865-11.865v0zM310.711 259.962c1.242-0.481 2.679-0.76 4.182-0.76 1.746 0 3.404 0.377 4.897 1.053l-0.075-0.030c2.859 1.283 5.065 3.598 6.175 6.458l0.027 0.080 59.702 155.392c0.491 1.247 0.775 2.692 0.775 4.203 0 6.505-5.274 11.779-11.779 11.779-4.994 0-9.263-3.108-10.976-7.496l-0.028-0.080-48.626-126.818-48.684 126.745c-1.743 4.465-6.011 7.571-11.004 7.571-6.507 0-11.782-5.275-11.782-11.782 0-1.514 0.285-2.961 0.806-4.29l-0.028 0.080 59.673-155.334c1.218-3.117 3.632-5.541 6.662-6.743l0.080-0.028zM374.616 194.028h-279.758c-6.554-0.017-11.863-5.325-11.879-11.878v-0.002c0.017-6.538 5.312-11.833 11.848-11.85h279.789c6.553 0 11.865 5.312 11.865 11.865s-5.312 11.865-11.865 11.865v0z" />
<glyph unicode="&#xe90c;" glyph-name="Group-1706" d="M218.453 960h587.093c120.648 0 218.453-97.805 218.453-218.453v-587.093c0-120.648-97.805-218.453-218.453-218.453h-587.093c-120.648 0-218.453 97.805-218.453 218.453v587.093c0 120.648 97.805 218.453 218.453 218.453z" />
<glyph unicode="&#xe90d;" glyph-name="Group-1707" d="M248.242 960h527.515c137.101 0 248.242-111.142 248.242-248.242v-527.515c0-137.101-111.142-248.242-248.242-248.242h-527.515c-137.101 0-248.242 111.142-248.242 248.242v527.515c0 137.101 111.142 248.242 248.242 248.242z" />
<glyph unicode="&#xe90f;" glyph-name="white-play" horiz-adv-x="896" d="M848.733 530.674l-703.957 416.173c-14.062 8.611-31.084 13.71-49.297 13.71-52.734 0-95.482-42.749-95.482-95.482 0-0.287 0.001-0.573 0.004-0.859v0.044-832.345c0-0.016 0-0.035 0-0.053 0-52.972 42.942-95.914 95.914-95.914 18.026 0 34.891 4.973 49.297 13.621l-0.434-0.242 703.957 416.173c28.413 16.997 47.141 47.605 47.141 82.588s-18.728 65.591-46.705 82.345l-0.436 0.242z" />
<glyph unicode="&#xe910;" glyph-name="green-play_2" horiz-adv-x="896" d="M848.799 530.668l-703.992 416.157c-14.071 8.626-31.106 13.734-49.334 13.734-52.73 0-95.475-42.746-95.475-95.475 0-0.283 0.001-0.565 0.004-0.847v0.043-832.192c0-0.032 0-0.069 0-0.107 0-52.966 42.938-95.904 95.904-95.904 18.042 0 34.921 4.982 49.335 13.646l-0.433-0.242 703.992 416.218c28.553 16.963 47.391 47.646 47.391 82.729s-18.837 65.766-46.949 82.486l-0.441 0.243z" />
<glyph unicode="&#xe911;" glyph-name="grey-play_3" horiz-adv-x="896" d="M47.186 530.668l703.992 416.157c14.056 8.603 31.070 13.697 49.273 13.697 52.73 0 95.475-42.746 95.475-95.475 0-0.27-0.001-0.539-0.003-0.808v0.041-832.192c0-0.032 0-0.069 0-0.107 0-52.966-42.938-95.904-95.904-95.904-18.042 0-34.921 4.982-49.335 13.646l0.433-0.242-703.931 416.218c-28.553 16.963-47.391 47.646-47.391 82.729s18.837 65.766 46.949 82.486l0.441 0.243z" />
<glyph unicode="&#xe912;" glyph-name="facebook" horiz-adv-x="563" d="M563.205 960h-153.729c-141.277-0.149-255.747-114.711-255.747-256.008 0 0 0 0 0 0v0-153.729h-153.729v-204.787h153.729v-409.476h204.787v409.607h153.729l51.189 204.787h-205.016v153.729c0 28.271 22.918 51.189 51.189 51.189v0h153.729z" />
<glyph unicode="&#xe913;" glyph-name="twitter" horiz-adv-x="1256" d="M1255.501 959.438c-51.372-36.655-110.886-66.413-174.8-86.147l-4.407-1.172c-47.124 53.97-116.054 87.877-192.902 87.877-141.199 0-255.663-114.464-255.663-255.663 0-1.184 0.008-2.366 0.024-3.546l-0.002 0.179v-57.051c-4.705-0.131-10.243-0.205-15.798-0.205-205.006 0-386.327 101.404-496.542 256.79l-1.271 1.887s-228.28-513.611 285.331-741.703c-104.58-71.905-233.947-114.841-373.341-114.841-9.19 0-18.336 0.187-27.435 0.556l1.305-0.042c513.611-285.331 1141.361 0 1141.361 656.295-0.060 16.783-1.72 33.141-4.837 48.976l0.267-1.627c56.614 55.85 98.157 126.839 118.067 206.402l0.643 3.036z" />
<glyph unicode="&#xe914;" glyph-name="youtube" horiz-adv-x="1365" d="M1356.156 733.866c0.137 2.822 0.216 6.13 0.216 9.456 0 111.046-87.319 201.697-197.041 207.038l-0.479 0.019c-147.753 6.919-298.389 9.586-452.232 9.586h-48.002c-153.591 0-304.515-2.667-452.232-9.586-110.135-5.717-197.272-96.411-197.272-207.456 0-3.363 0.080-6.706 0.238-10.030l-0.018 0.469c-6.667-94.922-9.586-189.845-9.334-284.695s2.667-189.953 9.081-285.091c-0.141-2.868-0.222-6.229-0.222-9.609 0-111.097 87.111-201.847 196.755-207.674l0.519-0.022c155.177-7.207 314.389-10.415 476.233-10.126q243.18-0.793 476.233 10.126c110.279 5.736 197.524 96.551 197.524 207.743 0 3.363-0.080 6.708-0.238 10.032l0.018-0.47c6.415 95.211 9.334 190.133 9.081 285.307q0.829 142.347-8.829 284.983zM551.947 187v523.946l386.644-261.847z" />
<glyph unicode="&#xe915;" glyph-name="mail" horiz-adv-x="1303" d="M123.958 960h1054.963c68.463-0.209 123.907-55.653 124.116-124.096v-775.787c-0.209-68.463-55.653-123.907-124.096-124.116h-1054.983c-68.395 0.299-123.749 55.708-123.958 124.096v775.787c0.209 68.408 55.563 123.818 123.929 124.116h0.029zM139.466 696.259l511.974-341.544 511.974 341.333v124.327l-511.974-341.333-511.657 341.333z" />
<glyph unicode="&#xe916;" glyph-name="language" d="M511.468 960c-282.541-0.303-511.468-229.417-511.468-512 0-282.77 229.23-512 512-512s512 229.23 512 512v0c0 0.079 0 0.173 0 0.267 0 282.623-229.111 511.734-511.734 511.734-0.28 0-0.561 0-0.841-0.001h0.043zM866.283 652.815h-151.027c-17.77 69.298-41.961 129.946-72.761 186.474l2.095-4.2c94.866-33.307 171.855-97.529 220.646-180.351l1.047-1.922zM512 855.578c40.831-58.188 74.149-125.501 96.449-197.654l1.359-5.109h-195.464c23.614 77.243 56.882 144.546 99.199 205.054l-1.543-2.329zM115.712 345.592c-8.455 30.721-13.314 65.997-13.314 102.408s4.859 71.686 13.963 105.213l-0.649-2.806h173.188c-4.235-30.455-6.835-65.951-7.181-101.986l-0.003-0.421c0.349-36.456 2.949-71.952 7.669-106.775l-0.484 4.367zM157.527 243.185h151.027c17.77-69.298 41.961-129.946 72.761-186.474l-2.095 4.2c-94.905 33.166-171.895 97.448-220.497 180.383l-1.044 1.928zM308.553 652.777h-150.874c49.681 84.888 126.728 149.176 218.826 181.437l2.867 0.875c-28.693-52.328-52.872-112.977-69.403-176.707l-1.226-5.566zM512 40.46c-40.777 58.189-74.046 125.505-96.299 197.654l-1.356 5.109h195.578c-23.696-77.265-57.051-144.577-99.46-205.078l1.538 2.315zM631.818 345.592h-239.483c-4.799 30.453-7.769 65.89-8.206 101.936l-0.005 0.472c0.419 36.496 3.39 71.934 8.742 106.586l-0.531-4.178h239.483c4.821-30.473 7.791-65.911 8.207-101.963l0.004-0.444c-0.442-36.518-3.411-71.954-8.743-106.612l0.532 4.205zM644.628 60.911c28.706 52.327 52.897 112.976 69.44 176.706l1.227 5.567h151.027c-49.853-84.735-126.855-148.945-218.852-181.352l-2.879-0.884zM735.252 345.592c4.235 30.455 6.835 65.951 7.181 101.986l0.003 0.421c-0.349 36.456-2.949 71.952-7.669 106.775l0.484-4.367h173.036c8.455-30.721 13.314-65.997 13.314-102.408s-4.859-71.686-13.963-105.213l0.649 2.806z" />
<glyph unicode="&#xe917;" glyph-name="location" horiz-adv-x="791" d="M395.664 960c0.090 0 0.196 0 0.303 0 218.352 0 395.361-177.009 395.361-395.361 0-0.107 0-0.213 0-0.319v0.017c0-296.737-395.664-628.336-395.664-628.336s-395.664 331.599-395.664 628.336c0 0.090 0 0.196 0 0.303 0 218.352 177.009 395.361 395.361 395.361 0.107 0 0.213 0 0.319 0h-0.017zM395.664 423.031c78.041 0 141.305 63.265 141.305 141.305s-63.265 141.305-141.305 141.305c-78.041 0-141.305-63.265-141.305-141.305v0c0.025-78.031 63.275-141.281 141.303-141.305h0.002z" />
<glyph unicode="&#xe918;" glyph-name="white-send" horiz-adv-x="1195" d="M0.567-64l1194.104 512.013-1194.104 511.986-0.567-398.224 853.329-113.79-853.329-113.763z" />
<glyph unicode="&#xe919;" glyph-name="arrow-right" horiz-adv-x="1051" d="M446.74 891.429l52.056 52.056c10.148 10.208 24.2 16.526 39.727 16.526s29.579-6.318 39.724-16.523l455.875-455.647c10.208-10.148 16.526-24.2 16.526-39.727s-6.318-29.579-16.523-39.724l-455.723-455.875c-10.148-10.208-24.2-16.526-39.727-16.526s-29.579 6.318-39.724 16.523l-0.003 0.003-52.208 52.132c-10.163 10.187-16.447 24.247-16.447 39.774 0 15.977 6.653 30.401 17.34 40.651l282.6 269.204h-673.991c-0.023 0-0.049 0-0.076 0-31.020 0-56.166 25.146-56.166 56.166 0 0 0 0 0 0v0 75.040c0 0.023 0 0.049 0 0.076 0 31.020 25.146 56.166 56.166 56.166 0.027 0 0.054 0 0.080 0h673.987l-282.58 269.261c-10.802 10.221-17.525 24.657-17.525 40.663 0 15.56 6.353 29.636 16.607 39.775l0.005 0.005z" />
<glyph unicode="&#xe91a;" glyph-name="innovation" d="M836.145 834.809c-82.178 77.583-193.303 125.271-315.567 125.271-3.022 0-6.036-0.029-9.044-0.087l0.451 0.007c-273.443 0-442.668-202.825-442.668-390.756 0-124.995 57.462-261.603 153.846-365.336l2.026-2.178v-186.675c0 0 0 0 0 0 0-5.381 4.358-9.745 9.737-9.753h76.849v-59.518c0.009-5.378 4.362-9.736 9.737-9.753h381.065c0 0 0 0 0 0 5.381 0 9.745 4.358 9.753 9.737v59.519h76.772c5.38 0.017 9.736 4.374 9.753 9.752v186.647l2.026 2.162c96.324 103.824 153.846 240.432 153.846 365.336-2.494 104.863-47.506 198.747-118.39 265.445l-0.193 0.18zM692.733-44.463h-361.495v49.75h361.495zM779.318 24.809h-534.592v49.75h534.637zM779.318 94.081h-534.592v49.765h534.637zM783.371 213.783v0l-1.346-1.421c-1.662-1.761-2.685-4.14-2.692-6.758v-42.205h-534.607v42.159c-0.008 2.619-1.031 4.998-2.696 6.764l0.005-0.005c-95.901 100.951-153.166 234.384-153.166 356.868 0 178.54 161.8 371.249 423.206 371.249s423.161-192.709 423.161-371.249c-0.045-121.895-56.766-254.632-151.866-355.401zM850.783 510.24v80.583c0 0.002 0 0.005 0 0.007 0 4.677-3.297 8.584-7.693 9.523l-0.064 0.011-43.066 9.073-1.089 4.733c-1.83 8.211-4.053 16.422-6.593 24.376l-1.512 4.688 33.056 29.396c2 1.791 3.252 4.381 3.252 7.264 0 1.386-0.29 2.705-0.812 3.898l0.024-0.063c-11.926 27.219-25.935 50.677-42.445 72.108l0.589-0.795c-1.776 2.404-4.599 3.946-7.782 3.946-1.078 0-2.114-0.177-3.082-0.503l0.068 0.020-41.675-13.609-3.281 3.584c-5.519 6.049-11.568 12.097-18.010 17.949l-3.599 3.296 13.609 41.388c0.313 0.915 0.494 1.97 0.494 3.066 0 3.18-1.519 6.005-3.872 7.789l-0.024 0.018c-20.73 15.865-44.306 29.823-69.466 40.834l-2.195 0.856c-1.12 0.488-2.425 0.772-3.797 0.772-2.88 0-5.468-1.253-7.249-3.243l-0.008-0.009-29.593-32.889-4.642 1.512c-8.105 2.556-16.346 4.763-24.482 6.578l-4.809 1.074-9.073 45.501c-0.921 4.503-4.848 7.844-9.556 7.848h-80.855c-4.711-0.009-8.639-3.346-9.561-7.785l-0.011-0.063-9.073-45.516-4.824-1.059c-8.105-1.799-16.346-4.007-24.436-6.578l-4.657-1.512-29.623 32.904c-1.818 1.987-4.422 3.228-7.316 3.228-1.376 0-2.687-0.281-3.878-0.788l0.065 0.025c-27.32-11.883-50.864-25.824-72.405-42.256l0.835 0.611c-2.392-1.804-3.922-4.64-3.922-7.833 0-1.092 0.179-2.143 0.509-3.123l-0.020 0.069 13.609-41.418-3.614-3.296c-5.807-5.308-11.87-11.356-18.010-17.964l-3.296-3.554-41.614 13.609c-0.893 0.295-1.921 0.466-2.989 0.466-3.19 0-6.025-1.52-7.82-3.874l-0.018-0.024c-15.935-20.666-29.954-44.16-41.030-69.244l-0.857-2.175c-0.475-1.108-0.751-2.397-0.751-3.751 0-2.887 1.256-5.481 3.252-7.264l0.009-0.008 33.010-29.457-1.512-4.673c-2.54-7.969-4.778-16.165-6.638-24.361l-1.059-4.733-43.081-9.073c-4.42-0.996-7.675-4.878-7.697-9.524v-80.494c0.006-4.676 3.29-8.582 7.677-9.545l0.065-0.012 43.081-9.073 1.074-4.733c1.815-8.135 4.053-16.346 6.608-24.376l1.512-4.673-33.025-29.472c-2-1.799-3.252-4.395-3.252-7.284 0-1.389 0.29-2.711 0.812-3.908l-0.025 0.063c11.944-27.224 25.951-50.686 42.45-72.131l-0.593 0.803c1.776-2.395 4.594-3.93 7.77-3.93 1.094 0 2.145 0.182 3.124 0.517l-0.068-0.020 41.66 13.609 3.296-3.584c5.504-6.049 11.553-12.022 17.995-17.949l3.599-3.281-13.609-41.418c-0.316-0.915-0.498-1.97-0.498-3.067 0-3.164 1.516-5.973 3.861-7.743l0.025-0.018c20.74-15.883 44.325-29.856 69.497-40.879l2.194-0.856c1.119-0.486 2.423-0.769 3.793-0.769 2.881 0 5.47 1.251 7.253 3.24l0.008 0.009 29.623 32.92 4.657-1.512c7.863-2.495 16.135-4.718 24.603-6.608l4.733-1.074 9.073-42.9c0.991-4.44 4.89-7.711 9.555-7.727h80.811c4.661 0.049 8.537 3.35 9.47 7.739l0.011 0.064 9.073 42.96 4.748 1.059c8.135 1.799 16.422 4.037 24.603 6.623l4.642 1.512 29.638-32.904c1.791-1.997 4.379-3.247 7.26-3.247 1.382 0 2.697 0.288 3.887 0.807l-0.063-0.024c27.337 11.88 50.897 25.832 72.446 42.283l-0.831-0.609c2.382 1.804 3.906 4.635 3.906 7.821 0 1.091-0.179 2.14-0.508 3.12l0.020-0.069-13.609 41.403 3.614 3.296c6.185 5.671 12.248 11.719 17.98 17.949l3.281 3.569 41.66-13.609c0.904-0.309 1.946-0.487 3.029-0.487 3.154 0 5.956 1.512 7.719 3.85l0.018 0.025c15.931 20.628 29.945 44.076 41.016 69.116l0.855 2.167c0.476 1.11 0.753 2.401 0.753 3.757 0 2.883-1.251 5.473-3.239 7.259l-0.009 0.008-33.025 29.457 1.512 4.673c2.51 7.863 4.718 16.059 6.608 24.361l1.074 4.733 43.066 9.073c4.439 0.987 7.71 4.889 7.712 9.557v0zM831.261 518.285l-41.705-8.831c-3.87-0.839-6.844-3.894-7.552-7.743l-0.009-0.060c-3.080-16.66-7.143-31.212-12.339-45.213l0.605 1.86c-0.373-0.99-0.59-2.134-0.59-3.329 0-2.883 1.259-5.472 3.256-7.247l0.010-0.009 32.678-29.154-2.48-5.141c-8.572-17.544-17.507-32.47-27.534-46.565l0.678 1.004-3.221-4.536-41.191 13.473c-0.924 0.327-1.989 0.516-3.098 0.516-2.949 0-5.585-1.335-7.339-3.434l-0.012-0.015c-9.895-11.52-20.343-21.905-31.55-31.423l-0.401-0.332c-2.163-1.794-3.531-4.482-3.531-7.489 0-1.108 0.186-2.172 0.527-3.164l-0.020 0.068 13.473-40.934-4.536-3.221c-13.153-9.334-28.162-18.243-43.884-25.919l-1.92-0.846-5.111-2.45-29.275 32.663c-1.768 2.003-4.342 3.259-7.209 3.259-1.213 0-2.373-0.225-3.442-0.635l0.066 0.022c-12.148-4.533-26.763-8.58-41.804-11.418l-1.731-0.271c-3.923-0.702-6.994-3.681-7.821-7.497l-0.012-0.064-8.801-41.554h-65.023l-8.831 41.524c-0.831 3.874-3.89 6.852-7.744 7.552l-0.059 0.009c-16.77 3.101-31.39 7.148-45.475 12.305l1.925-0.617c-0.977 0.361-2.106 0.569-3.284 0.569-2.853 0-5.42-1.225-7.204-3.178l-29.343-32.61-5.096 2.435c-17.641 8.53-32.644 17.434-46.815 27.438l1.027-0.688-4.536 3.221 13.504 40.949c0.317 0.919 0.499 1.979 0.499 3.081 0 3.011-1.364 5.703-3.508 7.492l-0.016 0.013c-11.619 9.838-22.068 20.225-31.641 31.384l-0.311 0.371c-1.787 2.111-4.438 3.441-7.4 3.441-1.090 0-2.139-0.18-3.117-0.513l0.068 0.020-41.176-13.473-3.221 4.536c-9.367 13.1-18.293 28.028-25.986 43.672l-0.84 1.89-2.48 5.126 32.647 29.154c2.009 1.794 3.267 4.392 3.267 7.284 0 1.184-0.211 2.319-0.597 3.369l0.022-0.068c-4.601 12.141-8.669 26.688-11.489 41.675l-0.26 1.664c-0.711 3.915-3.687 6.977-7.497 7.806l-0.064 0.012-41.705 8.725v64.645l41.69 8.831c3.874 0.841 6.849 3.903 7.552 7.758l0.009 0.059c3.081 16.651 7.149 31.197 12.353 45.191l-0.604-1.853c0.366 0.983 0.578 2.12 0.578 3.305 0 2.891-1.26 5.488-3.26 7.271l-0.010 0.008-32.663 29.154 2.48 5.126c8.535 17.536 17.472 32.469 27.519 46.555l-0.663-0.979 3.221 4.536 41.176-13.473c0.894-0.298 1.923-0.47 2.992-0.47 2.999 0 5.683 1.352 7.475 3.479l0.012 0.015c9.928 11.522 20.431 21.91 31.702 31.414l0.416 0.341c2.097 1.8 3.417 4.453 3.417 7.415 0 1.102-0.183 2.16-0.519 3.148l0.020-0.069-13.609 40.934 4.536 3.236c13.153 9.319 28.166 18.223 43.889 25.899l1.93 0.851 5.096 2.435 29.306-32.572c1.76-1.996 4.324-3.249 7.18-3.249 1.185 0 2.319 0.216 3.366 0.609l-0.066-0.022c12.191 4.556 26.828 8.6 41.899 11.411l1.697 0.263c3.96 0.713 7.051 3.748 7.837 7.619l0.011 0.062 8.77 44.11h64.826l8.77-44.125c0.808-3.922 3.896-6.943 7.789-7.643l0.059-0.009c16.773-3.088 31.399-7.125 45.491-12.274l-1.925 0.615c0.997-0.38 2.15-0.6 3.354-0.6 2.871 0 5.451 1.25 7.223 3.236l0.008 0.010 29.306 32.572 5.096-2.435c17.683-8.516 32.727-17.426 46.93-27.449l-1.021 0.684 4.536-3.221-13.504-40.964c-0.318-0.921-0.502-1.982-0.502-3.086 0-3.010 1.365-5.7 3.51-7.487l0.016-0.013c11.629-9.835 22.083-20.222 31.657-31.385l0.31-0.37c1.8-2.102 4.456-3.425 7.422-3.425 1.093 0 2.145 0.18 3.126 0.512l-0.069-0.020 41.146 13.458 3.221-4.536c9.378-13.101 18.314-28.029 26.016-43.673l0.84-1.888 2.48-5.126-32.663-29.154c-2.006-1.787-3.264-4.377-3.264-7.26 0-1.193 0.215-2.336 0.609-3.392l-0.022 0.067c4.588-12.134 8.651-26.681 11.472-41.666l0.262-1.673c0.707-3.917 3.685-6.981 7.497-7.806l0.064-0.012 41.72-8.74zM677.203 503.042c-6.044 17.445-12.907 32.354-21.014 46.457l0.691-1.304-2.132 3.72 2.132 3.735c7.429 12.81 14.297 27.729 19.765 43.307l0.574 1.876c15.122 45.274 11.099 82.548-11.296 104.928s-59.639 26.342-104.974 11.25c-17.435-6.030-32.34-12.888-46.435-20.996l1.297 0.688-3.72-2.117-3.735 2.117c-12.816 7.432-27.74 14.301-43.325 19.766l-1.873 0.572c-14.819 5.378-31.925 8.641-49.747 8.98l-0.154 0.002c-1.085 0.056-2.355 0.088-3.633 0.088-19.908 0-38.007-7.745-51.448-20.387l0.039 0.036c-22.365-22.41-26.357-59.685-11.266-104.989 6.012-17.429 12.856-32.329 20.95-46.42l-0.687 1.298 2.132-3.735-2.132-3.72c-7.429-12.82-14.293-27.751-19.752-43.341l-0.571-1.872c-15.122-45.259-11.114-82.533 11.296-104.913 13.448-12.621 31.596-20.374 51.554-20.374 1.11 0 2.214 0.024 3.313 0.071l-0.157-0.005c18.069 0.361 35.256 3.655 51.26 9.425l-1.117-0.352c17.467 6.024 32.408 12.899 46.529 21.036l-1.285-0.683 3.75 2.117 3.735-2.117c12.815-7.438 27.734-14.307 43.316-19.768l1.867-0.57c14.85-5.384 31.992-8.652 49.851-8.995l0.156-0.002c0.988-0.046 2.146-0.073 3.31-0.073 20.045 0 38.265 7.81 51.785 20.552l-0.038-0.035c22.229 22.138 26.311 59.413 11.19 104.747zM542.621 688.523c6.419 3.166 14.483 6.524 22.759 9.431l1.647 0.504c12.88 4.723 27.754 7.613 43.254 7.966l0.16 0.003c1.117 0.079 2.42 0.123 3.733 0.123 14.447 0 27.628-5.421 37.619-14.341l-0.055 0.049c16.089-16.074 19.053-44.835 8.604-79.766l0.121-0.091-1.845-5.534c-3.404-9.906-6.766-17.97-10.554-25.79l0.604 1.383-5.504-11.538-7.47 10.373c-26.496 36.592-57.65 67.752-93.042 93.427l-1.195 0.826-10.404 7.561zM365.442 606.867c-12.506 37.456-10.131 68.455 6.502 85.074l3.856 3.856 0.559-0.287c9.32 6.893 21.040 11.033 33.727 11.033 1.355 0 2.698-0.047 4.029-0.14l-0.179 0.010c15.582-0.384 30.368-3.278 44.137-8.291l-0.965 0.307c9.888-3.398 17.928-6.745 25.726-10.512l-1.395 0.608 11.568-5.489-10.404-7.561c-36.592-26.501-67.751-57.66-93.426-93.056l-0.826-1.196-7.485-10.388-5.489 11.568c-3.184 6.463-6.542 14.559-9.441 22.87l-0.494 1.627zM481.424 415.232c-2.692-1.27-5.398-2.495-8.151-3.69l0.983-0.469-17.284-5.807c-12.9-4.696-27.793-7.561-43.309-7.891l-0.15-0.003c-1.041-0.068-2.257-0.106-3.482-0.106-14.651 0-28.011 5.527-38.109 14.609l0.052-0.046c-16.634 16.634-19.023 47.618-6.563 84.998 3.417 9.935 6.784 18.014 10.575 25.85l-0.61-1.398 5.489 11.568 7.485-10.388c26.501-36.592 57.66-67.751 93.056-93.426l1.196-0.827 10.404-7.485zM512.015 431.79l-4.158 2.722c-45.437 30.030-83.2 67.793-112.324 111.775l-0.906 1.455-15.409 23.469 19.174-9.587c29.449 42.965 65.874 78.798 108.010 106.699l1.455 0.906 4.158 2.722 4.143-2.722c45.439-30.011 83.198-67.766 112.31-111.745l0.905-1.455 2.722-4.158-2.722-4.143c-30.013-45.443-67.773-83.203-111.76-112.31l-1.455-0.905zM652.101 411.814v0c-10.050-9.036-23.414-14.563-38.068-14.563-1.226 0-2.444 0.039-3.651 0.115l0.165-0.008c-15.661 0.333-30.549 3.198-44.415 8.199l0.971-0.306c-9.961 3.438-18.045 6.81-25.889 10.6l1.422-0.619-11.568 5.474 10.404 7.485c36.587 26.501 67.741 57.66 93.411 93.056l0.826 1.197 7.47 10.373 5.504-11.538c3.184-6.436 6.546-14.5 9.452-22.779l0.498-1.627c12.43-37.396 10.056-68.364-6.533-85.028zM511.985 570.333c-10.172 0-18.418-8.246-18.418-18.418s8.246-18.418 18.418-18.418c10.172 0 18.418 8.246 18.418 18.418v0c-0.009 10.169-8.249 18.409-18.417 18.418h-0.001zM511.985 535.69c-8.961 0-16.225 7.264-16.225 16.225s7.264 16.225 16.225 16.225c8.961 0 16.225-7.264 16.225-16.225v0c-0.009-8.958-7.268-16.217-16.225-16.225h-0.001zM88.794 925.357h-34.598v34.643h-19.507v-34.643h-34.643v-19.507h34.643v-34.643h19.507v34.643h34.643zM1024 925.357h-34.659v34.643h-19.522v-34.643h-34.628v-19.507h34.643v-34.643h19.522v34.643h34.643zM140.766-9.835h-34.659v34.643h-19.507v-34.643h-34.643v-19.522h34.643v-34.643h19.522v34.643h34.643zM1024 24.794h-34.659v34.643h-19.522v-34.643h-34.628v-19.522h34.643v-34.643h19.522v34.643h34.643z" />
<glyph unicode="&#xe91b;" glyph-name="contact" d="M962.112 109.182v0c34.116 0.034 61.767 27.66 61.843 61.762v554.119c-0.034 34.133-27.695 61.795-61.825 61.829h-620.159l-41.422 137.014c-6.712 21.063-26.088 36.058-48.972 36.094h-0.004c-0.012 0-0.026 0-0.040 0-5.109 0-10.039-0.765-14.682-2.186l0.355 0.093-88.201-25.972c-8.81-2.653-16.336-7.33-22.323-13.507l-0.013-0.013-99.362-102.879c-6.293-6.595-10.84-14.909-12.865-24.166l-0.062-0.336c-10.033-46.349-37.667-214.426 28.050-431.746 65.821-217.676 182.013-343.040 216.059-376.27 6.55-6.42 14.825-11.102 24.065-13.288l0.348-0.069 140.101-32.384c3.449-0.806 7.41-1.268 11.478-1.268 5.223 0 10.267 0.762 15.029 2.18l-0.372-0.095 88.083 25.987c13.254 3.932 24.004 12.749 30.381 24.315l0.133 0.262c3.798 6.898 6.033 15.119 6.033 23.862 0 5.178-0.784 10.173-2.239 14.873l0.095-0.356-24.785 82.131zM970.364 129.871c-2.441-0.536-5.255-0.859-8.139-0.89h-421.381l-28.198 93.069c-6.703 21.087-26.11 36.097-49.022 36.097-5.157 0-10.136-0.76-14.832-2.175l0.363 0.094-147.106-43.455c-0.933-0.29-2.005-0.457-3.116-0.457-2.47 0-4.747 0.824-6.572 2.212l0.027-0.019c-2.493 2.152-4.809 4.348-7.421 6.812l-7.257 6.842 221.283 212.541 40.858-37.815c11.056-10.111 25.842-16.306 42.075-16.306s31.019 6.195 42.123 16.349l-0.048-0.043 40.071 37.237 320.036-307.213zM264.293 242.664l-5.091 6.233c-35.059 42.555-62.333 92.995-78.762 148.11l-0.772 3.018c-12.47 36.859-19.667 79.312-19.667 123.445 0 32.586 3.923 64.255 11.324 94.561l-0.561-2.72c1.064 3.588 3.832 6.357 7.344 7.401l0.077 0.020 93.989 27.709 212.244-196.394zM1001.575 739.177c1.596-4.172 2.539-8.997 2.582-14.036v-554.13c-0.046-4.798-0.896-9.384-2.421-13.648l0.091 0.291-3.814-10.908-319.398 306.575 319.086 296.261zM359.677 728.907l-11.68 38.186h614.219c2.538-0.037 4.99-0.3 7.368-0.77l-0.259 0.043 14.47-2.716-373.272-346.468c-7.494-6.917-17.547-11.159-28.592-11.159s-21.098 4.242-28.62 11.185l0.029-0.026-258.92 239.656 30.914 9.127c13.232 3.949 23.96 12.768 30.322 24.329l0.133 0.263c3.801 6.889 6.038 15.102 6.038 23.837 0 5.177-0.786 10.17-2.244 14.867l0.095-0.355zM552.702 21.471c0.844-2.657 1.331-5.712 1.331-8.881 0-5.313-1.367-10.307-3.769-14.649l0.079 0.156-2.612-3.859c-4.002-5.269-9.547-9.18-15.958-11.075l-0.219-0.056-29.979-8.905-44.286 146.557c-0.68 2.684-2.375 4.888-4.643 6.223l-0.047 0.025c-1.409 0.836-3.107 1.329-4.919 1.329-0.922 0-1.814-0.128-2.659-0.366l0.069 0.017c-4.26-1.168-7.339-5.006-7.339-9.562 0-0.906 0.122-1.784 0.35-2.618l-0.016 0.069 44.524-147.299-39.151-11.472c-2.692-0.838-5.787-1.321-8.995-1.321-0.005 0-0.010 0-0.015 0h0.001c-2.529 0.005-4.985 0.303-7.341 0.86l0.218-0.043-140.101 32.295c-5.913 1.419-11.012 4.324-15.053 8.3l0.004-0.004c-33.126 32.398-146.498 154.72-210.879 367.795s-37.415 376.759-27.634 421.862c1.307 5.859 4.101 10.932 7.966 14.972l-0.011-0.012 99.258 102.865c3.658 3.777 8.234 6.642 13.37 8.236l0.225 0.060 39.329 11.561 44.301-146.557c1.263-4.095 5.015-7.020 9.449-7.020 0.017 0 0.035 0 0.052 0h-0.003c0.010 0 0.022 0 0.034 0 0.978 0 1.921 0.152 2.806 0.434l-0.065-0.018c4.12 1.277 7.061 5.053 7.061 9.516 0 1.009-0.15 1.984-0.43 2.902l0.018-0.070-44.182 146.409 29.905 8.905c2.68 0.827 5.761 1.303 8.954 1.303 14.008 0 25.874-9.167 29.928-21.828l0.062-0.222 58.89-194.984c0.842-2.651 1.327-5.699 1.327-8.861 0-5.263-1.343-10.212-3.706-14.523l0.079 0.157c-4.003-7.22-10.572-12.607-18.448-14.977l-0.222-0.057-30.009-8.831-8.905 29.549c-1.412 3.816-5.019 6.487-9.251 6.487-1.163 0-2.279-0.202-3.314-0.572l0.069 0.021c-3.922-1.392-6.681-5.070-6.681-9.393 0-0.881 0.115-1.736 0.33-2.549l-0.016 0.069 8.831-29.148-98.19-29c-10.095-2.944-17.876-10.755-20.725-20.654l-0.052-0.213c-7.272-29.172-11.444-62.661-11.444-97.125 0-46.157 7.484-90.566 21.304-132.080l-0.851 2.95c22.082-77.193 63.219-143.024 118.066-194.396l0.234-0.217c5.288-4.59 12.24-7.387 19.845-7.387 3.101 0 6.092 0.465 8.91 1.329l-0.215-0.057 98.382 29 8.905-29.579c0.674-2.679 2.365-4.879 4.628-6.208l0.047-0.025c1.406-0.838 3.1-1.334 4.911-1.334 0.925 0 1.82 0.129 2.667 0.371l-0.068-0.017c4.262 1.155 7.345 4.988 7.345 9.541 0 0.914-0.124 1.799-0.357 2.639l0.016-0.069-9.172 30.261 29.92 8.786c2.698 0.836 5.8 1.318 9.015 1.318 13.956 0 25.791-9.078 29.924-21.65l0.063-0.223zM719.71 697.845c5.258 0.262 9.421 4.589 9.421 9.888 0 5.377-4.288 9.753-9.631 9.896h-277.128c-0.047 0.001-0.103 0.001-0.159 0.001-2.638 0-5.037-1.022-6.822-2.693l0.006 0.005c-1.915-1.809-3.108-4.366-3.108-7.202 0-5.37 4.276-9.741 9.609-9.895h0.014l0.787-7.421v7.421zM934.893 569.216v-242.402c-0.007-0.135-0.010-0.293-0.010-0.451 0-5.37 4.257-9.746 9.58-9.937h0.017c0.103-0.004 0.224-0.006 0.345-0.006 5.351 0 9.705 4.264 9.851 9.58v243.216c0.005 0.114 0.007 0.248 0.007 0.383 0 5.467-4.432 9.899-9.899 9.899s-9.899-4.432-9.899-9.899c0-0.135 0.003-0.269 0.008-0.402l-0.001 0.019z" />
<glyph unicode="&#xe91c;" glyph-name="search" d="M1004.522 48.308l-172.009 172.124c57.585 75.581 92.259 171.325 92.259 275.167 0 0.736-0.002 1.472-0.005 2.207v-0.113c-0.022 255.351-207.030 462.345-462.384 462.345-255.367 0-462.384-207.016-462.384-462.384 0-255.34 206.972-462.34 462.303-462.384h0.004c0.705-0.004 1.538-0.006 2.372-0.006 103.717 0 199.357 34.585 276.016 92.851l-1.126-0.821 171.97-172.162c11.775-11.206 27.744-18.099 45.323-18.099 36.339 0 65.797 29.458 65.797 65.797 0 17.579-6.894 33.548-18.125 45.351l0.026-0.027zM462.269 166.789c-0.035 0-0.077 0-0.118 0-182.774 0-330.942 148.168-330.942 330.942s148.168 330.942 330.942 330.942c182.774 0 330.942-148.168 330.942-330.942 0-91.387-37.041-174.122-96.93-234.010v0c-59.875-59.842-142.555-96.872-233.883-96.932h-0.012z" />
<glyph unicode="&#xe91d;" glyph-name="play2" horiz-adv-x="892" d="M891.879 448.024l-891.879-512.024 276.333 512.024-276.333 511.976z" />
<glyph unicode="&#xe91e;" glyph-name="close" horiz-adv-x="1025" d="M33.067-64c8.366 0.005 15.941 3.388 21.435 8.858l-0.001-0.001 4.665 4.192 454.665 454.665 458.267-458.326c5.748-5.507 13.562-8.898 22.168-8.898 8.755 0 16.691 3.509 22.477 9.197l-0.005-0.004c4.646 5.935 7.449 13.507 7.449 21.734 0 9.256-3.55 17.683-9.362 23.994l0.023-0.025-456.673 456.673 458.326 458.326c5.678 5.684 9.19 13.533 9.19 22.202 0 17.342-14.052 31.401-31.391 31.413h-0.001c-0.030 0-0.066 0-0.101 0-8.641 0-16.46-3.522-22.098-9.209l-458.269-458.21-458.208 458.208c-5.744 6.101-13.873 9.9-22.89 9.9-17.349 0-31.413-14.064-31.413-31.413 0-9.017 3.799-17.147 9.884-22.876l0.016-0.015 458.208-458.208-458.503-458.267c-6.283-5.104-10.409-12.652-10.92-21.175l-0.004-0.082c-0.013-0.314-0.021-0.683-0.021-1.054 0-7.183 2.794-13.714 7.355-18.564l-0.013 0.014c6.431-7.247 15.446-12.077 25.588-13.037l0.157-0.012z" />
<glyph unicode="&#xe91f;" glyph-name="disable" d="M983.812 248.688c25.522 58.82 40.368 127.326 40.368 199.3 0 282.859-229.302 512.161-512.161 512.161-210.885 0-392-127.456-470.517-309.537l-1.276-3.324c-25.522-58.82-40.368-127.326-40.368-199.3 0-282.859 229.302-512.161 512.161-512.161 210.885 0 392 127.456 470.517 309.537l1.276 3.324zM768.31 86.336c-71.324-51.178-160.38-81.84-256.598-81.84-244.764 0-443.184 198.42-443.184 443.184 0 96.222 30.665 185.281 82.754 257.939l-0.908-1.332 18.739 26.36 625.533-625.54zM854.933 165.338l-625.572 625.58 26.368 18.739c71.297 51.119 160.304 81.745 256.464 81.745 244.764 0 443.184-198.42 443.184-443.184 0-96.164-30.628-185.174-82.66-257.808l0.909 1.335z" />
<glyph unicode="&#xe920;" glyph-name="phone" horiz-adv-x="1022" d="M995.113 208.487l-142.928 142.891c-17.291 17.77-41.436 28.794-68.156 28.794-41.574 0-76.915-26.689-89.824-63.868l-0.202-0.667c-14.107-37.415-49.611-63.545-91.218-63.545-7.461 0-14.726 0.84-21.705 2.431l0.652-0.125c-102.065 25.535-239.871 158.182-265.406 265.406-2.034 7.237-3.203 15.547-3.203 24.13 0 41.063 26.757 75.877 63.788 87.956l0.654 0.185c37.847 13.11 64.536 48.451 64.536 90.026 0 26.72-11.024 50.865-28.773 68.135l-0.022 0.021-142.966 142.966c-18.080 16.621-42.302 26.808-68.903 26.808s-50.823-10.188-68.976-26.875l0.073 0.066-96.943-96.98c-96.98-102.065 10.206-372.555 250.078-612.426s510.399-352.142 612.464-250.078l96.98 96.98c16.618 18.074 26.805 42.29 26.805 68.884s-10.187 50.81-26.871 68.957l0.066-0.073z" />
<glyph unicode="&#xe921;" glyph-name="phone_2" horiz-adv-x="1022" d="M995.089 208.507l-142.903 142.903c-17.293 17.812-41.462 28.865-68.214 28.865-41.581 0-76.925-26.705-89.816-63.9l-0.201-0.667c-14.090-37.453-49.614-63.616-91.249-63.616-7.459 0-14.721 0.84-21.699 2.43l0.652-0.125c-123.923 45.511-219.896 141.499-264.401 262.377l-0.985 3.056c-2.036 7.239-3.206 15.552-3.206 24.139 0 41.089 26.794 75.919 63.863 87.972l0.654 0.184c37.769 13.144 64.39 48.442 64.39 89.957 0 26.711-11.020 50.847-28.761 68.112l-142.877 143.019c-18.077 16.628-42.301 26.822-68.905 26.822s-50.828-10.193-68.977-26.888l0.073 0.066-96.967-96.967c-96.967-102.060 10.187-372.587 249.963-612.457s510.396-352.165 612.457-249.963l96.967 96.967c16.645 18.081 26.849 42.316 26.849 68.935 0 26.545-10.148 50.72-26.776 68.856l0.068-0.075z" />
<glyph unicode="&#xe922;" glyph-name="Rectangle-404" horiz-adv-x="998" d="M499.038 960c275.611 0 499.038-223.427 499.038-499.038v-25.924c0-275.611-223.427-499.038-499.038-499.038s-499.038 223.427-499.038 499.038v25.924c0 275.611 223.427 499.038 499.038 499.038z" />
<glyph unicode="&#xe923;" glyph-name="download" horiz-adv-x="1229" d="M614.391 243.053c-0.001 0-0.001 0-0.002 0-10.899 0-20.735 4.551-27.712 11.855l-0.014 0.015-268.831 281.746c-6.562 6.878-10.599 16.215-10.599 26.494 0 21.185 17.15 38.364 38.323 38.411h140.831v294.376c0.027 35.347 28.66 63.996 63.998 64.050h128.201c35.326-0.054 63.949-28.677 64.003-63.998v-294.381h140.826c21.178-0.048 38.328-17.227 38.328-38.411 0-10.279-4.038-19.616-10.614-26.509l0.014 0.015-268.784-281.604c-7.005-7.432-16.915-12.060-27.906-12.060-0.021 0-0.042 0-0.063 0h0.003zM1139.234-64h-1049.639c-49.46 0.054-89.541 40.135-89.595 89.589v25.597c0.054 49.46 40.135 89.541 89.589 89.595h1049.645c49.46-0.054 89.541-40.135 89.595-89.589v-25.597c-0.054-49.46-40.135-89.541-89.589-89.595h-0.005z" />
<glyph unicode="&#xe924;" glyph-name="export" d="M921.43 451.149h-72.319c-14.981 0-27.125-12.144-27.125-27.125v0-329.732c-0.026-17.526-14.239-31.723-31.769-31.723h-631.926c-17.509 0.026-31.697 14.213-31.723 31.72v631.928c0 0 0 0 0 0 0 17.529 14.197 31.742 31.72 31.769h346.654c14.981 0 27.125 12.144 27.125 27.125v0 72.319c0 14.981-12.144 27.125-27.125 27.125v0h-346.651c-87.416-0.078-158.259-70.922-158.338-158.33v-631.934c0.026-87.455 70.889-158.351 158.33-158.43h631.979c87.38 0.105 158.187 70.912 158.292 158.282v329.88c0 14.981-12.144 27.125-27.125 27.125v0zM996.875 960h-287.665c-14.981 0-27.125-12.144-27.125-27.125v0-72.319c0-14.981 12.144-27.125 27.125-27.125v0h98.754l-371.524-371.524c-4.903-4.908-7.936-11.686-7.936-19.172s3.033-14.264 7.936-19.172v0l51.124-51.124c4.908-4.903 11.686-7.936 19.172-7.936s14.264 3.033 19.172 7.936l371.523 371.477v-98.708c0-14.981 12.144-27.125 27.125-27.125v0h72.319c14.981 0 27.125 12.144 27.125 27.125v0 287.665c0 14.981-12.144 27.125-27.125 27.125v0z" />
<glyph unicode="&#xe925;" glyph-name="grid" horiz-adv-x="1023" d="M153.363 960c-84.637-0.593-153.056-69.189-153.363-153.837v-153.392c0.331-84.643 68.751-153.195 153.311-153.74h153.415c84.662 0.59 153.132 69.076 153.698 153.687v153.417c-0.566 84.691-69.021 153.205-153.635 153.866h-0.063zM716.309 960c-84.637-0.593-153.056-69.189-153.363-153.837v-153.392c0.331-84.643 68.751-153.195 153.311-153.74h153.918c84.612 0.545 153.032 69.098 153.363 153.709v153.395c-0.307 84.678-68.726 153.274-153.306 153.866h-0.057zM153.363 396.55c-84.556-0.356-153.007-68.806-153.363-153.329v-153.481c0.331-84.643 68.751-153.195 153.311-153.74h153.415c84.652 0.614 153.109 69.085 153.698 153.684v153.503c-0.593 84.637-69.189 153.056-153.837 153.363h-0.029zM716.309 396.55c-84.556-0.356-153.007-68.806-153.363-153.329v-153.481c0.331-84.643 68.751-153.195 153.311-153.74h153.918c84.612 0.545 153.032 69.098 153.363 153.709v153.479c-0.356 84.556-68.806 153.007-153.329 153.363h-0.034z" />
<glyph unicode="&#xe926;" glyph-name="warning" horiz-adv-x="1191" d="M1175.442 98.221l-488.443 810.042c-19.060 31.214-52.94 51.733-91.612 51.733s-72.552-20.519-91.346-51.264l-0.267-0.469-488.435-810.042c-9.65-15.757-15.365-34.83-15.365-55.238 0-59.081 47.894-106.975 106.975-106.975 0.001 0 0.002 0 0.003 0h976.917c0.001 0 0.002 0 0.002 0 59.081 0 106.975 47.894 106.975 106.975 0 20.408-5.715 39.482-15.632 55.708l0.267-0.469zM1109.47 28.498c-5.16-8.995-14.702-14.959-25.639-14.971h-976.887c-16.264 0-29.448 13.185-29.448 29.449 0 5.618 1.573 10.869 4.303 15.335l-0.073-0.129 488.443 810.050c5.247 8.593 14.573 14.241 25.218 14.241s19.972-5.649 25.145-14.112l0.073-0.129 488.443-810.050c2.655-4.34 4.228-9.592 4.228-15.211 0-5.319-1.409-10.308-3.873-14.616l0.076 0.144zM595.747 641.025c-29.488 0-52.489-15.825-52.489-43.871 0-85.596 10.067-208.592 10.067-294.18 0-22.296 19.421-31.65 42.438-31.65 17.235 0 41.717 9.346 41.717 31.65 0 85.596 10.067 208.592 10.067 294.18-0.008 28.046-23.745 43.871-51.799 43.871zM596.475 221.687c-30.59 0-55.387-24.798-55.387-55.387s24.798-55.387 55.387-55.387v0c30.59 0 55.387 24.798 55.387 55.387s-24.798 55.387-55.387 55.387v0z" />
<glyph unicode="&#xe927;" glyph-name="tags" horiz-adv-x="1227" d="M1227.122 583.533v297.238c-0.908 43.37-35.815 78.294-79.093 79.227l-0.088 0.002h-297.238c-40.456-1.818-77.638-14.386-109.187-34.89l0.846 0.515-465.89-511.834c-13.405-14.607-21.62-34.164-21.62-55.64s8.215-41.034 21.675-55.701l-0.055 0.060 344.368-343.088c14.095-14.551 33.813-23.584 55.64-23.584s41.546 9.032 55.621 23.563l0.020 0.020 438.674 488.364c31.727 36.504 52.376 83.394 56.28 134.961l0.048 0.785zM1076.867 701.404c-13.761-13.289-32.523-21.477-53.197-21.477-42.317 0-76.621 34.304-76.621 76.621 0 20.674 8.188 39.436 21.498 53.219l-0.021-0.022c14.13 13.264 33.199 21.412 54.17 21.412s40.040-8.148 54.213-21.452l-0.042 0.039c13.603-13.981 21.992-33.096 21.992-54.17s-8.389-40.189-22.009-54.188l0.017 0.018zM709.266 958.72h-113.794c-52.509-1.718-99.773-22.852-135.125-56.413l0.090 0.085-438.674-489.739c-13.513-14.803-21.79-34.587-21.79-56.304s8.277-41.501 21.849-56.369l-0.059 0.065 343.325-343.088c15.043-11.951 34.311-19.174 55.266-19.174 25.712 0 48.883 10.874 65.167 28.275l0.046 0.050-336.639 336.639c-13.346 14.632-21.52 34.181-21.52 55.64s8.174 41.009 21.578 55.705l-0.059-0.065 392.54 439.196c44.733 48.096 101.341 84.556 165.178 104.755l2.714 0.741z" />
<glyph unicode="&#xe928;" glyph-name="arrow-left" horiz-adv-x="1051" d="M604.26 4.571l-52.056-52.056c-10.148-10.208-24.2-16.526-39.727-16.526s-29.579 6.318-39.724 16.523l-455.875 455.647c-10.208 10.148-16.526 24.2-16.526 39.727s6.318 29.579 16.523 39.724l455.723 455.875c10.148 10.208 24.2 16.526 39.727 16.526s29.579-6.318 39.724-16.523l0.003-0.003 52.208-52.132c10.163-10.187 16.447-24.247 16.447-39.774 0-15.977-6.653-30.401-17.34-40.651l-282.6-269.204h673.991c0.023 0 0.049 0 0.076 0 31.020 0 56.166-25.146 56.166-56.166 0 0 0 0 0 0v0-75.040c0-0.023 0-0.049 0-0.076 0-31.020-25.146-56.166-56.166-56.166-0.027 0-0.054 0-0.080 0h-673.987l282.58-269.261c10.802-10.221 17.525-24.657 17.525-40.663 0-15.56-6.353-29.636-16.607-39.775l-0.005-0.005z" />
<glyph unicode="&#xe929;" glyph-name="video" horiz-adv-x="1743" d="M985.797 960h-795.106c-105.192-0.308-190.383-85.499-190.691-190.662v-642.647c0.308-105.192 85.499-190.383 190.662-190.691h795.135c105.192 0.308 190.383 85.499 190.691 190.662v642.647c0.001 0.194 0.001 0.423 0.001 0.652 0 104.956-85.084 190.040-190.040 190.040-0.229 0-0.458 0-0.688-0.001h0.035zM1601.608 855.049c-12.325-2.652-23.227-7.277-32.939-13.58l0.38 0.231-297.703-171.589v-442.377l299.331-171.589c16.479-9.875 36.357-15.714 57.598-15.714 42.167 0 78.959 23.011 98.504 57.161l0.293 0.555c9.535 16.434 15.202 36.143 15.303 57.167v589.25c-0.698 62.824-51.789 113.483-114.712 113.483-9.241 0-18.227-1.093-26.836-3.156l0.782 0.158z" />
<glyph unicode="&#xe92a;" glyph-name="black-prev" horiz-adv-x="1005" d="M363.81 476.865l221.957 131.207c4.432 2.712 9.796 4.318 15.535 4.318 16.625 0 30.102-13.477 30.102-30.102 0-0.085 0-0.17-0.001-0.255v0.013-262.376c0-0.010 0-0.022 0-0.034 0-16.699-13.538-30.237-30.237-30.237-5.688 0-11.010 1.571-15.555 4.302l0.137-0.076-221.938 131.227c-9.002 5.348-14.942 15.022-14.942 26.083s5.939 20.735 14.802 26.006l0.139 0.077z" />
<glyph unicode="&#xe92c;" glyph-name="send_2" horiz-adv-x="1195" d="M0.567-64l1194.104 512.013-1194.104 511.986-0.567-398.224 853.329-113.79-853.329-113.763z" />
<glyph unicode="&#xea3a;" glyph-name="arrow-up2" d="M877.254 557.254l-320 320c-24.992 24.994-65.514 24.994-90.508 0l-320-320c-24.994-24.994-24.994-65.516 0-90.51 24.994-24.996 65.516-24.996 90.51 0l210.744 210.746v-613.49c0-35.346 28.654-64 64-64s64 28.654 64 64v613.49l210.746-210.746c12.496-12.496 28.876-18.744 45.254-18.744s32.758 6.248 45.254 18.746c24.994 24.994 24.994 65.514 0 90.508z" />
</font>
</defs>
</svg>
